{"glyphs":{"0":{"ha":989,"x_min":32,"x_max":1022,"o":"m 1018 403 q 1021 401 1019 403 q 1019 399 1022 400 q 1013 375 1017 388 q 1007 350 1010 363 l 994 300 l 982 250 l 968 203 l 953 153 l 940 103 l 926 54 l 911 4 q 882 -12 904 -16 q 868 -2 872 -9 q 864 12 864 5 l 864 16 q 867 73 865 43 q 869 129 868 102 q 871 188 869 159 q 872 244 872 216 q 873 302 873 273 q 873 358 873 330 q 873 417 873 389 q 872 473 873 446 q 871 531 872 503 q 868 587 869 559 q 863 644 865 615 q 856 700 860 672 q 844 753 852 725 q 842 765 843 760 q 839 778 840 771 q 834 789 836 785 q 831 800 832 793 q 828 804 828 800 q 823 808 827 807 q 819 815 823 815 q 818 818 818 817 q 815 819 818 819 l 815 821 l 814 821 l 812 821 q 811 819 811 821 q 803 817 807 819 l 798 811 q 778 796 787 804 q 770 787 774 792 q 761 778 766 782 q 746 756 754 767 q 730 733 737 745 q 672 637 699 687 q 644 587 656 612 q 619 536 632 562 q 595 485 607 511 q 572 432 583 458 q 548 380 560 407 q 524 328 536 354 q 502 274 513 300 q 478 221 490 249 q 456 168 467 195 q 435 115 446 142 q 424 89 429 103 q 414 61 418 75 q 403 35 408 49 q 393 8 397 21 l 393 7 q 372 -1 387 -9 q 361 17 359 1 q 365 31 363 24 q 368 46 366 39 q 371 61 370 54 q 374 75 372 68 q 379 106 376 91 q 385 138 382 122 q 389 168 387 153 q 393 199 390 183 q 395 229 395 214 q 397 258 395 244 l 397 321 q 393 351 395 336 q 389 379 392 366 q 383 394 386 387 q 378 407 380 400 q 361 428 370 422 q 359 429 361 428 q 357 431 357 429 l 357 432 l 355 432 l 351 433 l 349 433 l 347 433 q 346 436 347 435 l 345 436 l 343 436 l 340 436 l 339 436 l 335 436 l 332 433 l 328 433 q 322 432 323 433 l 319 432 q 315 429 318 429 q 306 423 311 427 q 294 415 300 419 q 283 404 288 410 q 273 395 279 399 q 264 382 269 388 q 256 370 260 376 q 248 357 253 363 q 240 345 243 351 q 233 331 236 338 q 224 317 229 325 q 217 303 221 310 q 211 290 214 297 q 199 264 204 278 q 186 236 193 250 q 175 207 179 220 q 164 178 171 193 q 154 149 159 162 q 143 121 150 136 q 133 92 138 105 q 123 62 129 78 l 115 33 l 111 20 q 109 11 110 14 q 107 4 107 7 q 93 -15 104 -8 q 69 -18 81 -21 q 47 7 50 -12 l 47 12 l 45 17 l 45 25 q 43 33 43 28 q 40 41 43 37 q 39 57 40 50 q 39 75 39 65 q 35 108 36 91 q 32 142 35 125 l 32 208 q 35 241 35 224 q 36 275 35 258 q 41 308 39 291 q 45 340 43 325 q 51 373 47 357 q 60 407 54 389 q 77 471 66 441 q 86 502 81 486 q 98 533 92 518 q 114 566 105 551 l 119 579 q 124 588 122 585 q 127 595 126 591 q 145 624 136 610 q 164 653 154 637 q 183 681 174 667 q 203 707 192 694 q 225 731 214 719 q 249 754 237 743 q 275 777 261 766 q 301 799 289 787 l 315 807 q 319 810 318 808 q 322 812 319 811 l 328 817 q 337 821 333 819 q 343 825 340 823 l 357 833 q 372 842 363 840 l 378 846 q 386 850 382 846 q 401 856 394 852 q 415 863 408 860 q 424 866 420 865 q 432 869 428 867 l 447 875 q 454 878 450 878 q 461 882 458 879 l 478 886 q 482 884 482 886 q 481 879 482 880 l 465 871 l 460 869 q 452 865 456 865 l 439 857 q 434 854 436 854 q 431 852 432 854 l 424 848 q 411 840 417 843 q 397 832 404 836 q 390 828 393 828 l 385 823 q 370 812 374 817 l 357 804 q 345 794 349 796 l 339 787 q 332 783 336 787 l 322 774 q 299 752 310 763 q 277 729 288 741 q 256 704 267 717 q 236 679 245 692 q 220 654 229 667 q 203 628 211 642 q 189 599 196 612 q 174 571 182 586 q 161 543 167 557 q 151 515 155 529 q 142 485 146 500 q 132 454 138 469 q 118 395 124 425 q 113 363 115 379 q 107 332 110 347 q 104 300 106 316 q 102 269 103 285 q 99 238 99 254 q 98 207 98 222 q 98 153 97 179 q 102 160 101 157 q 106 170 103 164 q 118 199 111 182 q 132 226 125 212 q 147 254 139 240 q 176 309 159 283 q 194 337 186 324 q 211 363 201 350 q 230 388 220 375 q 252 412 240 401 q 264 425 258 419 q 277 436 269 431 q 290 445 283 440 q 306 453 297 450 q 309 454 306 453 l 310 454 l 314 457 q 319 458 317 457 q 323 458 321 458 l 328 458 q 330 460 330 458 q 332 461 330 461 l 336 461 l 339 461 l 340 461 l 343 461 l 345 461 q 347 458 345 458 l 351 458 q 355 457 355 458 l 361 457 l 366 454 q 370 450 368 453 l 372 450 l 374 449 q 375 447 374 448 q 378 446 376 446 q 399 416 390 433 q 410 386 406 399 q 412 370 411 378 q 415 354 414 363 q 416 337 415 345 q 418 321 418 329 q 418 258 419 289 q 418 227 418 243 q 415 196 418 211 q 414 182 415 186 q 424 210 418 195 q 435 237 429 224 q 453 293 444 265 q 472 349 463 321 q 493 402 483 375 q 514 457 503 429 q 537 511 525 484 q 559 566 549 538 q 585 618 572 592 q 610 669 597 644 q 638 722 623 696 q 668 774 653 749 q 684 799 675 786 q 703 823 693 811 q 714 836 708 830 q 724 848 720 842 q 736 861 730 855 q 749 871 742 867 q 758 876 754 873 q 765 882 761 879 q 775 887 770 884 q 785 892 779 890 q 797 895 791 895 q 810 899 803 896 l 814 899 l 815 899 l 818 899 l 819 899 l 822 896 l 831 896 q 834 895 832 896 q 839 895 836 895 q 851 888 846 892 q 861 882 857 885 q 871 874 867 879 q 878 865 875 869 q 885 858 883 863 q 890 848 888 852 q 895 842 895 844 q 899 833 899 835 q 911 803 908 820 q 920 771 918 785 q 927 741 925 755 q 932 711 929 726 q 939 652 937 681 q 943 591 940 623 q 945 532 945 562 q 945 475 945 503 q 944 416 945 446 q 943 358 943 386 q 939 300 941 329 q 935 241 937 272 q 933 218 935 229 q 932 195 932 207 l 939 211 l 957 258 l 977 307 l 994 354 q 1004 377 1000 365 q 1014 403 1008 390 q 1018 403 1014 403 z "},"1":{"ha":785,"x_min":-35,"x_max":832,"o":"m 828 478 q 832 469 832 478 q 831 467 832 468 l 829 467 l 828 467 l 828 461 l 823 461 q 812 444 818 456 q 799 405 806 429 q 782 345 791 380 q 763 270 774 311 q 742 178 753 228 q 735 152 739 165 q 729 125 732 138 l 715 69 q 708 42 713 57 q 699 11 703 28 q 693 -3 696 4 q 688 -17 690 -9 q 687 -21 688 -20 q 686 -24 686 -22 l 686 -25 l 682 -33 l 677 -41 l 675 -47 q 671 -50 673 -50 l 669 -56 q 665 -58 669 -58 l 665 -64 l 663 -64 l 661 -66 l 659 -66 l 654 -72 l 653 -72 q 648 -75 650 -75 l 646 -75 l 644 -75 l 642 -75 l 640 -75 l 632 -75 l 628 -75 q 624 -72 625 -73 q 619 -67 621 -68 q 615 -64 616 -66 l 611 -56 q 608 -53 608 -56 l 608 -50 q 605 -44 606 -47 q 603 -39 604 -41 l 603 -33 l 600 -31 l 600 -25 l 599 -22 l 599 -14 l 596 -8 l 596 -5 l 596 3 q 595 15 595 9 q 595 28 595 21 l 595 53 q 595 75 595 64 q 596 94 595 86 q 597 132 596 114 q 600 170 599 150 q 604 241 604 207 q 607 259 607 250 q 607 278 607 269 l 607 311 l 607 342 q 606 345 607 343 q 606 349 606 346 q 604 353 604 351 l 603 353 l 600 353 l 591 353 q 578 345 586 353 q 545 317 564 335 q 529 297 536 306 q 511 275 521 288 q 494 252 503 264 q 478 228 485 240 q 460 200 469 212 q 441 175 452 187 q 433 162 437 168 q 424 150 428 157 q 414 135 418 143 q 403 119 410 126 q 397 114 400 117 q 392 109 395 111 q 386 101 389 104 q 378 94 382 98 l 374 94 q 370 92 371 92 l 367 92 l 366 92 l 363 92 l 361 92 q 360 90 361 90 q 359 87 359 89 l 359 86 q 358 86 358 85 q 355 86 357 85 q 354 92 354 86 l 350 92 q 346 94 346 92 q 340 100 342 94 q 338 101 338 100 q 336 103 338 103 l 332 111 q 330 116 332 115 q 329 119 329 117 q 328 124 329 123 q 328 127 328 125 q 325 136 328 136 l 325 144 l 325 150 l 325 153 l 325 161 q 328 178 325 175 q 328 184 328 182 q 329 195 328 187 q 330 207 329 201 q 334 216 332 212 q 338 239 336 229 q 342 261 340 249 q 351 304 347 285 q 363 345 355 323 q 372 383 368 364 q 382 425 376 401 q 387 444 385 433 q 392 467 389 454 q 397 485 395 475 q 400 503 399 494 q 428 669 417 589 q 431 713 431 693 q 432 753 432 733 q 432 772 432 764 q 429 791 432 781 q 428 809 429 800 q 424 825 427 818 q 418 835 421 832 q 411 842 415 838 q 396 844 407 844 l 395 844 l 392 844 l 387 844 l 382 842 l 378 842 q 367 836 371 842 q 363 835 366 836 q 358 833 361 833 q 292 761 322 810 q 262 718 276 741 q 236 669 249 694 q 209 620 220 644 q 186 567 197 595 q 174 542 179 555 q 163 517 170 529 q 158 504 160 510 q 153 492 155 498 q 147 479 150 485 q 142 467 144 473 q 103 366 122 412 q 69 275 85 319 q 41 189 54 227 q 17 119 28 151 q -2 62 6 87 q -17 20 -9 37 q -29 -17 -24 -1 q -32 -22 -29 -17 q -33 -22 -33 -24 q -35 -14 -35 -17 l -35 -9 q -33 0 -35 -4 q -32 11 -33 3 q -29 28 -31 20 q -22 79 -26 52 q -9 144 -17 107 q 7 225 -3 182 q 29 319 17 269 q 58 425 41 370 q 94 536 74 479 q 114 593 104 566 q 138 650 125 621 q 164 707 150 677 q 195 761 179 736 q 228 811 208 786 q 265 852 246 836 q 307 886 283 873 q 329 898 318 893 q 350 903 339 903 q 363 908 354 908 l 370 908 l 375 908 l 379 908 l 386 908 l 392 908 l 395 908 l 399 908 q 411 901 406 904 q 424 892 416 899 q 430 883 427 888 q 436 875 433 878 q 439 863 437 868 q 444 850 441 857 q 450 825 447 838 q 453 800 453 812 q 454 777 454 789 q 454 753 454 765 q 452 706 454 728 q 449 661 450 685 q 438 573 444 616 q 425 486 432 530 q 422 467 424 478 q 419 444 421 456 q 414 422 416 432 q 411 400 412 412 q 405 357 408 376 q 399 317 401 338 q 393 279 396 297 q 387 244 390 261 q 395 257 390 251 q 403 269 400 262 q 437 330 420 301 q 471 386 454 358 q 489 414 480 398 q 509 441 498 429 q 531 463 519 454 q 553 484 542 472 q 566 493 559 490 q 579 500 572 496 q 585 501 582 500 q 591 503 589 503 l 600 503 l 603 503 l 604 503 l 607 503 l 608 503 l 611 503 l 612 503 l 615 503 l 616 503 l 621 503 q 624 501 623 503 q 625 500 624 500 q 636 493 631 496 q 646 484 642 490 q 655 470 651 477 q 663 453 660 464 q 668 438 665 445 q 673 419 671 431 q 677 389 676 404 q 682 358 679 374 q 683 333 682 346 q 682 309 684 321 q 681 264 682 285 q 677 225 679 244 q 674 183 675 201 q 671 144 673 164 q 670 137 671 142 q 669 127 669 132 q 677 152 673 140 q 686 175 681 164 q 694 200 690 187 q 703 225 697 212 q 732 308 718 270 q 758 378 746 346 q 782 432 770 410 q 804 467 794 454 q 821 478 814 477 l 828 478 m 378 158 l 378 161 l 378 158 m 608 353 l 607 353 l 608 353 m 633 50 l 636 50 l 633 50 z "},"2":{"ha":739,"x_min":-57,"x_max":803,"o":"m 802 392 q 803 389 802 392 l 803 386 q 803 380 803 383 q 802 378 803 378 l 799 378 q 798 375 799 376 q 793 370 795 375 q 789 358 791 366 q 776 328 782 347 q 760 283 770 309 q 714 158 740 233 q 708 139 711 147 q 701 119 704 131 q 692 101 696 111 q 685 78 689 90 q 677 59 682 70 q 668 36 672 49 q 659 17 663 28 q 648 -5 654 7 l 639 -25 q 631 -37 636 -32 q 624 -47 627 -43 q 619 -53 621 -50 q 614 -58 616 -56 l 611 -64 l 607 -64 q 606 -66 607 -65 l 603 -66 q 602 -72 602 -66 l 599 -72 l 597 -72 l 595 -72 l 593 -72 l 590 -72 l 586 -72 l 585 -72 l 581 -72 q 578 -69 578 -72 q 576 -66 578 -66 q 572 -65 574 -66 q 568 -64 571 -64 l 561 -50 q 560 -47 561 -47 q 557 -41 559 -46 q 556 -36 557 -39 q 555 -31 555 -33 q 553 -25 553 -31 l 553 -22 q 551 -20 551 -22 l 551 -17 q 551 -9 551 -10 q 549 -5 551 -8 l 549 0 l 549 3 l 549 33 l 549 50 q 551 68 551 58 q 553 86 551 78 q 556 118 555 103 q 559 150 557 134 q 576 275 565 212 q 583 339 579 307 q 593 403 587 371 q 600 468 595 435 q 607 533 604 501 q 612 598 610 566 q 614 667 614 631 q 612 728 614 699 q 606 778 610 757 q 600 801 603 790 q 590 819 596 811 q 566 844 582 831 l 557 844 q 556 847 557 847 q 555 848 555 847 l 555 850 l 551 850 l 543 850 l 534 850 l 526 850 l 515 850 q 512 847 514 850 q 507 844 510 844 q 498 842 503 844 l 490 842 q 487 837 489 838 q 482 833 485 836 q 473 828 477 833 q 470 827 472 828 q 465 825 468 825 q 458 818 461 821 q 449 811 454 815 q 441 804 445 808 q 432 794 437 799 q 401 762 416 779 q 372 725 386 746 q 344 683 357 705 q 319 636 332 660 q 295 592 307 615 q 269 545 282 568 q 247 501 258 524 q 224 458 236 478 q 202 415 213 435 q 180 375 192 396 q 158 337 170 355 q 136 302 147 319 q 97 233 115 262 q 87 218 92 227 q 78 203 83 210 q 71 188 75 195 q 61 170 66 180 q 30 118 44 142 q 1 75 16 94 q -20 37 -11 52 q -36 11 -29 22 q -44 1 -41 4 q -49 -5 -46 -1 l -52 -8 q -57 -8 -54 -19 l -57 0 l -57 1 q -56 4 -57 3 q -56 8 -56 5 q -47 33 -54 9 q -36 66 -42 45 q -20 117 -29 87 q 2 172 -10 142 q 28 236 14 203 q 35 255 31 247 q 43 275 40 264 l 52 292 q 55 301 53 298 q 60 311 57 304 q 97 386 73 349 q 116 429 106 410 q 136 469 125 449 q 160 510 147 489 q 184 550 172 530 q 210 590 197 571 q 239 628 224 608 q 267 663 252 645 q 297 700 282 681 q 329 733 313 715 q 359 766 345 750 q 391 801 375 786 q 424 833 407 817 q 456 867 439 853 q 493 895 473 882 q 496 897 494 895 q 501 900 498 900 q 506 901 504 900 q 511 903 509 903 q 519 908 514 908 q 530 911 524 911 q 541 917 534 916 l 551 920 l 553 920 l 555 920 l 559 920 l 572 920 q 593 914 582 920 q 615 900 604 908 q 635 869 625 888 q 644 851 639 861 q 652 833 648 842 q 657 813 654 823 q 661 791 660 804 q 666 772 664 781 q 669 753 668 764 q 674 710 672 732 q 676 669 676 689 q 677 630 677 648 q 677 591 677 611 q 676 554 676 572 q 673 517 676 536 q 669 443 672 479 q 664 370 667 406 q 656 302 661 336 q 648 236 652 268 q 641 183 644 208 q 635 134 637 158 q 644 153 637 147 q 662 188 654 172 q 681 220 671 204 q 711 274 696 249 q 739 319 726 300 q 762 358 751 343 q 781 383 772 372 q 788 389 785 386 q 794 392 791 392 l 798 392 l 799 392 l 802 392 m 589 61 l 586 61 l 589 61 m 586 61 l 585 61 l 586 61 z "},"3":{"ha":713,"x_min":21,"x_max":775,"o":"m 772 257 q 755 221 766 236 q 747 204 751 212 q 737 186 742 196 q 717 151 728 168 q 696 119 707 135 q 671 86 684 100 q 658 71 664 78 q 643 57 652 64 q 636 48 640 52 q 629 40 632 45 q 620 34 624 37 q 612 28 616 31 q 604 21 608 24 q 600 17 602 18 q 596 12 597 16 q 586 7 591 9 q 575 3 582 5 q 565 -3 570 0 q 554 -8 561 -5 q 540 -11 547 -9 q 526 -12 533 -12 q 512 -11 519 -12 q 497 -8 504 -9 q 494 -5 496 -5 q 489 -4 492 -5 q 486 -3 488 -4 q 484 -1 485 -1 q 480 1 481 0 q 476 3 479 3 l 476 4 l 475 4 l 472 4 l 472 7 l 471 8 q 467 12 468 11 q 464 16 467 12 l 458 21 q 457 24 458 24 q 454 28 456 25 q 453 31 454 29 q 452 33 452 32 q 447 46 449 40 q 443 57 446 52 q 437 79 440 69 q 435 100 435 89 q 432 121 433 111 q 431 142 431 131 l 431 183 q 433 223 431 203 q 437 262 435 243 q 441 303 439 283 q 447 342 444 322 l 452 361 l 456 379 q 459 400 458 390 q 463 419 460 410 q 471 457 467 439 q 479 496 476 476 l 488 533 l 496 574 q 504 612 500 593 q 513 650 507 631 q 515 668 514 659 q 518 688 517 677 q 522 708 521 697 q 525 728 522 718 l 529 746 l 533 765 q 536 785 534 776 q 539 804 538 794 q 542 827 542 820 q 534 828 542 833 q 515 807 525 817 q 496 787 505 798 q 454 746 473 768 q 445 737 449 742 q 435 725 440 732 l 414 704 l 396 686 l 376 665 q 358 643 367 654 q 339 621 349 632 q 301 579 319 601 q 284 558 292 568 q 267 536 277 547 q 251 513 258 524 q 233 490 243 501 q 217 468 225 479 q 201 444 210 456 q 188 420 195 432 q 172 396 180 408 l 167 383 l 160 374 q 157 368 159 371 q 154 361 155 364 q 151 355 151 358 q 147 349 150 351 q 135 324 140 336 q 125 298 129 311 q 106 249 111 271 q 92 196 99 227 q 89 183 92 188 l 89 178 l 89 175 l 87 171 l 87 158 l 85 146 l 85 142 l 85 140 l 85 138 l 85 132 l 85 119 l 85 96 q 87 85 87 89 q 89 75 87 81 q 92 64 92 68 q 96 57 93 60 q 100 53 97 53 q 102 49 100 50 q 106 45 102 45 l 113 37 q 116 37 114 37 q 121 36 118 36 q 129 33 123 33 q 139 33 135 33 q 150 35 144 33 q 163 37 155 36 q 167 39 164 37 q 172 40 170 40 l 179 41 l 180 45 l 184 45 l 192 49 l 196 50 q 202 53 199 53 q 208 54 205 53 q 215 58 211 57 q 221 61 218 58 q 231 66 224 64 l 243 74 q 249 77 245 75 q 254 79 252 78 q 277 94 267 89 q 288 103 281 96 q 294 106 290 104 q 300 109 297 107 l 310 117 l 321 125 q 332 133 328 127 q 343 140 336 138 l 346 140 l 347 140 q 347 136 351 136 q 338 124 343 130 q 329 115 334 119 q 319 104 323 110 q 310 94 315 98 q 301 86 307 89 l 296 79 l 292 75 q 281 66 286 71 q 271 57 275 61 q 265 52 268 54 q 260 49 262 50 q 255 44 257 46 q 250 40 253 41 q 237 32 243 33 q 227 24 233 26 q 220 19 224 21 q 214 16 216 17 l 208 11 l 201 8 l 200 7 l 196 4 l 189 0 q 183 -3 186 -1 q 175 -4 179 -4 q 146 -14 159 -12 q 110 -14 129 -18 l 106 -14 l 102 -12 l 100 -12 l 97 -12 l 92 -9 q 84 -6 89 -8 q 75 -1 79 -4 q 67 5 73 1 q 60 11 62 8 q 54 20 56 15 q 51 22 52 21 q 47 25 50 24 q 33 57 39 41 q 25 86 28 71 q 21 117 21 100 l 21 132 l 21 140 l 21 144 l 21 146 l 21 149 l 21 146 l 21 161 l 21 178 l 21 182 l 21 183 l 21 192 q 22 201 21 197 q 22 208 22 204 q 35 269 26 236 q 54 328 41 297 q 57 334 56 330 q 60 342 58 338 l 64 354 q 79 383 69 371 q 82 390 81 386 q 85 396 83 393 q 88 402 87 399 q 92 408 89 406 l 100 424 l 106 436 q 121 461 114 448 q 139 486 129 473 q 156 510 147 498 q 172 533 165 522 q 210 579 191 558 q 249 625 229 603 q 289 667 269 647 l 330 708 q 341 718 336 713 q 351 729 347 722 q 363 739 358 734 q 372 749 368 743 q 384 758 379 753 q 396 766 389 762 q 407 776 403 772 q 418 786 411 781 q 440 805 429 795 q 464 823 452 814 q 486 841 475 833 q 510 859 497 848 q 522 866 517 861 q 533 875 526 871 q 546 884 540 880 q 558 892 551 888 q 571 896 565 897 q 581 888 578 895 q 585 875 585 884 q 579 856 582 865 q 575 838 576 847 q 570 818 572 828 q 564 799 567 808 q 560 780 562 789 q 555 761 558 771 l 551 742 l 547 724 q 544 704 546 714 q 539 684 542 694 q 536 665 538 674 q 533 646 534 656 q 527 607 530 626 q 521 570 524 589 q 519 550 521 560 q 517 529 518 539 q 514 510 514 519 q 513 490 514 501 q 509 452 510 471 q 505 412 509 433 q 505 394 505 403 q 504 374 505 385 l 501 336 q 500 297 501 315 q 500 258 500 278 q 497 220 497 239 q 496 182 497 201 q 496 144 496 162 q 497 107 496 126 q 500 90 500 99 q 504 74 501 81 q 505 67 504 71 q 509 61 505 62 l 509 57 q 510 54 510 56 l 510 53 l 513 53 q 512 52 514 50 q 513 53 510 53 l 514 50 l 517 50 q 518 49 517 49 q 522 47 521 49 q 526 46 524 46 q 551 53 537 46 q 560 56 557 54 q 567 58 564 57 q 575 62 568 62 q 578 66 576 65 q 581 69 579 66 q 610 90 597 77 q 638 115 625 102 q 667 142 652 127 q 679 157 673 150 q 692 171 685 164 q 704 185 699 178 q 717 200 710 193 q 743 231 730 216 q 766 261 755 245 q 772 261 772 261 q 772 257 775 258 z "},"4":{"ha":686,"x_min":-53,"x_max":755,"o":"m 755 456 q 747 396 751 424 q 734 339 742 368 q 722 283 728 311 q 705 228 715 256 q 667 127 690 175 q 655 105 661 117 q 643 86 650 94 q 614 47 629 66 q 580 23 598 32 q 546 14 562 14 l 538 14 l 526 14 l 522 14 l 521 14 l 518 14 l 514 20 l 513 20 l 510 20 l 504 22 l 501 22 l 497 22 q 494 29 496 26 q 489 36 492 32 l 484 39 q 481 42 481 39 q 479 45 481 45 l 475 53 q 472 54 472 53 q 471 56 471 54 q 455 84 461 68 q 443 119 449 100 q 434 150 439 135 q 427 180 429 165 q 421 213 424 197 q 416 244 419 228 q 415 254 416 251 q 414 261 414 257 l 412 278 q 411 293 412 286 q 410 311 410 300 q 406 374 407 343 q 401 436 404 404 q 400 467 400 452 q 400 497 400 482 l 400 561 l 400 589 l 400 623 l 400 681 q 401 711 401 698 q 401 739 401 724 q 401 733 401 736 q 400 728 400 730 l 371 597 q 356 533 364 566 q 342 469 349 501 q 334 437 339 452 q 326 406 329 422 q 319 373 323 390 q 313 339 315 355 q 297 276 304 307 q 279 214 289 245 q 272 183 277 198 q 262 153 267 168 q 253 121 257 136 q 243 89 249 106 q 221 31 233 57 q 213 16 218 22 q 205 3 208 9 q 184 -22 197 -9 q 180 -28 183 -22 l 175 -28 q 167 -31 171 -31 l 163 -31 l 160 -31 l 158 -31 l 155 -31 l 154 -28 l 150 -28 l 147 -28 q 144 -25 146 -28 q 142 -22 143 -22 q 138 -21 139 -22 q 135 -20 138 -20 q 100 39 111 3 q 96 50 97 45 q 93 61 96 54 q 87 78 90 66 q 84 97 85 86 q 81 119 83 107 q 75 157 78 139 q 71 195 72 175 q 66 270 68 232 q 64 345 64 307 q 65 415 64 378 q 68 489 66 452 l 66 481 l 54 447 q 48 429 52 439 q 41 411 45 419 l 29 378 l 17 345 q 11 325 14 334 q 4 306 7 317 q -2 291 1 298 q -8 272 -5 283 q -15 255 -11 264 q -21 239 -18 245 q -33 204 -28 219 q -46 170 -39 189 l -53 170 l -53 178 q -45 217 -50 199 q -36 256 -40 236 q -31 275 -33 267 q -28 294 -29 283 q -22 314 -25 302 q -17 336 -20 325 q -13 354 -16 345 q -8 372 -11 364 l 0 411 l 9 447 q 15 466 12 458 q 18 486 17 475 l 29 528 l 39 564 l 47 603 l 58 639 l 68 677 l 79 714 l 87 753 q 93 771 90 761 q 97 789 96 781 q 115 816 104 808 q 138 811 126 823 q 149 784 144 800 q 151 753 154 768 l 151 747 l 150 730 l 147 714 l 146 681 q 142 646 143 661 q 139 611 142 631 q 136 542 138 575 q 131 472 134 509 q 129 408 130 440 q 126 339 129 375 l 126 272 l 126 205 q 129 175 129 190 q 131 147 129 160 q 134 133 134 139 q 135 119 134 126 q 136 113 135 115 q 138 106 138 110 q 139 100 139 103 q 139 94 139 97 q 142 87 142 90 q 143 81 142 85 l 146 78 l 146 75 q 147 72 146 73 q 151 66 150 69 q 154 61 151 64 l 155 56 q 160 53 158 56 l 163 53 l 164 53 l 163 53 l 164 53 l 167 53 l 167 47 l 168 47 l 171 47 l 171 52 l 172 53 q 184 61 178 53 q 191 69 187 64 q 197 78 195 74 q 209 98 204 86 q 221 122 214 110 q 241 179 232 151 q 260 236 250 207 q 293 361 278 298 q 299 392 296 376 q 309 422 302 407 q 315 454 311 439 q 321 489 318 469 q 333 552 328 521 q 346 619 339 583 q 357 685 353 652 q 367 753 361 717 q 378 820 374 786 q 387 886 382 854 q 396 954 391 920 q 406 1022 401 989 l 443 1197 q 457 1235 446 1222 q 484 1239 468 1247 q 502 1212 494 1232 q 505 1166 509 1192 l 504 1164 l 500 1105 q 498 1078 500 1093 q 497 1047 497 1063 q 486 922 489 985 q 479 794 482 860 q 478 734 479 762 q 476 677 476 705 l 475 619 l 475 561 q 473 530 475 544 q 475 503 472 515 l 475 472 l 475 444 q 479 330 475 389 q 479 317 479 323 q 481 302 479 311 l 481 289 q 482 283 481 286 q 484 278 484 281 q 486 253 485 266 q 489 228 488 240 q 497 181 492 203 q 510 147 503 160 q 516 138 513 140 q 522 131 519 135 l 525 131 l 522 131 l 525 131 l 529 127 l 530 127 l 534 127 q 536 126 534 126 q 539 122 538 125 l 546 122 q 558 123 553 122 q 571 127 564 123 q 593 136 585 127 q 605 146 600 143 q 618 161 611 150 q 629 174 623 168 q 642 189 635 180 q 662 224 652 206 q 681 264 671 243 q 699 311 690 288 q 717 355 708 335 q 726 380 721 368 q 733 406 730 393 q 741 433 737 418 q 747 461 745 449 q 754 461 750 464 l 755 456 z "},"5":{"ha":439,"x_min":28,"x_max":545,"o":"m 541 372 q 545 368 545 372 l 542 366 q 538 363 541 364 q 532 360 535 361 q 525 357 529 358 q 504 349 515 354 q 478 336 493 343 q 444 321 463 330 q 404 306 425 313 q 359 285 382 296 q 311 261 336 273 l 286 249 q 273 242 279 246 q 258 236 267 239 q 250 231 256 233 q 244 207 248 220 q 237 182 240 195 q 231 144 235 162 q 220 107 227 126 q 207 69 216 87 q 187 32 201 52 q 181 23 184 28 q 174 14 178 18 q 165 4 171 8 q 153 -5 160 0 q 144 -8 147 -7 q 136 -9 140 -9 q 117 -11 130 -11 q 100 -7 106 -11 q 96 -5 96 -7 l 92 -3 q 89 -2 90 -3 q 86 -1 87 -1 q 74 8 79 4 q 65 18 69 12 l 62 20 l 61 22 l 58 26 l 57 28 l 54 28 l 54 31 l 50 35 l 46 40 q 45 41 45 40 l 45 45 l 40 52 q 37 56 40 53 l 36 61 q 33 68 33 64 l 32 74 q 29 81 29 77 q 28 86 29 85 l 28 94 l 28 107 l 28 111 l 28 114 l 28 119 q 29 125 29 122 q 32 135 29 129 q 50 176 37 159 q 79 210 62 196 q 83 212 82 211 q 86 215 83 214 q 94 222 89 222 q 97 226 96 224 q 100 228 98 228 q 105 231 102 231 q 109 235 107 232 q 139 255 124 245 q 170 273 154 264 q 200 288 185 281 q 229 301 215 294 q 238 304 235 302 q 244 307 241 306 q 247 321 245 314 q 250 335 249 328 q 255 371 253 355 q 257 407 257 387 q 260 442 258 425 q 262 476 261 458 q 266 510 265 493 q 269 543 267 528 q 273 574 271 559 q 278 606 275 590 q 283 635 281 621 q 288 664 285 648 q 308 765 298 721 q 328 843 318 810 q 334 872 330 859 q 340 893 338 885 q 343 900 342 897 q 345 905 345 903 q 345 907 345 907 q 346 909 346 908 l 346 911 q 350 914 346 913 q 353 909 353 914 l 353 905 q 354 890 354 903 q 357 870 357 884 q 357 839 357 856 l 357 760 q 353 710 354 736 q 349 656 351 684 q 345 625 346 640 q 342 595 345 610 q 338 564 340 581 q 332 532 335 547 q 324 500 329 516 q 315 468 319 484 q 306 433 310 450 q 296 399 301 416 q 285 365 289 382 q 275 330 281 347 q 272 321 274 325 q 271 315 271 318 q 278 319 273 318 q 288 322 283 319 q 341 338 315 332 q 390 349 367 345 q 432 358 412 355 q 469 364 452 361 q 499 368 486 367 q 521 370 511 370 q 536 372 528 372 l 541 372 m 212 191 q 217 203 215 197 q 221 215 220 208 q 214 211 218 212 q 207 207 210 210 q 179 191 191 200 q 154 172 167 182 q 142 162 147 167 q 132 153 136 158 q 129 151 130 151 q 125 149 127 151 q 121 143 125 144 q 119 142 119 143 q 117 139 119 140 q 114 136 117 139 l 113 135 q 100 114 104 123 q 98 94 98 107 l 98 90 l 98 89 l 100 87 l 100 86 l 100 85 q 101 82 100 82 q 103 81 103 82 l 103 78 l 104 77 q 107 72 104 74 l 107 69 l 109 69 l 109 68 l 111 65 l 113 64 l 113 61 l 115 61 q 118 57 117 58 q 121 53 119 56 q 123 52 122 52 l 125 52 l 125 49 q 130 52 127 52 q 134 53 132 52 q 139 58 136 56 q 144 64 142 61 q 156 77 151 71 q 165 90 160 83 q 174 106 170 98 q 183 122 179 114 q 198 156 191 139 q 212 191 205 174 z "},"6":{"ha":739,"x_min":-57,"x_max":803,"o":"m 802 392 q 803 389 802 392 l 803 386 q 803 380 803 383 q 802 378 803 378 l 799 378 q 798 375 799 376 q 793 370 795 375 q 789 358 791 366 q 776 328 782 347 q 760 283 770 309 q 714 158 740 233 q 708 139 711 147 q 701 119 704 131 q 692 101 696 111 q 685 78 689 90 q 677 59 682 70 q 668 36 672 49 q 659 17 663 28 q 648 -5 654 7 l 639 -25 q 631 -37 636 -32 q 624 -47 627 -43 q 619 -53 621 -50 q 614 -58 616 -56 l 611 -64 l 607 -64 q 606 -66 607 -65 l 603 -66 q 602 -72 602 -66 l 599 -72 l 597 -72 l 595 -72 l 593 -72 l 590 -72 l 586 -72 l 585 -72 l 581 -72 q 578 -69 578 -72 q 576 -66 578 -66 q 572 -65 574 -66 q 568 -64 571 -64 l 561 -50 q 560 -47 561 -47 q 557 -41 559 -46 q 556 -36 557 -39 q 555 -31 555 -33 q 553 -25 553 -31 l 553 -22 q 551 -20 551 -22 l 551 -17 q 551 -9 551 -10 q 549 -5 551 -8 l 549 0 l 549 3 l 549 33 l 549 50 q 551 68 551 58 q 553 86 551 78 q 556 118 555 103 q 559 150 557 134 q 576 275 565 212 q 583 339 579 307 q 593 403 587 371 q 600 468 595 435 q 607 533 604 501 q 612 598 610 566 q 614 667 614 631 q 612 728 614 699 q 606 778 610 757 q 600 801 603 790 q 590 819 596 811 q 566 844 582 831 l 557 844 q 556 847 557 847 q 555 848 555 847 l 555 850 l 551 850 l 543 850 l 534 850 l 526 850 l 515 850 q 512 847 514 850 q 507 844 510 844 q 498 842 503 844 l 490 842 q 487 837 489 838 q 482 833 485 836 q 473 828 477 833 q 470 827 472 828 q 465 825 468 825 q 458 818 461 821 q 449 811 454 815 q 441 804 445 808 q 432 794 437 799 q 401 762 416 779 q 372 725 386 746 q 344 683 357 705 q 319 636 332 660 q 295 592 307 615 q 269 545 282 568 q 247 501 258 524 q 224 458 236 478 q 202 415 213 435 q 180 375 192 396 q 158 337 170 355 q 136 302 147 319 q 97 233 115 262 q 87 218 92 227 q 78 203 83 210 q 71 188 75 195 q 61 170 66 180 q 30 118 44 142 q 1 75 16 94 q -20 37 -11 52 q -36 11 -29 22 q -44 1 -41 4 q -49 -5 -46 -1 l -52 -8 q -57 -8 -54 -19 l -57 0 l -57 1 q -56 4 -57 3 q -56 8 -56 5 q -47 33 -54 9 q -36 66 -42 45 q -20 117 -29 87 q 2 172 -10 142 q 28 236 14 203 q 35 255 31 247 q 43 275 40 264 l 52 292 q 55 301 53 298 q 60 311 57 304 q 97 386 73 349 q 116 429 106 410 q 136 469 125 449 q 160 510 147 489 q 184 550 172 530 q 210 590 197 571 q 239 628 224 608 q 267 663 252 645 q 297 700 282 681 q 329 733 313 715 q 359 766 345 750 q 391 801 375 786 q 424 833 407 817 q 456 867 439 853 q 493 895 473 882 q 496 897 494 895 q 501 900 498 900 q 506 901 504 900 q 511 903 509 903 q 519 908 514 908 q 530 911 524 911 q 541 917 534 916 l 551 920 l 553 920 l 555 920 l 559 920 l 572 920 q 593 914 582 920 q 615 900 604 908 q 635 869 625 888 q 644 851 639 861 q 652 833 648 842 q 657 813 654 823 q 661 791 660 804 q 666 772 664 781 q 669 753 668 764 q 674 710 672 732 q 676 669 676 689 q 677 630 677 648 q 677 591 677 611 q 676 554 676 572 q 673 517 676 536 q 669 443 672 479 q 664 370 667 406 q 656 302 661 336 q 648 236 652 268 q 641 183 644 208 q 635 134 637 158 q 644 153 637 147 q 662 188 654 172 q 681 220 671 204 q 711 274 696 249 q 739 319 726 300 q 762 358 751 343 q 781 383 772 372 q 788 389 785 386 q 794 392 791 392 l 798 392 l 799 392 l 802 392 m 589 61 l 586 61 l 589 61 m 586 61 l 585 61 l 586 61 z "},"7":{"ha":755,"x_min":-35,"x_max":779,"o":"m 40 12 q 40 20 36 15 l 40 12 m 92 12 q 92 8 94 11 l 92 12 m 779 586 l 779 575 q 773 508 779 541 q 757 441 766 475 q 735 380 747 410 q 708 321 724 351 q 678 264 694 292 q 644 208 661 236 q 608 155 626 182 q 571 104 590 129 q 531 55 551 79 q 488 7 510 31 l 484 7 q 484 11 479 11 q 515 66 499 39 q 546 121 530 93 q 576 176 562 149 q 604 232 590 204 q 617 259 611 245 q 629 288 623 273 q 642 316 636 303 q 654 345 647 329 q 665 374 660 360 q 673 403 671 387 q 676 410 675 406 q 679 416 677 414 l 684 432 l 688 446 q 689 453 688 448 q 690 461 690 458 q 697 489 694 475 q 703 519 700 504 q 704 547 704 533 q 704 575 704 561 q 679 679 704 633 q 648 720 665 704 q 607 753 631 736 l 595 758 q 589 762 592 761 q 583 765 586 762 l 579 765 q 578 766 579 766 l 570 771 l 561 774 l 558 774 l 561 774 l 558 774 l 557 775 q 503 787 528 786 q 478 789 490 790 q 450 786 465 787 q 400 766 428 781 q 355 735 376 753 q 313 694 334 717 q 294 670 303 682 q 275 646 285 659 q 260 620 269 633 q 244 595 252 607 q 229 567 236 579 q 212 541 221 554 q 200 512 205 525 q 187 484 195 498 q 165 425 175 454 q 146 366 155 395 q 129 304 136 335 q 115 241 122 273 q 110 213 113 228 q 104 182 107 197 q 100 150 104 166 q 96 119 100 133 q 94 88 94 104 q 92 57 94 72 q 91 44 92 50 q 90 33 90 39 q 92 12 90 20 q 90 14 90 12 l 90 16 l 90 11 l 90 7 l 92 8 l 92 7 l 90 0 l 90 -1 q 87 -5 90 -4 q 87 -14 96 -12 q 64 -14 78 -16 q 41 -8 50 -12 q 40 0 32 -4 l 40 3 l 40 4 l 40 7 l 41 8 q 41 9 41 9 q 40 11 40 9 l 40 12 l 41 12 l 41 16 l 41 20 l 40 20 q 39 26 40 22 q 37 32 37 29 q 36 44 36 39 q 33 57 36 50 q 32 70 32 64 q 32 82 32 75 l 29 96 l 28 109 q 25 133 25 121 q 24 158 25 146 q 22 184 24 170 q 21 211 21 199 q 21 236 21 223 q 24 261 21 249 q 24 287 24 275 q 25 313 24 300 q 25 325 25 319 q 28 338 25 330 q 28 352 28 346 q 29 366 28 358 q 31 378 29 372 q 33 390 32 383 l 33 403 l 37 415 l 37 424 l 40 429 l 41 441 q 43 448 41 444 q 45 454 45 452 q 46 460 46 457 q 49 467 46 464 l 50 479 q 53 486 53 482 l 54 492 l 57 498 l 58 504 l 61 517 q 68 539 65 528 q 74 562 71 551 l 75 575 q 78 586 78 579 q 79 599 79 590 l 79 608 q 82 621 79 616 l 79 628 l 79 632 l 79 637 l 79 642 q 79 647 79 644 q 78 653 78 650 q 74 664 75 660 q 69 673 72 668 l 66 677 l 62 682 l 57 688 q 37 700 46 699 q 17 708 31 705 l 11 711 l 4 713 q -1 715 0 713 l -8 715 q -21 717 -15 717 q -33 720 -26 717 q -35 724 -35 720 q -33 725 -35 725 q -18 728 -29 728 l -12 728 l -5 728 q 20 728 7 729 q 33 726 26 728 q 46 724 39 725 q 60 718 53 721 q 74 711 66 714 q 94 690 85 702 q 103 679 98 685 q 111 665 109 672 q 118 637 115 650 q 121 611 121 624 q 123 596 123 604 l 123 583 q 122 576 123 579 q 121 570 121 572 l 121 557 q 117 529 119 541 q 113 504 115 517 l 107 479 l 107 473 q 104 467 104 471 l 103 454 q 101 450 103 453 q 100 444 100 447 l 98 432 l 96 419 l 96 412 l 96 407 l 94 396 l 94 383 q 92 371 92 376 q 92 358 92 366 q 90 346 90 354 l 90 334 q 89 321 90 327 q 87 309 87 315 l 87 286 l 87 261 l 87 236 l 87 224 q 90 236 90 231 q 92 249 90 241 q 107 310 100 281 q 125 371 115 339 q 161 492 142 431 q 182 554 170 522 q 192 584 186 570 q 204 612 197 599 q 219 643 212 628 q 233 671 227 657 q 251 700 241 686 q 269 728 260 713 q 279 741 273 734 q 290 754 285 747 q 301 767 297 761 q 313 779 306 772 q 340 803 323 790 q 354 812 347 807 q 370 823 361 818 q 401 838 385 830 q 436 850 416 846 q 471 857 453 855 q 509 859 489 859 q 579 844 549 856 l 583 844 l 586 842 l 587 842 l 596 840 l 603 836 l 604 836 l 607 836 l 611 833 l 619 829 l 624 828 q 628 825 628 828 l 644 817 q 659 808 652 814 l 663 807 l 667 804 l 675 799 q 681 793 677 796 q 690 787 685 790 l 696 782 l 703 775 q 728 747 716 763 q 749 717 739 732 q 774 646 767 684 q 774 642 774 644 q 775 637 775 640 l 778 629 l 778 621 l 779 611 l 779 603 l 779 595 l 779 586 m 90 7 l 90 4 l 90 7 z "},"8":{"ha":989,"x_min":32,"x_max":1022,"o":"m 1018 403 q 1021 401 1019 403 q 1019 399 1022 400 q 1013 375 1017 388 q 1007 350 1010 363 l 994 300 l 982 250 l 968 203 l 953 153 l 940 103 l 926 54 l 911 4 q 882 -12 904 -16 q 868 -2 872 -9 q 864 12 864 5 l 864 16 q 867 73 865 43 q 869 129 868 102 q 871 188 869 159 q 872 244 872 216 q 873 302 873 273 q 873 358 873 330 q 873 417 873 389 q 872 473 873 446 q 871 531 872 503 q 868 587 869 559 q 863 644 865 615 q 856 700 860 672 q 844 753 852 725 q 842 765 843 760 q 839 778 840 771 q 834 789 836 785 q 831 800 832 793 q 828 804 828 800 q 823 808 827 807 q 819 815 823 815 q 818 818 818 817 q 815 819 818 819 l 815 821 l 814 821 l 812 821 q 811 819 811 821 q 803 817 807 819 l 798 811 q 778 796 787 804 q 770 787 774 792 q 761 778 766 782 q 746 756 754 767 q 730 733 737 745 q 672 637 699 687 q 644 587 656 612 q 619 536 632 562 q 595 485 607 511 q 572 432 583 458 q 548 380 560 407 q 524 328 536 354 q 502 274 513 300 q 478 221 490 249 q 456 168 467 195 q 435 115 446 142 q 424 89 429 103 q 414 61 418 75 q 403 35 408 49 q 393 8 397 21 l 393 7 q 372 -1 387 -9 q 361 17 359 1 q 365 31 363 24 q 368 46 366 39 q 371 61 370 54 q 374 75 372 68 q 379 106 376 91 q 385 138 382 122 q 389 168 387 153 q 393 199 390 183 q 395 229 395 214 q 397 258 395 244 l 397 321 q 393 351 395 336 q 389 379 392 366 q 383 394 386 387 q 378 407 380 400 q 361 428 370 422 q 359 429 361 428 q 357 431 357 429 l 357 432 l 355 432 l 351 433 l 349 433 l 347 433 q 346 436 347 435 l 345 436 l 343 436 l 340 436 l 339 436 l 335 436 l 332 433 l 328 433 q 322 432 323 433 l 319 432 q 315 429 318 429 q 306 423 311 427 q 294 415 300 419 q 283 404 288 410 q 273 395 279 399 q 264 382 269 388 q 256 370 260 376 q 248 357 253 363 q 240 345 243 351 q 233 331 236 338 q 224 317 229 325 q 217 303 221 310 q 211 290 214 297 q 199 264 204 278 q 186 236 193 250 q 175 207 179 220 q 164 178 171 193 q 154 149 159 162 q 143 121 150 136 q 133 92 138 105 q 123 62 129 78 l 115 33 l 111 20 q 109 11 110 14 q 107 4 107 7 q 93 -15 104 -8 q 69 -18 81 -21 q 47 7 50 -12 l 47 12 l 45 17 l 45 25 q 43 33 43 28 q 40 41 43 37 q 39 57 40 50 q 39 75 39 65 q 35 108 36 91 q 32 142 35 125 l 32 208 q 35 241 35 224 q 36 275 35 258 q 41 308 39 291 q 45 340 43 325 q 51 373 47 357 q 60 407 54 389 q 77 471 66 441 q 86 502 81 486 q 98 533 92 518 q 114 566 105 551 l 119 579 q 124 588 122 585 q 127 595 126 591 q 145 624 136 610 q 164 653 154 637 q 183 681 174 667 q 203 707 192 694 q 225 731 214 719 q 249 754 237 743 q 275 777 261 766 q 301 799 289 787 l 315 807 q 319 810 318 808 q 322 812 319 811 l 328 817 q 337 821 333 819 q 343 825 340 823 l 357 833 q 372 842 363 840 l 378 846 q 386 850 382 846 q 401 856 394 852 q 415 863 408 860 q 424 866 420 865 q 432 869 428 867 l 447 875 q 454 878 450 878 q 461 882 458 879 l 478 886 q 482 884 482 886 q 481 879 482 880 l 465 871 l 460 869 q 452 865 456 865 l 439 857 q 434 854 436 854 q 431 852 432 854 l 424 848 q 411 840 417 843 q 397 832 404 836 q 390 828 393 828 l 385 823 q 370 812 374 817 l 357 804 q 345 794 349 796 l 339 787 q 332 783 336 787 l 322 774 q 299 752 310 763 q 277 729 288 741 q 256 704 267 717 q 236 679 245 692 q 220 654 229 667 q 203 628 211 642 q 189 599 196 612 q 174 571 182 586 q 161 543 167 557 q 151 515 155 529 q 142 485 146 500 q 132 454 138 469 q 118 395 124 425 q 113 363 115 379 q 107 332 110 347 q 104 300 106 316 q 102 269 103 285 q 99 238 99 254 q 98 207 98 222 q 98 153 97 179 q 102 160 101 157 q 106 170 103 164 q 118 199 111 182 q 132 226 125 212 q 147 254 139 240 q 176 309 159 283 q 194 337 186 324 q 211 363 201 350 q 230 388 220 375 q 252 412 240 401 q 264 425 258 419 q 277 436 269 431 q 290 445 283 440 q 306 453 297 450 q 309 454 306 453 l 310 454 l 314 457 q 319 458 317 457 q 323 458 321 458 l 328 458 q 330 460 330 458 q 332 461 330 461 l 336 461 l 339 461 l 340 461 l 343 461 l 345 461 q 347 458 345 458 l 351 458 q 355 457 355 458 l 361 457 l 366 454 q 370 450 368 453 l 372 450 l 374 449 q 375 447 374 448 q 378 446 376 446 q 399 416 390 433 q 410 386 406 399 q 412 370 411 378 q 415 354 414 363 q 416 337 415 345 q 418 321 418 329 q 418 258 419 289 q 418 227 418 243 q 415 196 418 211 q 414 182 415 186 q 424 210 418 195 q 435 237 429 224 q 453 293 444 265 q 472 349 463 321 q 493 402 483 375 q 514 457 503 429 q 537 511 525 484 q 559 566 549 538 q 585 618 572 592 q 610 669 597 644 q 638 722 623 696 q 668 774 653 749 q 684 799 675 786 q 703 823 693 811 q 714 836 708 830 q 724 848 720 842 q 736 861 730 855 q 749 871 742 867 q 758 876 754 873 q 765 882 761 879 q 775 887 770 884 q 785 892 779 890 q 797 895 791 895 q 810 899 803 896 l 814 899 l 815 899 l 818 899 l 819 899 l 822 896 l 831 896 q 834 895 832 896 q 839 895 836 895 q 851 888 846 892 q 861 882 857 885 q 871 874 867 879 q 878 865 875 869 q 885 858 883 863 q 890 848 888 852 q 895 842 895 844 q 899 833 899 835 q 911 803 908 820 q 920 771 918 785 q 927 741 925 755 q 932 711 929 726 q 939 652 937 681 q 943 591 940 623 q 945 532 945 562 q 945 475 945 503 q 944 416 945 446 q 943 358 943 386 q 939 300 941 329 q 935 241 937 272 q 933 218 935 229 q 932 195 932 207 l 939 211 l 957 258 l 977 307 l 994 354 q 1004 377 1000 365 q 1014 403 1008 390 q 1018 403 1014 403 z "},"9":{"ha":739,"x_min":-57,"x_max":803,"o":"m 802 392 q 803 389 802 392 l 803 386 q 803 380 803 383 q 802 378 803 378 l 799 378 q 798 375 799 376 q 793 370 795 375 q 789 358 791 366 q 776 328 782 347 q 760 283 770 309 q 714 158 740 233 q 708 139 711 147 q 701 119 704 131 q 692 101 696 111 q 685 78 689 90 q 677 59 682 70 q 668 36 672 49 q 659 17 663 28 q 648 -5 654 7 l 639 -25 q 631 -37 636 -32 q 624 -47 627 -43 q 619 -53 621 -50 q 614 -58 616 -56 l 611 -64 l 607 -64 q 606 -66 607 -65 l 603 -66 q 602 -72 602 -66 l 599 -72 l 597 -72 l 595 -72 l 593 -72 l 590 -72 l 586 -72 l 585 -72 l 581 -72 q 578 -69 578 -72 q 576 -66 578 -66 q 572 -65 574 -66 q 568 -64 571 -64 l 561 -50 q 560 -47 561 -47 q 557 -41 559 -46 q 556 -36 557 -39 q 555 -31 555 -33 q 553 -25 553 -31 l 553 -22 q 551 -20 551 -22 l 551 -17 q 551 -9 551 -10 q 549 -5 551 -8 l 549 0 l 549 3 l 549 33 l 549 50 q 551 68 551 58 q 553 86 551 78 q 556 118 555 103 q 559 150 557 134 q 576 275 565 212 q 583 339 579 307 q 593 403 587 371 q 600 468 595 435 q 607 533 604 501 q 612 598 610 566 q 614 667 614 631 q 612 728 614 699 q 606 778 610 757 q 600 801 603 790 q 590 819 596 811 q 566 844 582 831 l 557 844 q 556 847 557 847 q 555 848 555 847 l 555 850 l 551 850 l 543 850 l 534 850 l 526 850 l 515 850 q 512 847 514 850 q 507 844 510 844 q 498 842 503 844 l 490 842 q 487 837 489 838 q 482 833 485 836 q 473 828 477 833 q 470 827 472 828 q 465 825 468 825 q 458 818 461 821 q 449 811 454 815 q 441 804 445 808 q 432 794 437 799 q 401 762 416 779 q 372 725 386 746 q 344 683 357 705 q 319 636 332 660 q 295 592 307 615 q 269 545 282 568 q 247 501 258 524 q 224 458 236 478 q 202 415 213 435 q 180 375 192 396 q 158 337 170 355 q 136 302 147 319 q 97 233 115 262 q 87 218 92 227 q 78 203 83 210 q 71 188 75 195 q 61 170 66 180 q 30 118 44 142 q 1 75 16 94 q -20 37 -11 52 q -36 11 -29 22 q -44 1 -41 4 q -49 -5 -46 -1 l -52 -8 q -57 -8 -54 -19 l -57 0 l -57 1 q -56 4 -57 3 q -56 8 -56 5 q -47 33 -54 9 q -36 66 -42 45 q -20 117 -29 87 q 2 172 -10 142 q 28 236 14 203 q 35 255 31 247 q 43 275 40 264 l 52 292 q 55 301 53 298 q 60 311 57 304 q 97 386 73 349 q 116 429 106 410 q 136 469 125 449 q 160 510 147 489 q 184 550 172 530 q 210 590 197 571 q 239 628 224 608 q 267 663 252 645 q 297 700 282 681 q 329 733 313 715 q 359 766 345 750 q 391 801 375 786 q 424 833 407 817 q 456 867 439 853 q 493 895 473 882 q 496 897 494 895 q 501 900 498 900 q 506 901 504 900 q 511 903 509 903 q 519 908 514 908 q 530 911 524 911 q 541 917 534 916 l 551 920 l 553 920 l 555 920 l 559 920 l 572 920 q 593 914 582 920 q 615 900 604 908 q 635 869 625 888 q 644 851 639 861 q 652 833 648 842 q 657 813 654 823 q 661 791 660 804 q 666 772 664 781 q 669 753 668 764 q 674 710 672 732 q 676 669 676 689 q 677 630 677 648 q 677 591 677 611 q 676 554 676 572 q 673 517 676 536 q 669 443 672 479 q 664 370 667 406 q 656 302 661 336 q 648 236 652 268 q 641 183 644 208 q 635 134 637 158 q 644 153 637 147 q 662 188 654 172 q 681 220 671 204 q 711 274 696 249 q 739 319 726 300 q 762 358 751 343 q 781 383 772 372 q 788 389 785 386 q 794 392 791 392 l 798 392 l 799 392 l 802 392 m 589 61 l 586 61 l 589 61 m 586 61 l 585 61 l 586 61 z "},"\u0000":{"ha":1389,"x_min":0,"x_max":0,"o":""},"\r":{"ha":1389,"x_min":0,"x_max":0,"o":""}," ":{"ha":491,"x_min":0,"x_max":0,"o":""},"!":{"ha":785,"x_min":-35,"x_max":832,"o":"m 828 478 q 832 469 832 478 q 831 467 832 468 l 829 467 l 828 467 l 828 461 l 823 461 q 812 444 818 456 q 799 405 806 429 q 782 345 791 380 q 763 270 774 311 q 742 178 753 228 q 735 152 739 165 q 729 125 732 138 l 715 69 q 708 42 713 57 q 699 11 703 28 q 693 -3 696 4 q 688 -17 690 -9 q 687 -21 688 -20 q 686 -24 686 -22 l 686 -25 l 682 -33 l 677 -41 l 675 -47 q 671 -50 673 -50 l 669 -56 q 665 -58 669 -58 l 665 -64 l 663 -64 l 661 -66 l 659 -66 l 654 -72 l 653 -72 q 648 -75 650 -75 l 646 -75 l 644 -75 l 642 -75 l 640 -75 l 632 -75 l 628 -75 q 624 -72 625 -73 q 619 -67 621 -68 q 615 -64 616 -66 l 611 -56 q 608 -53 608 -56 l 608 -50 q 605 -44 606 -47 q 603 -39 604 -41 l 603 -33 l 600 -31 l 600 -25 l 599 -22 l 599 -14 l 596 -8 l 596 -5 l 596 3 q 595 15 595 9 q 595 28 595 21 l 595 53 q 595 75 595 64 q 596 94 595 86 q 597 132 596 114 q 600 170 599 150 q 604 241 604 207 q 607 259 607 250 q 607 278 607 269 l 607 311 l 607 342 q 606 345 607 343 q 606 349 606 346 q 604 353 604 351 l 603 353 l 600 353 l 591 353 q 578 345 586 353 q 545 317 564 335 q 529 297 536 306 q 511 275 521 288 q 494 252 503 264 q 478 228 485 240 q 460 200 469 212 q 441 175 452 187 q 433 162 437 168 q 424 150 428 157 q 414 135 418 143 q 403 119 410 126 q 397 114 400 117 q 392 109 395 111 q 386 101 389 104 q 378 94 382 98 l 374 94 q 370 92 371 92 l 367 92 l 366 92 l 363 92 l 361 92 q 360 90 361 90 q 359 87 359 89 l 359 86 q 358 86 358 85 q 355 86 357 85 q 354 92 354 86 l 350 92 q 346 94 346 92 q 340 100 342 94 q 338 101 338 100 q 336 103 338 103 l 332 111 q 330 116 332 115 q 329 119 329 117 q 328 124 329 123 q 328 127 328 125 q 325 136 328 136 l 325 144 l 325 150 l 325 153 l 325 161 q 328 178 325 175 q 328 184 328 182 q 329 195 328 187 q 330 207 329 201 q 334 216 332 212 q 338 239 336 229 q 342 261 340 249 q 351 304 347 285 q 363 345 355 323 q 372 383 368 364 q 382 425 376 401 q 387 444 385 433 q 392 467 389 454 q 397 485 395 475 q 400 503 399 494 q 428 669 417 589 q 431 713 431 693 q 432 753 432 733 q 432 772 432 764 q 429 791 432 781 q 428 809 429 800 q 424 825 427 818 q 418 835 421 832 q 411 842 415 838 q 396 844 407 844 l 395 844 l 392 844 l 387 844 l 382 842 l 378 842 q 367 836 371 842 q 363 835 366 836 q 358 833 361 833 q 292 761 322 810 q 262 718 276 741 q 236 669 249 694 q 209 620 220 644 q 186 567 197 595 q 174 542 179 555 q 163 517 170 529 q 158 504 160 510 q 153 492 155 498 q 147 479 150 485 q 142 467 144 473 q 103 366 122 412 q 69 275 85 319 q 41 189 54 227 q 17 119 28 151 q -2 62 6 87 q -17 20 -9 37 q -29 -17 -24 -1 q -32 -22 -29 -17 q -33 -22 -33 -24 q -35 -14 -35 -17 l -35 -9 q -33 0 -35 -4 q -32 11 -33 3 q -29 28 -31 20 q -22 79 -26 52 q -9 144 -17 107 q 7 225 -3 182 q 29 319 17 269 q 58 425 41 370 q 94 536 74 479 q 114 593 104 566 q 138 650 125 621 q 164 707 150 677 q 195 761 179 736 q 228 811 208 786 q 265 852 246 836 q 307 886 283 873 q 329 898 318 893 q 350 903 339 903 q 363 908 354 908 l 370 908 l 375 908 l 379 908 l 386 908 l 392 908 l 395 908 l 399 908 q 411 901 406 904 q 424 892 416 899 q 430 883 427 888 q 436 875 433 878 q 439 863 437 868 q 444 850 441 857 q 450 825 447 838 q 453 800 453 812 q 454 777 454 789 q 454 753 454 765 q 452 706 454 728 q 449 661 450 685 q 438 573 444 616 q 425 486 432 530 q 422 467 424 478 q 419 444 421 456 q 414 422 416 432 q 411 400 412 412 q 405 357 408 376 q 399 317 401 338 q 393 279 396 297 q 387 244 390 261 q 395 257 390 251 q 403 269 400 262 q 437 330 420 301 q 471 386 454 358 q 489 414 480 398 q 509 441 498 429 q 531 463 519 454 q 553 484 542 472 q 566 493 559 490 q 579 500 572 496 q 585 501 582 500 q 591 503 589 503 l 600 503 l 603 503 l 604 503 l 607 503 l 608 503 l 611 503 l 612 503 l 615 503 l 616 503 l 621 503 q 624 501 623 503 q 625 500 624 500 q 636 493 631 496 q 646 484 642 490 q 655 470 651 477 q 663 453 660 464 q 668 438 665 445 q 673 419 671 431 q 677 389 676 404 q 682 358 679 374 q 683 333 682 346 q 682 309 684 321 q 681 264 682 285 q 677 225 679 244 q 674 183 675 201 q 671 144 673 164 q 670 137 671 142 q 669 127 669 132 q 677 152 673 140 q 686 175 681 164 q 694 200 690 187 q 703 225 697 212 q 732 308 718 270 q 758 378 746 346 q 782 432 770 410 q 804 467 794 454 q 821 478 814 477 l 828 478 m 378 158 l 378 161 l 378 158 m 608 353 l 607 353 l 608 353 m 633 50 l 636 50 l 633 50 z "},"\"":{"ha":739,"x_min":-57,"x_max":803,"o":"m 802 392 q 803 389 802 392 l 803 386 q 803 380 803 383 q 802 378 803 378 l 799 378 q 798 375 799 376 q 793 370 795 375 q 789 358 791 366 q 776 328 782 347 q 760 283 770 309 q 714 158 740 233 q 708 139 711 147 q 701 119 704 131 q 692 101 696 111 q 685 78 689 90 q 677 59 682 70 q 668 36 672 49 q 659 17 663 28 q 648 -5 654 7 l 639 -25 q 631 -37 636 -32 q 624 -47 627 -43 q 619 -53 621 -50 q 614 -58 616 -56 l 611 -64 l 607 -64 q 606 -66 607 -65 l 603 -66 q 602 -72 602 -66 l 599 -72 l 597 -72 l 595 -72 l 593 -72 l 590 -72 l 586 -72 l 585 -72 l 581 -72 q 578 -69 578 -72 q 576 -66 578 -66 q 572 -65 574 -66 q 568 -64 571 -64 l 561 -50 q 560 -47 561 -47 q 557 -41 559 -46 q 556 -36 557 -39 q 555 -31 555 -33 q 553 -25 553 -31 l 553 -22 q 551 -20 551 -22 l 551 -17 q 551 -9 551 -10 q 549 -5 551 -8 l 549 0 l 549 3 l 549 33 l 549 50 q 551 68 551 58 q 553 86 551 78 q 556 118 555 103 q 559 150 557 134 q 576 275 565 212 q 583 339 579 307 q 593 403 587 371 q 600 468 595 435 q 607 533 604 501 q 612 598 610 566 q 614 667 614 631 q 612 728 614 699 q 606 778 610 757 q 600 801 603 790 q 590 819 596 811 q 566 844 582 831 l 557 844 q 556 847 557 847 q 555 848 555 847 l 555 850 l 551 850 l 543 850 l 534 850 l 526 850 l 515 850 q 512 847 514 850 q 507 844 510 844 q 498 842 503 844 l 490 842 q 487 837 489 838 q 482 833 485 836 q 473 828 477 833 q 470 827 472 828 q 465 825 468 825 q 458 818 461 821 q 449 811 454 815 q 441 804 445 808 q 432 794 437 799 q 401 762 416 779 q 372 725 386 746 q 344 683 357 705 q 319 636 332 660 q 295 592 307 615 q 269 545 282 568 q 247 501 258 524 q 224 458 236 478 q 202 415 213 435 q 180 375 192 396 q 158 337 170 355 q 136 302 147 319 q 97 233 115 262 q 87 218 92 227 q 78 203 83 210 q 71 188 75 195 q 61 170 66 180 q 30 118 44 142 q 1 75 16 94 q -20 37 -11 52 q -36 11 -29 22 q -44 1 -41 4 q -49 -5 -46 -1 l -52 -8 q -57 -8 -54 -19 l -57 0 l -57 1 q -56 4 -57 3 q -56 8 -56 5 q -47 33 -54 9 q -36 66 -42 45 q -20 117 -29 87 q 2 172 -10 142 q 28 236 14 203 q 35 255 31 247 q 43 275 40 264 l 52 292 q 55 301 53 298 q 60 311 57 304 q 97 386 73 349 q 116 429 106 410 q 136 469 125 449 q 160 510 147 489 q 184 550 172 530 q 210 590 197 571 q 239 628 224 608 q 267 663 252 645 q 297 700 282 681 q 329 733 313 715 q 359 766 345 750 q 391 801 375 786 q 424 833 407 817 q 456 867 439 853 q 493 895 473 882 q 496 897 494 895 q 501 900 498 900 q 506 901 504 900 q 511 903 509 903 q 519 908 514 908 q 530 911 524 911 q 541 917 534 916 l 551 920 l 553 920 l 555 920 l 559 920 l 572 920 q 593 914 582 920 q 615 900 604 908 q 635 869 625 888 q 644 851 639 861 q 652 833 648 842 q 657 813 654 823 q 661 791 660 804 q 666 772 664 781 q 669 753 668 764 q 674 710 672 732 q 676 669 676 689 q 677 630 677 648 q 677 591 677 611 q 676 554 676 572 q 673 517 676 536 q 669 443 672 479 q 664 370 667 406 q 656 302 661 336 q 648 236 652 268 q 641 183 644 208 q 635 134 637 158 q 644 153 637 147 q 662 188 654 172 q 681 220 671 204 q 711 274 696 249 q 739 319 726 300 q 762 358 751 343 q 781 383 772 372 q 788 389 785 386 q 794 392 791 392 l 798 392 l 799 392 l 802 392 m 589 61 l 586 61 l 589 61 m 586 61 l 585 61 l 586 61 z "},"#":{"ha":713,"x_min":21,"x_max":775,"o":"m 772 257 q 755 221 766 236 q 747 204 751 212 q 737 186 742 196 q 717 151 728 168 q 696 119 707 135 q 671 86 684 100 q 658 71 664 78 q 643 57 652 64 q 636 48 640 52 q 629 40 632 45 q 620 34 624 37 q 612 28 616 31 q 604 21 608 24 q 600 17 602 18 q 596 12 597 16 q 586 7 591 9 q 575 3 582 5 q 565 -3 570 0 q 554 -8 561 -5 q 540 -11 547 -9 q 526 -12 533 -12 q 512 -11 519 -12 q 497 -8 504 -9 q 494 -5 496 -5 q 489 -4 492 -5 q 486 -3 488 -4 q 484 -1 485 -1 q 480 1 481 0 q 476 3 479 3 l 476 4 l 475 4 l 472 4 l 472 7 l 471 8 q 467 12 468 11 q 464 16 467 12 l 458 21 q 457 24 458 24 q 454 28 456 25 q 453 31 454 29 q 452 33 452 32 q 447 46 449 40 q 443 57 446 52 q 437 79 440 69 q 435 100 435 89 q 432 121 433 111 q 431 142 431 131 l 431 183 q 433 223 431 203 q 437 262 435 243 q 441 303 439 283 q 447 342 444 322 l 452 361 l 456 379 q 459 400 458 390 q 463 419 460 410 q 471 457 467 439 q 479 496 476 476 l 488 533 l 496 574 q 504 612 500 593 q 513 650 507 631 q 515 668 514 659 q 518 688 517 677 q 522 708 521 697 q 525 728 522 718 l 529 746 l 533 765 q 536 785 534 776 q 539 804 538 794 q 542 827 542 820 q 534 828 542 833 q 515 807 525 817 q 496 787 505 798 q 454 746 473 768 q 445 737 449 742 q 435 725 440 732 l 414 704 l 396 686 l 376 665 q 358 643 367 654 q 339 621 349 632 q 301 579 319 601 q 284 558 292 568 q 267 536 277 547 q 251 513 258 524 q 233 490 243 501 q 217 468 225 479 q 201 444 210 456 q 188 420 195 432 q 172 396 180 408 l 167 383 l 160 374 q 157 368 159 371 q 154 361 155 364 q 151 355 151 358 q 147 349 150 351 q 135 324 140 336 q 125 298 129 311 q 106 249 111 271 q 92 196 99 227 q 89 183 92 188 l 89 178 l 89 175 l 87 171 l 87 158 l 85 146 l 85 142 l 85 140 l 85 138 l 85 132 l 85 119 l 85 96 q 87 85 87 89 q 89 75 87 81 q 92 64 92 68 q 96 57 93 60 q 100 53 97 53 q 102 49 100 50 q 106 45 102 45 l 113 37 q 116 37 114 37 q 121 36 118 36 q 129 33 123 33 q 139 33 135 33 q 150 35 144 33 q 163 37 155 36 q 167 39 164 37 q 172 40 170 40 l 179 41 l 180 45 l 184 45 l 192 49 l 196 50 q 202 53 199 53 q 208 54 205 53 q 215 58 211 57 q 221 61 218 58 q 231 66 224 64 l 243 74 q 249 77 245 75 q 254 79 252 78 q 277 94 267 89 q 288 103 281 96 q 294 106 290 104 q 300 109 297 107 l 310 117 l 321 125 q 332 133 328 127 q 343 140 336 138 l 346 140 l 347 140 q 347 136 351 136 q 338 124 343 130 q 329 115 334 119 q 319 104 323 110 q 310 94 315 98 q 301 86 307 89 l 296 79 l 292 75 q 281 66 286 71 q 271 57 275 61 q 265 52 268 54 q 260 49 262 50 q 255 44 257 46 q 250 40 253 41 q 237 32 243 33 q 227 24 233 26 q 220 19 224 21 q 214 16 216 17 l 208 11 l 201 8 l 200 7 l 196 4 l 189 0 q 183 -3 186 -1 q 175 -4 179 -4 q 146 -14 159 -12 q 110 -14 129 -18 l 106 -14 l 102 -12 l 100 -12 l 97 -12 l 92 -9 q 84 -6 89 -8 q 75 -1 79 -4 q 67 5 73 1 q 60 11 62 8 q 54 20 56 15 q 51 22 52 21 q 47 25 50 24 q 33 57 39 41 q 25 86 28 71 q 21 117 21 100 l 21 132 l 21 140 l 21 144 l 21 146 l 21 149 l 21 146 l 21 161 l 21 178 l 21 182 l 21 183 l 21 192 q 22 201 21 197 q 22 208 22 204 q 35 269 26 236 q 54 328 41 297 q 57 334 56 330 q 60 342 58 338 l 64 354 q 79 383 69 371 q 82 390 81 386 q 85 396 83 393 q 88 402 87 399 q 92 408 89 406 l 100 424 l 106 436 q 121 461 114 448 q 139 486 129 473 q 156 510 147 498 q 172 533 165 522 q 210 579 191 558 q 249 625 229 603 q 289 667 269 647 l 330 708 q 341 718 336 713 q 351 729 347 722 q 363 739 358 734 q 372 749 368 743 q 384 758 379 753 q 396 766 389 762 q 407 776 403 772 q 418 786 411 781 q 440 805 429 795 q 464 823 452 814 q 486 841 475 833 q 510 859 497 848 q 522 866 517 861 q 533 875 526 871 q 546 884 540 880 q 558 892 551 888 q 571 896 565 897 q 581 888 578 895 q 585 875 585 884 q 579 856 582 865 q 575 838 576 847 q 570 818 572 828 q 564 799 567 808 q 560 780 562 789 q 555 761 558 771 l 551 742 l 547 724 q 544 704 546 714 q 539 684 542 694 q 536 665 538 674 q 533 646 534 656 q 527 607 530 626 q 521 570 524 589 q 519 550 521 560 q 517 529 518 539 q 514 510 514 519 q 513 490 514 501 q 509 452 510 471 q 505 412 509 433 q 505 394 505 403 q 504 374 505 385 l 501 336 q 500 297 501 315 q 500 258 500 278 q 497 220 497 239 q 496 182 497 201 q 496 144 496 162 q 497 107 496 126 q 500 90 500 99 q 504 74 501 81 q 505 67 504 71 q 509 61 505 62 l 509 57 q 510 54 510 56 l 510 53 l 513 53 q 512 52 514 50 q 513 53 510 53 l 514 50 l 517 50 q 518 49 517 49 q 522 47 521 49 q 526 46 524 46 q 551 53 537 46 q 560 56 557 54 q 567 58 564 57 q 575 62 568 62 q 578 66 576 65 q 581 69 579 66 q 610 90 597 77 q 638 115 625 102 q 667 142 652 127 q 679 157 673 150 q 692 171 685 164 q 704 185 699 178 q 717 200 710 193 q 743 231 730 216 q 766 261 755 245 q 772 261 772 261 q 772 257 775 258 z "},"$":{"ha":686,"x_min":-53,"x_max":755,"o":"m 755 456 q 747 396 751 424 q 734 339 742 368 q 722 283 728 311 q 705 228 715 256 q 667 127 690 175 q 655 105 661 117 q 643 86 650 94 q 614 47 629 66 q 580 23 598 32 q 546 14 562 14 l 538 14 l 526 14 l 522 14 l 521 14 l 518 14 l 514 20 l 513 20 l 510 20 l 504 22 l 501 22 l 497 22 q 494 29 496 26 q 489 36 492 32 l 484 39 q 481 42 481 39 q 479 45 481 45 l 475 53 q 472 54 472 53 q 471 56 471 54 q 455 84 461 68 q 443 119 449 100 q 434 150 439 135 q 427 180 429 165 q 421 213 424 197 q 416 244 419 228 q 415 254 416 251 q 414 261 414 257 l 412 278 q 411 293 412 286 q 410 311 410 300 q 406 374 407 343 q 401 436 404 404 q 400 467 400 452 q 400 497 400 482 l 400 561 l 400 589 l 400 623 l 400 681 q 401 711 401 698 q 401 739 401 724 q 401 733 401 736 q 400 728 400 730 l 371 597 q 356 533 364 566 q 342 469 349 501 q 334 437 339 452 q 326 406 329 422 q 319 373 323 390 q 313 339 315 355 q 297 276 304 307 q 279 214 289 245 q 272 183 277 198 q 262 153 267 168 q 253 121 257 136 q 243 89 249 106 q 221 31 233 57 q 213 16 218 22 q 205 3 208 9 q 184 -22 197 -9 q 180 -28 183 -22 l 175 -28 q 167 -31 171 -31 l 163 -31 l 160 -31 l 158 -31 l 155 -31 l 154 -28 l 150 -28 l 147 -28 q 144 -25 146 -28 q 142 -22 143 -22 q 138 -21 139 -22 q 135 -20 138 -20 q 100 39 111 3 q 96 50 97 45 q 93 61 96 54 q 87 78 90 66 q 84 97 85 86 q 81 119 83 107 q 75 157 78 139 q 71 195 72 175 q 66 270 68 232 q 64 345 64 307 q 65 415 64 378 q 68 489 66 452 l 66 481 l 54 447 q 48 429 52 439 q 41 411 45 419 l 29 378 l 17 345 q 11 325 14 334 q 4 306 7 317 q -2 291 1 298 q -8 272 -5 283 q -15 255 -11 264 q -21 239 -18 245 q -33 204 -28 219 q -46 170 -39 189 l -53 170 l -53 178 q -45 217 -50 199 q -36 256 -40 236 q -31 275 -33 267 q -28 294 -29 283 q -22 314 -25 302 q -17 336 -20 325 q -13 354 -16 345 q -8 372 -11 364 l 0 411 l 9 447 q 15 466 12 458 q 18 486 17 475 l 29 528 l 39 564 l 47 603 l 58 639 l 68 677 l 79 714 l 87 753 q 93 771 90 761 q 97 789 96 781 q 115 816 104 808 q 138 811 126 823 q 149 784 144 800 q 151 753 154 768 l 151 747 l 150 730 l 147 714 l 146 681 q 142 646 143 661 q 139 611 142 631 q 136 542 138 575 q 131 472 134 509 q 129 408 130 440 q 126 339 129 375 l 126 272 l 126 205 q 129 175 129 190 q 131 147 129 160 q 134 133 134 139 q 135 119 134 126 q 136 113 135 115 q 138 106 138 110 q 139 100 139 103 q 139 94 139 97 q 142 87 142 90 q 143 81 142 85 l 146 78 l 146 75 q 147 72 146 73 q 151 66 150 69 q 154 61 151 64 l 155 56 q 160 53 158 56 l 163 53 l 164 53 l 163 53 l 164 53 l 167 53 l 167 47 l 168 47 l 171 47 l 171 52 l 172 53 q 184 61 178 53 q 191 69 187 64 q 197 78 195 74 q 209 98 204 86 q 221 122 214 110 q 241 179 232 151 q 260 236 250 207 q 293 361 278 298 q 299 392 296 376 q 309 422 302 407 q 315 454 311 439 q 321 489 318 469 q 333 552 328 521 q 346 619 339 583 q 357 685 353 652 q 367 753 361 717 q 378 820 374 786 q 387 886 382 854 q 396 954 391 920 q 406 1022 401 989 l 443 1197 q 457 1235 446 1222 q 484 1239 468 1247 q 502 1212 494 1232 q 505 1166 509 1192 l 504 1164 l 500 1105 q 498 1078 500 1093 q 497 1047 497 1063 q 486 922 489 985 q 479 794 482 860 q 478 734 479 762 q 476 677 476 705 l 475 619 l 475 561 q 473 530 475 544 q 475 503 472 515 l 475 472 l 475 444 q 479 330 475 389 q 479 317 479 323 q 481 302 479 311 l 481 289 q 482 283 481 286 q 484 278 484 281 q 486 253 485 266 q 489 228 488 240 q 497 181 492 203 q 510 147 503 160 q 516 138 513 140 q 522 131 519 135 l 525 131 l 522 131 l 525 131 l 529 127 l 530 127 l 534 127 q 536 126 534 126 q 539 122 538 125 l 546 122 q 558 123 553 122 q 571 127 564 123 q 593 136 585 127 q 605 146 600 143 q 618 161 611 150 q 629 174 623 168 q 642 189 635 180 q 662 224 652 206 q 681 264 671 243 q 699 311 690 288 q 717 355 708 335 q 726 380 721 368 q 733 406 730 393 q 741 433 737 418 q 747 461 745 449 q 754 461 750 464 l 755 456 z "},"%":{"ha":439,"x_min":28,"x_max":545,"o":"m 541 372 q 545 368 545 372 l 542 366 q 538 363 541 364 q 532 360 535 361 q 525 357 529 358 q 504 349 515 354 q 478 336 493 343 q 444 321 463 330 q 404 306 425 313 q 359 285 382 296 q 311 261 336 273 l 286 249 q 273 242 279 246 q 258 236 267 239 q 250 231 256 233 q 244 207 248 220 q 237 182 240 195 q 231 144 235 162 q 220 107 227 126 q 207 69 216 87 q 187 32 201 52 q 181 23 184 28 q 174 14 178 18 q 165 4 171 8 q 153 -5 160 0 q 144 -8 147 -7 q 136 -9 140 -9 q 117 -11 130 -11 q 100 -7 106 -11 q 96 -5 96 -7 l 92 -3 q 89 -2 90 -3 q 86 -1 87 -1 q 74 8 79 4 q 65 18 69 12 l 62 20 l 61 22 l 58 26 l 57 28 l 54 28 l 54 31 l 50 35 l 46 40 q 45 41 45 40 l 45 45 l 40 52 q 37 56 40 53 l 36 61 q 33 68 33 64 l 32 74 q 29 81 29 77 q 28 86 29 85 l 28 94 l 28 107 l 28 111 l 28 114 l 28 119 q 29 125 29 122 q 32 135 29 129 q 50 176 37 159 q 79 210 62 196 q 83 212 82 211 q 86 215 83 214 q 94 222 89 222 q 97 226 96 224 q 100 228 98 228 q 105 231 102 231 q 109 235 107 232 q 139 255 124 245 q 170 273 154 264 q 200 288 185 281 q 229 301 215 294 q 238 304 235 302 q 244 307 241 306 q 247 321 245 314 q 250 335 249 328 q 255 371 253 355 q 257 407 257 387 q 260 442 258 425 q 262 476 261 458 q 266 510 265 493 q 269 543 267 528 q 273 574 271 559 q 278 606 275 590 q 283 635 281 621 q 288 664 285 648 q 308 765 298 721 q 328 843 318 810 q 334 872 330 859 q 340 893 338 885 q 343 900 342 897 q 345 905 345 903 q 345 907 345 907 q 346 909 346 908 l 346 911 q 350 914 346 913 q 353 909 353 914 l 353 905 q 354 890 354 903 q 357 870 357 884 q 357 839 357 856 l 357 760 q 353 710 354 736 q 349 656 351 684 q 345 625 346 640 q 342 595 345 610 q 338 564 340 581 q 332 532 335 547 q 324 500 329 516 q 315 468 319 484 q 306 433 310 450 q 296 399 301 416 q 285 365 289 382 q 275 330 281 347 q 272 321 274 325 q 271 315 271 318 q 278 319 273 318 q 288 322 283 319 q 341 338 315 332 q 390 349 367 345 q 432 358 412 355 q 469 364 452 361 q 499 368 486 367 q 521 370 511 370 q 536 372 528 372 l 541 372 m 212 191 q 217 203 215 197 q 221 215 220 208 q 214 211 218 212 q 207 207 210 210 q 179 191 191 200 q 154 172 167 182 q 142 162 147 167 q 132 153 136 158 q 129 151 130 151 q 125 149 127 151 q 121 143 125 144 q 119 142 119 143 q 117 139 119 140 q 114 136 117 139 l 113 135 q 100 114 104 123 q 98 94 98 107 l 98 90 l 98 89 l 100 87 l 100 86 l 100 85 q 101 82 100 82 q 103 81 103 82 l 103 78 l 104 77 q 107 72 104 74 l 107 69 l 109 69 l 109 68 l 111 65 l 113 64 l 113 61 l 115 61 q 118 57 117 58 q 121 53 119 56 q 123 52 122 52 l 125 52 l 125 49 q 130 52 127 52 q 134 53 132 52 q 139 58 136 56 q 144 64 142 61 q 156 77 151 71 q 165 90 160 83 q 174 106 170 98 q 183 122 179 114 q 198 156 191 139 q 212 191 205 174 z "},"&":{"ha":739,"x_min":-57,"x_max":803,"o":"m 802 392 q 803 389 802 392 l 803 386 q 803 380 803 383 q 802 378 803 378 l 799 378 q 798 375 799 376 q 793 370 795 375 q 789 358 791 366 q 776 328 782 347 q 760 283 770 309 q 714 158 740 233 q 708 139 711 147 q 701 119 704 131 q 692 101 696 111 q 685 78 689 90 q 677 59 682 70 q 668 36 672 49 q 659 17 663 28 q 648 -5 654 7 l 639 -25 q 631 -37 636 -32 q 624 -47 627 -43 q 619 -53 621 -50 q 614 -58 616 -56 l 611 -64 l 607 -64 q 606 -66 607 -65 l 603 -66 q 602 -72 602 -66 l 599 -72 l 597 -72 l 595 -72 l 593 -72 l 590 -72 l 586 -72 l 585 -72 l 581 -72 q 578 -69 578 -72 q 576 -66 578 -66 q 572 -65 574 -66 q 568 -64 571 -64 l 561 -50 q 560 -47 561 -47 q 557 -41 559 -46 q 556 -36 557 -39 q 555 -31 555 -33 q 553 -25 553 -31 l 553 -22 q 551 -20 551 -22 l 551 -17 q 551 -9 551 -10 q 549 -5 551 -8 l 549 0 l 549 3 l 549 33 l 549 50 q 551 68 551 58 q 553 86 551 78 q 556 118 555 103 q 559 150 557 134 q 576 275 565 212 q 583 339 579 307 q 593 403 587 371 q 600 468 595 435 q 607 533 604 501 q 612 598 610 566 q 614 667 614 631 q 612 728 614 699 q 606 778 610 757 q 600 801 603 790 q 590 819 596 811 q 566 844 582 831 l 557 844 q 556 847 557 847 q 555 848 555 847 l 555 850 l 551 850 l 543 850 l 534 850 l 526 850 l 515 850 q 512 847 514 850 q 507 844 510 844 q 498 842 503 844 l 490 842 q 487 837 489 838 q 482 833 485 836 q 473 828 477 833 q 470 827 472 828 q 465 825 468 825 q 458 818 461 821 q 449 811 454 815 q 441 804 445 808 q 432 794 437 799 q 401 762 416 779 q 372 725 386 746 q 344 683 357 705 q 319 636 332 660 q 295 592 307 615 q 269 545 282 568 q 247 501 258 524 q 224 458 236 478 q 202 415 213 435 q 180 375 192 396 q 158 337 170 355 q 136 302 147 319 q 97 233 115 262 q 87 218 92 227 q 78 203 83 210 q 71 188 75 195 q 61 170 66 180 q 30 118 44 142 q 1 75 16 94 q -20 37 -11 52 q -36 11 -29 22 q -44 1 -41 4 q -49 -5 -46 -1 l -52 -8 q -57 -8 -54 -19 l -57 0 l -57 1 q -56 4 -57 3 q -56 8 -56 5 q -47 33 -54 9 q -36 66 -42 45 q -20 117 -29 87 q 2 172 -10 142 q 28 236 14 203 q 35 255 31 247 q 43 275 40 264 l 52 292 q 55 301 53 298 q 60 311 57 304 q 97 386 73 349 q 116 429 106 410 q 136 469 125 449 q 160 510 147 489 q 184 550 172 530 q 210 590 197 571 q 239 628 224 608 q 267 663 252 645 q 297 700 282 681 q 329 733 313 715 q 359 766 345 750 q 391 801 375 786 q 424 833 407 817 q 456 867 439 853 q 493 895 473 882 q 496 897 494 895 q 501 900 498 900 q 506 901 504 900 q 511 903 509 903 q 519 908 514 908 q 530 911 524 911 q 541 917 534 916 l 551 920 l 553 920 l 555 920 l 559 920 l 572 920 q 593 914 582 920 q 615 900 604 908 q 635 869 625 888 q 644 851 639 861 q 652 833 648 842 q 657 813 654 823 q 661 791 660 804 q 666 772 664 781 q 669 753 668 764 q 674 710 672 732 q 676 669 676 689 q 677 630 677 648 q 677 591 677 611 q 676 554 676 572 q 673 517 676 536 q 669 443 672 479 q 664 370 667 406 q 656 302 661 336 q 648 236 652 268 q 641 183 644 208 q 635 134 637 158 q 644 153 637 147 q 662 188 654 172 q 681 220 671 204 q 711 274 696 249 q 739 319 726 300 q 762 358 751 343 q 781 383 772 372 q 788 389 785 386 q 794 392 791 392 l 798 392 l 799 392 l 802 392 m 589 61 l 586 61 l 589 61 m 586 61 l 585 61 l 586 61 z "},"'":{"ha":755,"x_min":-35,"x_max":779,"o":"m 40 12 q 40 20 36 15 l 40 12 m 92 12 q 92 8 94 11 l 92 12 m 779 586 l 779 575 q 773 508 779 541 q 757 441 766 475 q 735 380 747 410 q 708 321 724 351 q 678 264 694 292 q 644 208 661 236 q 608 155 626 182 q 571 104 590 129 q 531 55 551 79 q 488 7 510 31 l 484 7 q 484 11 479 11 q 515 66 499 39 q 546 121 530 93 q 576 176 562 149 q 604 232 590 204 q 617 259 611 245 q 629 288 623 273 q 642 316 636 303 q 654 345 647 329 q 665 374 660 360 q 673 403 671 387 q 676 410 675 406 q 679 416 677 414 l 684 432 l 688 446 q 689 453 688 448 q 690 461 690 458 q 697 489 694 475 q 703 519 700 504 q 704 547 704 533 q 704 575 704 561 q 679 679 704 633 q 648 720 665 704 q 607 753 631 736 l 595 758 q 589 762 592 761 q 583 765 586 762 l 579 765 q 578 766 579 766 l 570 771 l 561 774 l 558 774 l 561 774 l 558 774 l 557 775 q 503 787 528 786 q 478 789 490 790 q 450 786 465 787 q 400 766 428 781 q 355 735 376 753 q 313 694 334 717 q 294 670 303 682 q 275 646 285 659 q 260 620 269 633 q 244 595 252 607 q 229 567 236 579 q 212 541 221 554 q 200 512 205 525 q 187 484 195 498 q 165 425 175 454 q 146 366 155 395 q 129 304 136 335 q 115 241 122 273 q 110 213 113 228 q 104 182 107 197 q 100 150 104 166 q 96 119 100 133 q 94 88 94 104 q 92 57 94 72 q 91 44 92 50 q 90 33 90 39 q 92 12 90 20 q 90 14 90 12 l 90 16 l 90 11 l 90 7 l 92 8 l 92 7 l 90 0 l 90 -1 q 87 -5 90 -4 q 87 -14 96 -12 q 64 -14 78 -16 q 41 -8 50 -12 q 40 0 32 -4 l 40 3 l 40 4 l 40 7 l 41 8 q 41 9 41 9 q 40 11 40 9 l 40 12 l 41 12 l 41 16 l 41 20 l 40 20 q 39 26 40 22 q 37 32 37 29 q 36 44 36 39 q 33 57 36 50 q 32 70 32 64 q 32 82 32 75 l 29 96 l 28 109 q 25 133 25 121 q 24 158 25 146 q 22 184 24 170 q 21 211 21 199 q 21 236 21 223 q 24 261 21 249 q 24 287 24 275 q 25 313 24 300 q 25 325 25 319 q 28 338 25 330 q 28 352 28 346 q 29 366 28 358 q 31 378 29 372 q 33 390 32 383 l 33 403 l 37 415 l 37 424 l 40 429 l 41 441 q 43 448 41 444 q 45 454 45 452 q 46 460 46 457 q 49 467 46 464 l 50 479 q 53 486 53 482 l 54 492 l 57 498 l 58 504 l 61 517 q 68 539 65 528 q 74 562 71 551 l 75 575 q 78 586 78 579 q 79 599 79 590 l 79 608 q 82 621 79 616 l 79 628 l 79 632 l 79 637 l 79 642 q 79 647 79 644 q 78 653 78 650 q 74 664 75 660 q 69 673 72 668 l 66 677 l 62 682 l 57 688 q 37 700 46 699 q 17 708 31 705 l 11 711 l 4 713 q -1 715 0 713 l -8 715 q -21 717 -15 717 q -33 720 -26 717 q -35 724 -35 720 q -33 725 -35 725 q -18 728 -29 728 l -12 728 l -5 728 q 20 728 7 729 q 33 726 26 728 q 46 724 39 725 q 60 718 53 721 q 74 711 66 714 q 94 690 85 702 q 103 679 98 685 q 111 665 109 672 q 118 637 115 650 q 121 611 121 624 q 123 596 123 604 l 123 583 q 122 576 123 579 q 121 570 121 572 l 121 557 q 117 529 119 541 q 113 504 115 517 l 107 479 l 107 473 q 104 467 104 471 l 103 454 q 101 450 103 453 q 100 444 100 447 l 98 432 l 96 419 l 96 412 l 96 407 l 94 396 l 94 383 q 92 371 92 376 q 92 358 92 366 q 90 346 90 354 l 90 334 q 89 321 90 327 q 87 309 87 315 l 87 286 l 87 261 l 87 236 l 87 224 q 90 236 90 231 q 92 249 90 241 q 107 310 100 281 q 125 371 115 339 q 161 492 142 431 q 182 554 170 522 q 192 584 186 570 q 204 612 197 599 q 219 643 212 628 q 233 671 227 657 q 251 700 241 686 q 269 728 260 713 q 279 741 273 734 q 290 754 285 747 q 301 767 297 761 q 313 779 306 772 q 340 803 323 790 q 354 812 347 807 q 370 823 361 818 q 401 838 385 830 q 436 850 416 846 q 471 857 453 855 q 509 859 489 859 q 579 844 549 856 l 583 844 l 586 842 l 587 842 l 596 840 l 603 836 l 604 836 l 607 836 l 611 833 l 619 829 l 624 828 q 628 825 628 828 l 644 817 q 659 808 652 814 l 663 807 l 667 804 l 675 799 q 681 793 677 796 q 690 787 685 790 l 696 782 l 703 775 q 728 747 716 763 q 749 717 739 732 q 774 646 767 684 q 774 642 774 644 q 775 637 775 640 l 778 629 l 778 621 l 779 611 l 779 603 l 779 595 l 779 586 m 90 7 l 90 4 l 90 7 z "},"(":{"ha":989,"x_min":32,"x_max":1022,"o":"m 1018 403 q 1021 401 1019 403 q 1019 399 1022 400 q 1013 375 1017 388 q 1007 350 1010 363 l 994 300 l 982 250 l 968 203 l 953 153 l 940 103 l 926 54 l 911 4 q 882 -12 904 -16 q 868 -2 872 -9 q 864 12 864 5 l 864 16 q 867 73 865 43 q 869 129 868 102 q 871 188 869 159 q 872 244 872 216 q 873 302 873 273 q 873 358 873 330 q 873 417 873 389 q 872 473 873 446 q 871 531 872 503 q 868 587 869 559 q 863 644 865 615 q 856 700 860 672 q 844 753 852 725 q 842 765 843 760 q 839 778 840 771 q 834 789 836 785 q 831 800 832 793 q 828 804 828 800 q 823 808 827 807 q 819 815 823 815 q 818 818 818 817 q 815 819 818 819 l 815 821 l 814 821 l 812 821 q 811 819 811 821 q 803 817 807 819 l 798 811 q 778 796 787 804 q 770 787 774 792 q 761 778 766 782 q 746 756 754 767 q 730 733 737 745 q 672 637 699 687 q 644 587 656 612 q 619 536 632 562 q 595 485 607 511 q 572 432 583 458 q 548 380 560 407 q 524 328 536 354 q 502 274 513 300 q 478 221 490 249 q 456 168 467 195 q 435 115 446 142 q 424 89 429 103 q 414 61 418 75 q 403 35 408 49 q 393 8 397 21 l 393 7 q 372 -1 387 -9 q 361 17 359 1 q 365 31 363 24 q 368 46 366 39 q 371 61 370 54 q 374 75 372 68 q 379 106 376 91 q 385 138 382 122 q 389 168 387 153 q 393 199 390 183 q 395 229 395 214 q 397 258 395 244 l 397 321 q 393 351 395 336 q 389 379 392 366 q 383 394 386 387 q 378 407 380 400 q 361 428 370 422 q 359 429 361 428 q 357 431 357 429 l 357 432 l 355 432 l 351 433 l 349 433 l 347 433 q 346 436 347 435 l 345 436 l 343 436 l 340 436 l 339 436 l 335 436 l 332 433 l 328 433 q 322 432 323 433 l 319 432 q 315 429 318 429 q 306 423 311 427 q 294 415 300 419 q 283 404 288 410 q 273 395 279 399 q 264 382 269 388 q 256 370 260 376 q 248 357 253 363 q 240 345 243 351 q 233 331 236 338 q 224 317 229 325 q 217 303 221 310 q 211 290 214 297 q 199 264 204 278 q 186 236 193 250 q 175 207 179 220 q 164 178 171 193 q 154 149 159 162 q 143 121 150 136 q 133 92 138 105 q 123 62 129 78 l 115 33 l 111 20 q 109 11 110 14 q 107 4 107 7 q 93 -15 104 -8 q 69 -18 81 -21 q 47 7 50 -12 l 47 12 l 45 17 l 45 25 q 43 33 43 28 q 40 41 43 37 q 39 57 40 50 q 39 75 39 65 q 35 108 36 91 q 32 142 35 125 l 32 208 q 35 241 35 224 q 36 275 35 258 q 41 308 39 291 q 45 340 43 325 q 51 373 47 357 q 60 407 54 389 q 77 471 66 441 q 86 502 81 486 q 98 533 92 518 q 114 566 105 551 l 119 579 q 124 588 122 585 q 127 595 126 591 q 145 624 136 610 q 164 653 154 637 q 183 681 174 667 q 203 707 192 694 q 225 731 214 719 q 249 754 237 743 q 275 777 261 766 q 301 799 289 787 l 315 807 q 319 810 318 808 q 322 812 319 811 l 328 817 q 337 821 333 819 q 343 825 340 823 l 357 833 q 372 842 363 840 l 378 846 q 386 850 382 846 q 401 856 394 852 q 415 863 408 860 q 424 866 420 865 q 432 869 428 867 l 447 875 q 454 878 450 878 q 461 882 458 879 l 478 886 q 482 884 482 886 q 481 879 482 880 l 465 871 l 460 869 q 452 865 456 865 l 439 857 q 434 854 436 854 q 431 852 432 854 l 424 848 q 411 840 417 843 q 397 832 404 836 q 390 828 393 828 l 385 823 q 370 812 374 817 l 357 804 q 345 794 349 796 l 339 787 q 332 783 336 787 l 322 774 q 299 752 310 763 q 277 729 288 741 q 256 704 267 717 q 236 679 245 692 q 220 654 229 667 q 203 628 211 642 q 189 599 196 612 q 174 571 182 586 q 161 543 167 557 q 151 515 155 529 q 142 485 146 500 q 132 454 138 469 q 118 395 124 425 q 113 363 115 379 q 107 332 110 347 q 104 300 106 316 q 102 269 103 285 q 99 238 99 254 q 98 207 98 222 q 98 153 97 179 q 102 160 101 157 q 106 170 103 164 q 118 199 111 182 q 132 226 125 212 q 147 254 139 240 q 176 309 159 283 q 194 337 186 324 q 211 363 201 350 q 230 388 220 375 q 252 412 240 401 q 264 425 258 419 q 277 436 269 431 q 290 445 283 440 q 306 453 297 450 q 309 454 306 453 l 310 454 l 314 457 q 319 458 317 457 q 323 458 321 458 l 328 458 q 330 460 330 458 q 332 461 330 461 l 336 461 l 339 461 l 340 461 l 343 461 l 345 461 q 347 458 345 458 l 351 458 q 355 457 355 458 l 361 457 l 366 454 q 370 450 368 453 l 372 450 l 374 449 q 375 447 374 448 q 378 446 376 446 q 399 416 390 433 q 410 386 406 399 q 412 370 411 378 q 415 354 414 363 q 416 337 415 345 q 418 321 418 329 q 418 258 419 289 q 418 227 418 243 q 415 196 418 211 q 414 182 415 186 q 424 210 418 195 q 435 237 429 224 q 453 293 444 265 q 472 349 463 321 q 493 402 483 375 q 514 457 503 429 q 537 511 525 484 q 559 566 549 538 q 585 618 572 592 q 610 669 597 644 q 638 722 623 696 q 668 774 653 749 q 684 799 675 786 q 703 823 693 811 q 714 836 708 830 q 724 848 720 842 q 736 861 730 855 q 749 871 742 867 q 758 876 754 873 q 765 882 761 879 q 775 887 770 884 q 785 892 779 890 q 797 895 791 895 q 810 899 803 896 l 814 899 l 815 899 l 818 899 l 819 899 l 822 896 l 831 896 q 834 895 832 896 q 839 895 836 895 q 851 888 846 892 q 861 882 857 885 q 871 874 867 879 q 878 865 875 869 q 885 858 883 863 q 890 848 888 852 q 895 842 895 844 q 899 833 899 835 q 911 803 908 820 q 920 771 918 785 q 927 741 925 755 q 932 711 929 726 q 939 652 937 681 q 943 591 940 623 q 945 532 945 562 q 945 475 945 503 q 944 416 945 446 q 943 358 943 386 q 939 300 941 329 q 935 241 937 272 q 933 218 935 229 q 932 195 932 207 l 939 211 l 957 258 l 977 307 l 994 354 q 1004 377 1000 365 q 1014 403 1008 390 q 1018 403 1014 403 z "},")":{"ha":785,"x_min":-35,"x_max":832,"o":"m 828 478 q 832 469 832 478 q 831 467 832 468 l 829 467 l 828 467 l 828 461 l 823 461 q 812 444 818 456 q 799 405 806 429 q 782 345 791 380 q 763 270 774 311 q 742 178 753 228 q 735 152 739 165 q 729 125 732 138 l 715 69 q 708 42 713 57 q 699 11 703 28 q 693 -3 696 4 q 688 -17 690 -9 q 687 -21 688 -20 q 686 -24 686 -22 l 686 -25 l 682 -33 l 677 -41 l 675 -47 q 671 -50 673 -50 l 669 -56 q 665 -58 669 -58 l 665 -64 l 663 -64 l 661 -66 l 659 -66 l 654 -72 l 653 -72 q 648 -75 650 -75 l 646 -75 l 644 -75 l 642 -75 l 640 -75 l 632 -75 l 628 -75 q 624 -72 625 -73 q 619 -67 621 -68 q 615 -64 616 -66 l 611 -56 q 608 -53 608 -56 l 608 -50 q 605 -44 606 -47 q 603 -39 604 -41 l 603 -33 l 600 -31 l 600 -25 l 599 -22 l 599 -14 l 596 -8 l 596 -5 l 596 3 q 595 15 595 9 q 595 28 595 21 l 595 53 q 595 75 595 64 q 596 94 595 86 q 597 132 596 114 q 600 170 599 150 q 604 241 604 207 q 607 259 607 250 q 607 278 607 269 l 607 311 l 607 342 q 606 345 607 343 q 606 349 606 346 q 604 353 604 351 l 603 353 l 600 353 l 591 353 q 578 345 586 353 q 545 317 564 335 q 529 297 536 306 q 511 275 521 288 q 494 252 503 264 q 478 228 485 240 q 460 200 469 212 q 441 175 452 187 q 433 162 437 168 q 424 150 428 157 q 414 135 418 143 q 403 119 410 126 q 397 114 400 117 q 392 109 395 111 q 386 101 389 104 q 378 94 382 98 l 374 94 q 370 92 371 92 l 367 92 l 366 92 l 363 92 l 361 92 q 360 90 361 90 q 359 87 359 89 l 359 86 q 358 86 358 85 q 355 86 357 85 q 354 92 354 86 l 350 92 q 346 94 346 92 q 340 100 342 94 q 338 101 338 100 q 336 103 338 103 l 332 111 q 330 116 332 115 q 329 119 329 117 q 328 124 329 123 q 328 127 328 125 q 325 136 328 136 l 325 144 l 325 150 l 325 153 l 325 161 q 328 178 325 175 q 328 184 328 182 q 329 195 328 187 q 330 207 329 201 q 334 216 332 212 q 338 239 336 229 q 342 261 340 249 q 351 304 347 285 q 363 345 355 323 q 372 383 368 364 q 382 425 376 401 q 387 444 385 433 q 392 467 389 454 q 397 485 395 475 q 400 503 399 494 q 428 669 417 589 q 431 713 431 693 q 432 753 432 733 q 432 772 432 764 q 429 791 432 781 q 428 809 429 800 q 424 825 427 818 q 418 835 421 832 q 411 842 415 838 q 396 844 407 844 l 395 844 l 392 844 l 387 844 l 382 842 l 378 842 q 367 836 371 842 q 363 835 366 836 q 358 833 361 833 q 292 761 322 810 q 262 718 276 741 q 236 669 249 694 q 209 620 220 644 q 186 567 197 595 q 174 542 179 555 q 163 517 170 529 q 158 504 160 510 q 153 492 155 498 q 147 479 150 485 q 142 467 144 473 q 103 366 122 412 q 69 275 85 319 q 41 189 54 227 q 17 119 28 151 q -2 62 6 87 q -17 20 -9 37 q -29 -17 -24 -1 q -32 -22 -29 -17 q -33 -22 -33 -24 q -35 -14 -35 -17 l -35 -9 q -33 0 -35 -4 q -32 11 -33 3 q -29 28 -31 20 q -22 79 -26 52 q -9 144 -17 107 q 7 225 -3 182 q 29 319 17 269 q 58 425 41 370 q 94 536 74 479 q 114 593 104 566 q 138 650 125 621 q 164 707 150 677 q 195 761 179 736 q 228 811 208 786 q 265 852 246 836 q 307 886 283 873 q 329 898 318 893 q 350 903 339 903 q 363 908 354 908 l 370 908 l 375 908 l 379 908 l 386 908 l 392 908 l 395 908 l 399 908 q 411 901 406 904 q 424 892 416 899 q 430 883 427 888 q 436 875 433 878 q 439 863 437 868 q 444 850 441 857 q 450 825 447 838 q 453 800 453 812 q 454 777 454 789 q 454 753 454 765 q 452 706 454 728 q 449 661 450 685 q 438 573 444 616 q 425 486 432 530 q 422 467 424 478 q 419 444 421 456 q 414 422 416 432 q 411 400 412 412 q 405 357 408 376 q 399 317 401 338 q 393 279 396 297 q 387 244 390 261 q 395 257 390 251 q 403 269 400 262 q 437 330 420 301 q 471 386 454 358 q 489 414 480 398 q 509 441 498 429 q 531 463 519 454 q 553 484 542 472 q 566 493 559 490 q 579 500 572 496 q 585 501 582 500 q 591 503 589 503 l 600 503 l 603 503 l 604 503 l 607 503 l 608 503 l 611 503 l 612 503 l 615 503 l 616 503 l 621 503 q 624 501 623 503 q 625 500 624 500 q 636 493 631 496 q 646 484 642 490 q 655 470 651 477 q 663 453 660 464 q 668 438 665 445 q 673 419 671 431 q 677 389 676 404 q 682 358 679 374 q 683 333 682 346 q 682 309 684 321 q 681 264 682 285 q 677 225 679 244 q 674 183 675 201 q 671 144 673 164 q 670 137 671 142 q 669 127 669 132 q 677 152 673 140 q 686 175 681 164 q 694 200 690 187 q 703 225 697 212 q 732 308 718 270 q 758 378 746 346 q 782 432 770 410 q 804 467 794 454 q 821 478 814 477 l 828 478 m 378 158 l 378 161 l 378 158 m 608 353 l 607 353 l 608 353 m 633 50 l 636 50 l 633 50 z "},"*":{"ha":739,"x_min":-57,"x_max":803,"o":"m 802 392 q 803 389 802 392 l 803 386 q 803 380 803 383 q 802 378 803 378 l 799 378 q 798 375 799 376 q 793 370 795 375 q 789 358 791 366 q 776 328 782 347 q 760 283 770 309 q 714 158 740 233 q 708 139 711 147 q 701 119 704 131 q 692 101 696 111 q 685 78 689 90 q 677 59 682 70 q 668 36 672 49 q 659 17 663 28 q 648 -5 654 7 l 639 -25 q 631 -37 636 -32 q 624 -47 627 -43 q 619 -53 621 -50 q 614 -58 616 -56 l 611 -64 l 607 -64 q 606 -66 607 -65 l 603 -66 q 602 -72 602 -66 l 599 -72 l 597 -72 l 595 -72 l 593 -72 l 590 -72 l 586 -72 l 585 -72 l 581 -72 q 578 -69 578 -72 q 576 -66 578 -66 q 572 -65 574 -66 q 568 -64 571 -64 l 561 -50 q 560 -47 561 -47 q 557 -41 559 -46 q 556 -36 557 -39 q 555 -31 555 -33 q 553 -25 553 -31 l 553 -22 q 551 -20 551 -22 l 551 -17 q 551 -9 551 -10 q 549 -5 551 -8 l 549 0 l 549 3 l 549 33 l 549 50 q 551 68 551 58 q 553 86 551 78 q 556 118 555 103 q 559 150 557 134 q 576 275 565 212 q 583 339 579 307 q 593 403 587 371 q 600 468 595 435 q 607 533 604 501 q 612 598 610 566 q 614 667 614 631 q 612 728 614 699 q 606 778 610 757 q 600 801 603 790 q 590 819 596 811 q 566 844 582 831 l 557 844 q 556 847 557 847 q 555 848 555 847 l 555 850 l 551 850 l 543 850 l 534 850 l 526 850 l 515 850 q 512 847 514 850 q 507 844 510 844 q 498 842 503 844 l 490 842 q 487 837 489 838 q 482 833 485 836 q 473 828 477 833 q 470 827 472 828 q 465 825 468 825 q 458 818 461 821 q 449 811 454 815 q 441 804 445 808 q 432 794 437 799 q 401 762 416 779 q 372 725 386 746 q 344 683 357 705 q 319 636 332 660 q 295 592 307 615 q 269 545 282 568 q 247 501 258 524 q 224 458 236 478 q 202 415 213 435 q 180 375 192 396 q 158 337 170 355 q 136 302 147 319 q 97 233 115 262 q 87 218 92 227 q 78 203 83 210 q 71 188 75 195 q 61 170 66 180 q 30 118 44 142 q 1 75 16 94 q -20 37 -11 52 q -36 11 -29 22 q -44 1 -41 4 q -49 -5 -46 -1 l -52 -8 q -57 -8 -54 -19 l -57 0 l -57 1 q -56 4 -57 3 q -56 8 -56 5 q -47 33 -54 9 q -36 66 -42 45 q -20 117 -29 87 q 2 172 -10 142 q 28 236 14 203 q 35 255 31 247 q 43 275 40 264 l 52 292 q 55 301 53 298 q 60 311 57 304 q 97 386 73 349 q 116 429 106 410 q 136 469 125 449 q 160 510 147 489 q 184 550 172 530 q 210 590 197 571 q 239 628 224 608 q 267 663 252 645 q 297 700 282 681 q 329 733 313 715 q 359 766 345 750 q 391 801 375 786 q 424 833 407 817 q 456 867 439 853 q 493 895 473 882 q 496 897 494 895 q 501 900 498 900 q 506 901 504 900 q 511 903 509 903 q 519 908 514 908 q 530 911 524 911 q 541 917 534 916 l 551 920 l 553 920 l 555 920 l 559 920 l 572 920 q 593 914 582 920 q 615 900 604 908 q 635 869 625 888 q 644 851 639 861 q 652 833 648 842 q 657 813 654 823 q 661 791 660 804 q 666 772 664 781 q 669 753 668 764 q 674 710 672 732 q 676 669 676 689 q 677 630 677 648 q 677 591 677 611 q 676 554 676 572 q 673 517 676 536 q 669 443 672 479 q 664 370 667 406 q 656 302 661 336 q 648 236 652 268 q 641 183 644 208 q 635 134 637 158 q 644 153 637 147 q 662 188 654 172 q 681 220 671 204 q 711 274 696 249 q 739 319 726 300 q 762 358 751 343 q 781 383 772 372 q 788 389 785 386 q 794 392 791 392 l 798 392 l 799 392 l 802 392 m 589 61 l 586 61 l 589 61 m 586 61 l 585 61 l 586 61 z "},"+":{"ha":713,"x_min":21,"x_max":775,"o":"m 772 257 q 755 221 766 236 q 747 204 751 212 q 737 186 742 196 q 717 151 728 168 q 696 119 707 135 q 671 86 684 100 q 658 71 664 78 q 643 57 652 64 q 636 48 640 52 q 629 40 632 45 q 620 34 624 37 q 612 28 616 31 q 604 21 608 24 q 600 17 602 18 q 596 12 597 16 q 586 7 591 9 q 575 3 582 5 q 565 -3 570 0 q 554 -8 561 -5 q 540 -11 547 -9 q 526 -12 533 -12 q 512 -11 519 -12 q 497 -8 504 -9 q 494 -5 496 -5 q 489 -4 492 -5 q 486 -3 488 -4 q 484 -1 485 -1 q 480 1 481 0 q 476 3 479 3 l 476 4 l 475 4 l 472 4 l 472 7 l 471 8 q 467 12 468 11 q 464 16 467 12 l 458 21 q 457 24 458 24 q 454 28 456 25 q 453 31 454 29 q 452 33 452 32 q 447 46 449 40 q 443 57 446 52 q 437 79 440 69 q 435 100 435 89 q 432 121 433 111 q 431 142 431 131 l 431 183 q 433 223 431 203 q 437 262 435 243 q 441 303 439 283 q 447 342 444 322 l 452 361 l 456 379 q 459 400 458 390 q 463 419 460 410 q 471 457 467 439 q 479 496 476 476 l 488 533 l 496 574 q 504 612 500 593 q 513 650 507 631 q 515 668 514 659 q 518 688 517 677 q 522 708 521 697 q 525 728 522 718 l 529 746 l 533 765 q 536 785 534 776 q 539 804 538 794 q 542 827 542 820 q 534 828 542 833 q 515 807 525 817 q 496 787 505 798 q 454 746 473 768 q 445 737 449 742 q 435 725 440 732 l 414 704 l 396 686 l 376 665 q 358 643 367 654 q 339 621 349 632 q 301 579 319 601 q 284 558 292 568 q 267 536 277 547 q 251 513 258 524 q 233 490 243 501 q 217 468 225 479 q 201 444 210 456 q 188 420 195 432 q 172 396 180 408 l 167 383 l 160 374 q 157 368 159 371 q 154 361 155 364 q 151 355 151 358 q 147 349 150 351 q 135 324 140 336 q 125 298 129 311 q 106 249 111 271 q 92 196 99 227 q 89 183 92 188 l 89 178 l 89 175 l 87 171 l 87 158 l 85 146 l 85 142 l 85 140 l 85 138 l 85 132 l 85 119 l 85 96 q 87 85 87 89 q 89 75 87 81 q 92 64 92 68 q 96 57 93 60 q 100 53 97 53 q 102 49 100 50 q 106 45 102 45 l 113 37 q 116 37 114 37 q 121 36 118 36 q 129 33 123 33 q 139 33 135 33 q 150 35 144 33 q 163 37 155 36 q 167 39 164 37 q 172 40 170 40 l 179 41 l 180 45 l 184 45 l 192 49 l 196 50 q 202 53 199 53 q 208 54 205 53 q 215 58 211 57 q 221 61 218 58 q 231 66 224 64 l 243 74 q 249 77 245 75 q 254 79 252 78 q 277 94 267 89 q 288 103 281 96 q 294 106 290 104 q 300 109 297 107 l 310 117 l 321 125 q 332 133 328 127 q 343 140 336 138 l 346 140 l 347 140 q 347 136 351 136 q 338 124 343 130 q 329 115 334 119 q 319 104 323 110 q 310 94 315 98 q 301 86 307 89 l 296 79 l 292 75 q 281 66 286 71 q 271 57 275 61 q 265 52 268 54 q 260 49 262 50 q 255 44 257 46 q 250 40 253 41 q 237 32 243 33 q 227 24 233 26 q 220 19 224 21 q 214 16 216 17 l 208 11 l 201 8 l 200 7 l 196 4 l 189 0 q 183 -3 186 -1 q 175 -4 179 -4 q 146 -14 159 -12 q 110 -14 129 -18 l 106 -14 l 102 -12 l 100 -12 l 97 -12 l 92 -9 q 84 -6 89 -8 q 75 -1 79 -4 q 67 5 73 1 q 60 11 62 8 q 54 20 56 15 q 51 22 52 21 q 47 25 50 24 q 33 57 39 41 q 25 86 28 71 q 21 117 21 100 l 21 132 l 21 140 l 21 144 l 21 146 l 21 149 l 21 146 l 21 161 l 21 178 l 21 182 l 21 183 l 21 192 q 22 201 21 197 q 22 208 22 204 q 35 269 26 236 q 54 328 41 297 q 57 334 56 330 q 60 342 58 338 l 64 354 q 79 383 69 371 q 82 390 81 386 q 85 396 83 393 q 88 402 87 399 q 92 408 89 406 l 100 424 l 106 436 q 121 461 114 448 q 139 486 129 473 q 156 510 147 498 q 172 533 165 522 q 210 579 191 558 q 249 625 229 603 q 289 667 269 647 l 330 708 q 341 718 336 713 q 351 729 347 722 q 363 739 358 734 q 372 749 368 743 q 384 758 379 753 q 396 766 389 762 q 407 776 403 772 q 418 786 411 781 q 440 805 429 795 q 464 823 452 814 q 486 841 475 833 q 510 859 497 848 q 522 866 517 861 q 533 875 526 871 q 546 884 540 880 q 558 892 551 888 q 571 896 565 897 q 581 888 578 895 q 585 875 585 884 q 579 856 582 865 q 575 838 576 847 q 570 818 572 828 q 564 799 567 808 q 560 780 562 789 q 555 761 558 771 l 551 742 l 547 724 q 544 704 546 714 q 539 684 542 694 q 536 665 538 674 q 533 646 534 656 q 527 607 530 626 q 521 570 524 589 q 519 550 521 560 q 517 529 518 539 q 514 510 514 519 q 513 490 514 501 q 509 452 510 471 q 505 412 509 433 q 505 394 505 403 q 504 374 505 385 l 501 336 q 500 297 501 315 q 500 258 500 278 q 497 220 497 239 q 496 182 497 201 q 496 144 496 162 q 497 107 496 126 q 500 90 500 99 q 504 74 501 81 q 505 67 504 71 q 509 61 505 62 l 509 57 q 510 54 510 56 l 510 53 l 513 53 q 512 52 514 50 q 513 53 510 53 l 514 50 l 517 50 q 518 49 517 49 q 522 47 521 49 q 526 46 524 46 q 551 53 537 46 q 560 56 557 54 q 567 58 564 57 q 575 62 568 62 q 578 66 576 65 q 581 69 579 66 q 610 90 597 77 q 638 115 625 102 q 667 142 652 127 q 679 157 673 150 q 692 171 685 164 q 704 185 699 178 q 717 200 710 193 q 743 231 730 216 q 766 261 755 245 q 772 261 772 261 q 772 257 775 258 z "},",":{"ha":297,"x_min":0,"x_max":237,"o":"m 233 -176 l 227 -176 q 210 -171 220 -176 q 188 -153 200 -164 q 164 -126 176 -142 q 138 -91 152 -111 q 109 -50 123 -72 q 99 -38 103 -43 q 92 -25 96 -32 q 83 -14 86 -20 q 75 -1 79 -8 q 76 -6 75 -4 q 77 -9 77 -8 q 76 -55 85 -43 q 52 -66 66 -68 q 23 -51 37 -64 q 5 -22 9 -39 q 3 -4 4 -13 q 1 16 1 5 q 0 25 0 20 q 0 36 0 31 l 0 49 q 1 61 0 57 l 1 65 l 1 66 l 4 69 l 4 74 l 5 75 l 5 78 l 8 79 l 8 82 q 10 85 9 83 q 14 87 11 86 l 14 89 q 17 90 15 90 l 21 94 q 24 96 22 96 q 29 98 26 96 q 33 100 31 98 l 37 100 l 46 100 l 47 100 l 50 100 l 52 100 l 54 100 q 58 98 56 100 l 60 98 l 64 96 l 66 96 l 68 94 l 71 94 l 71 92 q 75 90 75 92 l 77 87 q 81 86 79 87 l 83 83 l 87 79 l 92 75 l 92 74 q 92 72 92 73 q 93 71 93 72 q 104 57 98 65 q 113 42 109 49 q 121 28 118 35 l 135 0 q 141 -13 138 -7 q 147 -26 144 -20 q 169 -72 158 -52 q 187 -110 179 -93 q 218 -160 207 -147 q 229 -168 224 -165 l 233 -168 l 233 -171 l 235 -171 l 236 -171 l 237 -172 q 233 -176 237 -176 m 39 37 l 41 37 l 39 37 z "},"-":{"ha":439,"x_min":28,"x_max":545,"o":"m 541 372 q 545 368 545 372 l 542 366 q 538 363 541 364 q 532 360 535 361 q 525 357 529 358 q 504 349 515 354 q 478 336 493 343 q 444 321 463 330 q 404 306 425 313 q 359 285 382 296 q 311 261 336 273 l 286 249 q 273 242 279 246 q 258 236 267 239 q 250 231 256 233 q 244 207 248 220 q 237 182 240 195 q 231 144 235 162 q 220 107 227 126 q 207 69 216 87 q 187 32 201 52 q 181 23 184 28 q 174 14 178 18 q 165 4 171 8 q 153 -5 160 0 q 144 -8 147 -7 q 136 -9 140 -9 q 117 -11 130 -11 q 100 -7 106 -11 q 96 -5 96 -7 l 92 -3 q 89 -2 90 -3 q 86 -1 87 -1 q 74 8 79 4 q 65 18 69 12 l 62 20 l 61 22 l 58 26 l 57 28 l 54 28 l 54 31 l 50 35 l 46 40 q 45 41 45 40 l 45 45 l 40 52 q 37 56 40 53 l 36 61 q 33 68 33 64 l 32 74 q 29 81 29 77 q 28 86 29 85 l 28 94 l 28 107 l 28 111 l 28 114 l 28 119 q 29 125 29 122 q 32 135 29 129 q 50 176 37 159 q 79 210 62 196 q 83 212 82 211 q 86 215 83 214 q 94 222 89 222 q 97 226 96 224 q 100 228 98 228 q 105 231 102 231 q 109 235 107 232 q 139 255 124 245 q 170 273 154 264 q 200 288 185 281 q 229 301 215 294 q 238 304 235 302 q 244 307 241 306 q 247 321 245 314 q 250 335 249 328 q 255 371 253 355 q 257 407 257 387 q 260 442 258 425 q 262 476 261 458 q 266 510 265 493 q 269 543 267 528 q 273 574 271 559 q 278 606 275 590 q 283 635 281 621 q 288 664 285 648 q 308 765 298 721 q 328 843 318 810 q 334 872 330 859 q 340 893 338 885 q 343 900 342 897 q 345 905 345 903 q 345 907 345 907 q 346 909 346 908 l 346 911 q 350 914 346 913 q 353 909 353 914 l 353 905 q 354 890 354 903 q 357 870 357 884 q 357 839 357 856 l 357 760 q 353 710 354 736 q 349 656 351 684 q 345 625 346 640 q 342 595 345 610 q 338 564 340 581 q 332 532 335 547 q 324 500 329 516 q 315 468 319 484 q 306 433 310 450 q 296 399 301 416 q 285 365 289 382 q 275 330 281 347 q 272 321 274 325 q 271 315 271 318 q 278 319 273 318 q 288 322 283 319 q 341 338 315 332 q 390 349 367 345 q 432 358 412 355 q 469 364 452 361 q 499 368 486 367 q 521 370 511 370 q 536 372 528 372 l 541 372 m 212 191 q 217 203 215 197 q 221 215 220 208 q 214 211 218 212 q 207 207 210 210 q 179 191 191 200 q 154 172 167 182 q 142 162 147 167 q 132 153 136 158 q 129 151 130 151 q 125 149 127 151 q 121 143 125 144 q 119 142 119 143 q 117 139 119 140 q 114 136 117 139 l 113 135 q 100 114 104 123 q 98 94 98 107 l 98 90 l 98 89 l 100 87 l 100 86 l 100 85 q 101 82 100 82 q 103 81 103 82 l 103 78 l 104 77 q 107 72 104 74 l 107 69 l 109 69 l 109 68 l 111 65 l 113 64 l 113 61 l 115 61 q 118 57 117 58 q 121 53 119 56 q 123 52 122 52 l 125 52 l 125 49 q 130 52 127 52 q 134 53 132 52 q 139 58 136 56 q 144 64 142 61 q 156 77 151 71 q 165 90 160 83 q 174 106 170 98 q 183 122 179 114 q 198 156 191 139 q 212 191 205 174 z "},".":{"ha":224,"x_min":-35,"x_max":203,"o":"m 199 243 q 203 239 203 243 q 201 237 203 237 l 200 237 l 199 237 l 199 235 l 195 235 q 183 227 189 232 q 153 176 172 214 q 134 139 144 159 q 113 93 123 118 q 106 80 110 86 q 100 66 103 74 l 86 39 q 79 25 83 32 q 69 9 74 18 q 58 -4 64 1 q 57 -7 58 -5 l 57 -8 l 53 -12 l 49 -17 l 46 -20 q 41 -21 45 -21 l 40 -24 q 36 -25 40 -25 l 36 -28 l 33 -28 l 32 -29 l 29 -29 l 25 -32 l 24 -32 q 20 -33 21 -33 l 17 -33 l 16 -33 l 12 -33 l 11 -33 l 3 -33 l -1 -33 q -5 -32 -4 -32 q -10 -29 -8 -29 q -14 -28 -12 -29 l -18 -24 q -21 -22 -21 -24 l -21 -21 q -24 -18 -24 -20 q -26 -16 -25 -17 l -26 -12 l -29 -11 l -29 -8 l -31 -7 l -31 -3 l -33 0 l -33 1 l -33 5 q -35 18 -35 9 l -35 31 q -35 42 -35 36 q -33 52 -35 47 q -32 70 -33 61 q -29 89 -31 79 q -11 118 -25 106 q 17 133 3 131 q 41 122 32 135 q 41 77 50 110 q 41 73 41 75 q 40 68 40 71 q 48 80 44 75 q 57 92 52 86 q 64 104 61 98 q 74 117 68 110 q 103 158 90 139 q 129 193 117 178 q 153 220 141 209 q 175 237 165 231 q 192 243 184 243 l 199 243 m 4 29 l 7 29 l 4 29 z "},"/":{"ha":755,"x_min":-35,"x_max":779,"o":"m 40 12 q 40 20 36 15 l 40 12 m 92 12 q 92 8 94 11 l 92 12 m 779 586 l 779 575 q 773 508 779 541 q 757 441 766 475 q 735 380 747 410 q 708 321 724 351 q 678 264 694 292 q 644 208 661 236 q 608 155 626 182 q 571 104 590 129 q 531 55 551 79 q 488 7 510 31 l 484 7 q 484 11 479 11 q 515 66 499 39 q 546 121 530 93 q 576 176 562 149 q 604 232 590 204 q 617 259 611 245 q 629 288 623 273 q 642 316 636 303 q 654 345 647 329 q 665 374 660 360 q 673 403 671 387 q 676 410 675 406 q 679 416 677 414 l 684 432 l 688 446 q 689 453 688 448 q 690 461 690 458 q 697 489 694 475 q 703 519 700 504 q 704 547 704 533 q 704 575 704 561 q 679 679 704 633 q 648 720 665 704 q 607 753 631 736 l 595 758 q 589 762 592 761 q 583 765 586 762 l 579 765 q 578 766 579 766 l 570 771 l 561 774 l 558 774 l 561 774 l 558 774 l 557 775 q 503 787 528 786 q 478 789 490 790 q 450 786 465 787 q 400 766 428 781 q 355 735 376 753 q 313 694 334 717 q 294 670 303 682 q 275 646 285 659 q 260 620 269 633 q 244 595 252 607 q 229 567 236 579 q 212 541 221 554 q 200 512 205 525 q 187 484 195 498 q 165 425 175 454 q 146 366 155 395 q 129 304 136 335 q 115 241 122 273 q 110 213 113 228 q 104 182 107 197 q 100 150 104 166 q 96 119 100 133 q 94 88 94 104 q 92 57 94 72 q 91 44 92 50 q 90 33 90 39 q 92 12 90 20 q 90 14 90 12 l 90 16 l 90 11 l 90 7 l 92 8 l 92 7 l 90 0 l 90 -1 q 87 -5 90 -4 q 87 -14 96 -12 q 64 -14 78 -16 q 41 -8 50 -12 q 40 0 32 -4 l 40 3 l 40 4 l 40 7 l 41 8 q 41 9 41 9 q 40 11 40 9 l 40 12 l 41 12 l 41 16 l 41 20 l 40 20 q 39 26 40 22 q 37 32 37 29 q 36 44 36 39 q 33 57 36 50 q 32 70 32 64 q 32 82 32 75 l 29 96 l 28 109 q 25 133 25 121 q 24 158 25 146 q 22 184 24 170 q 21 211 21 199 q 21 236 21 223 q 24 261 21 249 q 24 287 24 275 q 25 313 24 300 q 25 325 25 319 q 28 338 25 330 q 28 352 28 346 q 29 366 28 358 q 31 378 29 372 q 33 390 32 383 l 33 403 l 37 415 l 37 424 l 40 429 l 41 441 q 43 448 41 444 q 45 454 45 452 q 46 460 46 457 q 49 467 46 464 l 50 479 q 53 486 53 482 l 54 492 l 57 498 l 58 504 l 61 517 q 68 539 65 528 q 74 562 71 551 l 75 575 q 78 586 78 579 q 79 599 79 590 l 79 608 q 82 621 79 616 l 79 628 l 79 632 l 79 637 l 79 642 q 79 647 79 644 q 78 653 78 650 q 74 664 75 660 q 69 673 72 668 l 66 677 l 62 682 l 57 688 q 37 700 46 699 q 17 708 31 705 l 11 711 l 4 713 q -1 715 0 713 l -8 715 q -21 717 -15 717 q -33 720 -26 717 q -35 724 -35 720 q -33 725 -35 725 q -18 728 -29 728 l -12 728 l -5 728 q 20 728 7 729 q 33 726 26 728 q 46 724 39 725 q 60 718 53 721 q 74 711 66 714 q 94 690 85 702 q 103 679 98 685 q 111 665 109 672 q 118 637 115 650 q 121 611 121 624 q 123 596 123 604 l 123 583 q 122 576 123 579 q 121 570 121 572 l 121 557 q 117 529 119 541 q 113 504 115 517 l 107 479 l 107 473 q 104 467 104 471 l 103 454 q 101 450 103 453 q 100 444 100 447 l 98 432 l 96 419 l 96 412 l 96 407 l 94 396 l 94 383 q 92 371 92 376 q 92 358 92 366 q 90 346 90 354 l 90 334 q 89 321 90 327 q 87 309 87 315 l 87 286 l 87 261 l 87 236 l 87 224 q 90 236 90 231 q 92 249 90 241 q 107 310 100 281 q 125 371 115 339 q 161 492 142 431 q 182 554 170 522 q 192 584 186 570 q 204 612 197 599 q 219 643 212 628 q 233 671 227 657 q 251 700 241 686 q 269 728 260 713 q 279 741 273 734 q 290 754 285 747 q 301 767 297 761 q 313 779 306 772 q 340 803 323 790 q 354 812 347 807 q 370 823 361 818 q 401 838 385 830 q 436 850 416 846 q 471 857 453 855 q 509 859 489 859 q 579 844 549 856 l 583 844 l 586 842 l 587 842 l 596 840 l 603 836 l 604 836 l 607 836 l 611 833 l 619 829 l 624 828 q 628 825 628 828 l 644 817 q 659 808 652 814 l 663 807 l 667 804 l 675 799 q 681 793 677 796 q 690 787 685 790 l 696 782 l 703 775 q 728 747 716 763 q 749 717 739 732 q 774 646 767 684 q 774 642 774 644 q 775 637 775 640 l 778 629 l 778 621 l 779 611 l 779 603 l 779 595 l 779 586 m 90 7 l 90 4 l 90 7 z "},":":{"ha":713,"x_min":21,"x_max":775,"o":"m 772 257 q 755 221 766 236 q 747 204 751 212 q 737 186 742 196 q 717 151 728 168 q 696 119 707 135 q 671 86 684 100 q 658 71 664 78 q 643 57 652 64 q 636 48 640 52 q 629 40 632 45 q 620 34 624 37 q 612 28 616 31 q 604 21 608 24 q 600 17 602 18 q 596 12 597 16 q 586 7 591 9 q 575 3 582 5 q 565 -3 570 0 q 554 -8 561 -5 q 540 -11 547 -9 q 526 -12 533 -12 q 512 -11 519 -12 q 497 -8 504 -9 q 494 -5 496 -5 q 489 -4 492 -5 q 486 -3 488 -4 q 484 -1 485 -1 q 480 1 481 0 q 476 3 479 3 l 476 4 l 475 4 l 472 4 l 472 7 l 471 8 q 467 12 468 11 q 464 16 467 12 l 458 21 q 457 24 458 24 q 454 28 456 25 q 453 31 454 29 q 452 33 452 32 q 447 46 449 40 q 443 57 446 52 q 437 79 440 69 q 435 100 435 89 q 432 121 433 111 q 431 142 431 131 l 431 183 q 433 223 431 203 q 437 262 435 243 q 441 303 439 283 q 447 342 444 322 l 452 361 l 456 379 q 459 400 458 390 q 463 419 460 410 q 471 457 467 439 q 479 496 476 476 l 488 533 l 496 574 q 504 612 500 593 q 513 650 507 631 q 515 668 514 659 q 518 688 517 677 q 522 708 521 697 q 525 728 522 718 l 529 746 l 533 765 q 536 785 534 776 q 539 804 538 794 q 542 827 542 820 q 534 828 542 833 q 515 807 525 817 q 496 787 505 798 q 454 746 473 768 q 445 737 449 742 q 435 725 440 732 l 414 704 l 396 686 l 376 665 q 358 643 367 654 q 339 621 349 632 q 301 579 319 601 q 284 558 292 568 q 267 536 277 547 q 251 513 258 524 q 233 490 243 501 q 217 468 225 479 q 201 444 210 456 q 188 420 195 432 q 172 396 180 408 l 167 383 l 160 374 q 157 368 159 371 q 154 361 155 364 q 151 355 151 358 q 147 349 150 351 q 135 324 140 336 q 125 298 129 311 q 106 249 111 271 q 92 196 99 227 q 89 183 92 188 l 89 178 l 89 175 l 87 171 l 87 158 l 85 146 l 85 142 l 85 140 l 85 138 l 85 132 l 85 119 l 85 96 q 87 85 87 89 q 89 75 87 81 q 92 64 92 68 q 96 57 93 60 q 100 53 97 53 q 102 49 100 50 q 106 45 102 45 l 113 37 q 116 37 114 37 q 121 36 118 36 q 129 33 123 33 q 139 33 135 33 q 150 35 144 33 q 163 37 155 36 q 167 39 164 37 q 172 40 170 40 l 179 41 l 180 45 l 184 45 l 192 49 l 196 50 q 202 53 199 53 q 208 54 205 53 q 215 58 211 57 q 221 61 218 58 q 231 66 224 64 l 243 74 q 249 77 245 75 q 254 79 252 78 q 277 94 267 89 q 288 103 281 96 q 294 106 290 104 q 300 109 297 107 l 310 117 l 321 125 q 332 133 328 127 q 343 140 336 138 l 346 140 l 347 140 q 347 136 351 136 q 338 124 343 130 q 329 115 334 119 q 319 104 323 110 q 310 94 315 98 q 301 86 307 89 l 296 79 l 292 75 q 281 66 286 71 q 271 57 275 61 q 265 52 268 54 q 260 49 262 50 q 255 44 257 46 q 250 40 253 41 q 237 32 243 33 q 227 24 233 26 q 220 19 224 21 q 214 16 216 17 l 208 11 l 201 8 l 200 7 l 196 4 l 189 0 q 183 -3 186 -1 q 175 -4 179 -4 q 146 -14 159 -12 q 110 -14 129 -18 l 106 -14 l 102 -12 l 100 -12 l 97 -12 l 92 -9 q 84 -6 89 -8 q 75 -1 79 -4 q 67 5 73 1 q 60 11 62 8 q 54 20 56 15 q 51 22 52 21 q 47 25 50 24 q 33 57 39 41 q 25 86 28 71 q 21 117 21 100 l 21 132 l 21 140 l 21 144 l 21 146 l 21 149 l 21 146 l 21 161 l 21 178 l 21 182 l 21 183 l 21 192 q 22 201 21 197 q 22 208 22 204 q 35 269 26 236 q 54 328 41 297 q 57 334 56 330 q 60 342 58 338 l 64 354 q 79 383 69 371 q 82 390 81 386 q 85 396 83 393 q 88 402 87 399 q 92 408 89 406 l 100 424 l 106 436 q 121 461 114 448 q 139 486 129 473 q 156 510 147 498 q 172 533 165 522 q 210 579 191 558 q 249 625 229 603 q 289 667 269 647 l 330 708 q 341 718 336 713 q 351 729 347 722 q 363 739 358 734 q 372 749 368 743 q 384 758 379 753 q 396 766 389 762 q 407 776 403 772 q 418 786 411 781 q 440 805 429 795 q 464 823 452 814 q 486 841 475 833 q 510 859 497 848 q 522 866 517 861 q 533 875 526 871 q 546 884 540 880 q 558 892 551 888 q 571 896 565 897 q 581 888 578 895 q 585 875 585 884 q 579 856 582 865 q 575 838 576 847 q 570 818 572 828 q 564 799 567 808 q 560 780 562 789 q 555 761 558 771 l 551 742 l 547 724 q 544 704 546 714 q 539 684 542 694 q 536 665 538 674 q 533 646 534 656 q 527 607 530 626 q 521 570 524 589 q 519 550 521 560 q 517 529 518 539 q 514 510 514 519 q 513 490 514 501 q 509 452 510 471 q 505 412 509 433 q 505 394 505 403 q 504 374 505 385 l 501 336 q 500 297 501 315 q 500 258 500 278 q 497 220 497 239 q 496 182 497 201 q 496 144 496 162 q 497 107 496 126 q 500 90 500 99 q 504 74 501 81 q 505 67 504 71 q 509 61 505 62 l 509 57 q 510 54 510 56 l 510 53 l 513 53 q 512 52 514 50 q 513 53 510 53 l 514 50 l 517 50 q 518 49 517 49 q 522 47 521 49 q 526 46 524 46 q 551 53 537 46 q 560 56 557 54 q 567 58 564 57 q 575 62 568 62 q 578 66 576 65 q 581 69 579 66 q 610 90 597 77 q 638 115 625 102 q 667 142 652 127 q 679 157 673 150 q 692 171 685 164 q 704 185 699 178 q 717 200 710 193 q 743 231 730 216 q 766 261 755 245 q 772 261 772 261 q 772 257 775 258 z "},";":{"ha":686,"x_min":-53,"x_max":755,"o":"m 755 456 q 747 396 751 424 q 734 339 742 368 q 722 283 728 311 q 705 228 715 256 q 667 127 690 175 q 655 105 661 117 q 643 86 650 94 q 614 47 629 66 q 580 23 598 32 q 546 14 562 14 l 538 14 l 526 14 l 522 14 l 521 14 l 518 14 l 514 20 l 513 20 l 510 20 l 504 22 l 501 22 l 497 22 q 494 29 496 26 q 489 36 492 32 l 484 39 q 481 42 481 39 q 479 45 481 45 l 475 53 q 472 54 472 53 q 471 56 471 54 q 455 84 461 68 q 443 119 449 100 q 434 150 439 135 q 427 180 429 165 q 421 213 424 197 q 416 244 419 228 q 415 254 416 251 q 414 261 414 257 l 412 278 q 411 293 412 286 q 410 311 410 300 q 406 374 407 343 q 401 436 404 404 q 400 467 400 452 q 400 497 400 482 l 400 561 l 400 589 l 400 623 l 400 681 q 401 711 401 698 q 401 739 401 724 q 401 733 401 736 q 400 728 400 730 l 371 597 q 356 533 364 566 q 342 469 349 501 q 334 437 339 452 q 326 406 329 422 q 319 373 323 390 q 313 339 315 355 q 297 276 304 307 q 279 214 289 245 q 272 183 277 198 q 262 153 267 168 q 253 121 257 136 q 243 89 249 106 q 221 31 233 57 q 213 16 218 22 q 205 3 208 9 q 184 -22 197 -9 q 180 -28 183 -22 l 175 -28 q 167 -31 171 -31 l 163 -31 l 160 -31 l 158 -31 l 155 -31 l 154 -28 l 150 -28 l 147 -28 q 144 -25 146 -28 q 142 -22 143 -22 q 138 -21 139 -22 q 135 -20 138 -20 q 100 39 111 3 q 96 50 97 45 q 93 61 96 54 q 87 78 90 66 q 84 97 85 86 q 81 119 83 107 q 75 157 78 139 q 71 195 72 175 q 66 270 68 232 q 64 345 64 307 q 65 415 64 378 q 68 489 66 452 l 66 481 l 54 447 q 48 429 52 439 q 41 411 45 419 l 29 378 l 17 345 q 11 325 14 334 q 4 306 7 317 q -2 291 1 298 q -8 272 -5 283 q -15 255 -11 264 q -21 239 -18 245 q -33 204 -28 219 q -46 170 -39 189 l -53 170 l -53 178 q -45 217 -50 199 q -36 256 -40 236 q -31 275 -33 267 q -28 294 -29 283 q -22 314 -25 302 q -17 336 -20 325 q -13 354 -16 345 q -8 372 -11 364 l 0 411 l 9 447 q 15 466 12 458 q 18 486 17 475 l 29 528 l 39 564 l 47 603 l 58 639 l 68 677 l 79 714 l 87 753 q 93 771 90 761 q 97 789 96 781 q 115 816 104 808 q 138 811 126 823 q 149 784 144 800 q 151 753 154 768 l 151 747 l 150 730 l 147 714 l 146 681 q 142 646 143 661 q 139 611 142 631 q 136 542 138 575 q 131 472 134 509 q 129 408 130 440 q 126 339 129 375 l 126 272 l 126 205 q 129 175 129 190 q 131 147 129 160 q 134 133 134 139 q 135 119 134 126 q 136 113 135 115 q 138 106 138 110 q 139 100 139 103 q 139 94 139 97 q 142 87 142 90 q 143 81 142 85 l 146 78 l 146 75 q 147 72 146 73 q 151 66 150 69 q 154 61 151 64 l 155 56 q 160 53 158 56 l 163 53 l 164 53 l 163 53 l 164 53 l 167 53 l 167 47 l 168 47 l 171 47 l 171 52 l 172 53 q 184 61 178 53 q 191 69 187 64 q 197 78 195 74 q 209 98 204 86 q 221 122 214 110 q 241 179 232 151 q 260 236 250 207 q 293 361 278 298 q 299 392 296 376 q 309 422 302 407 q 315 454 311 439 q 321 489 318 469 q 333 552 328 521 q 346 619 339 583 q 357 685 353 652 q 367 753 361 717 q 378 820 374 786 q 387 886 382 854 q 396 954 391 920 q 406 1022 401 989 l 443 1197 q 457 1235 446 1222 q 484 1239 468 1247 q 502 1212 494 1232 q 505 1166 509 1192 l 504 1164 l 500 1105 q 498 1078 500 1093 q 497 1047 497 1063 q 486 922 489 985 q 479 794 482 860 q 478 734 479 762 q 476 677 476 705 l 475 619 l 475 561 q 473 530 475 544 q 475 503 472 515 l 475 472 l 475 444 q 479 330 475 389 q 479 317 479 323 q 481 302 479 311 l 481 289 q 482 283 481 286 q 484 278 484 281 q 486 253 485 266 q 489 228 488 240 q 497 181 492 203 q 510 147 503 160 q 516 138 513 140 q 522 131 519 135 l 525 131 l 522 131 l 525 131 l 529 127 l 530 127 l 534 127 q 536 126 534 126 q 539 122 538 125 l 546 122 q 558 123 553 122 q 571 127 564 123 q 593 136 585 127 q 605 146 600 143 q 618 161 611 150 q 629 174 623 168 q 642 189 635 180 q 662 224 652 206 q 681 264 671 243 q 699 311 690 288 q 717 355 708 335 q 726 380 721 368 q 733 406 730 393 q 741 433 737 418 q 747 461 745 449 q 754 461 750 464 l 755 456 z "},"<":{"ha":439,"x_min":28,"x_max":545,"o":"m 541 372 q 545 368 545 372 l 542 366 q 538 363 541 364 q 532 360 535 361 q 525 357 529 358 q 504 349 515 354 q 478 336 493 343 q 444 321 463 330 q 404 306 425 313 q 359 285 382 296 q 311 261 336 273 l 286 249 q 273 242 279 246 q 258 236 267 239 q 250 231 256 233 q 244 207 248 220 q 237 182 240 195 q 231 144 235 162 q 220 107 227 126 q 207 69 216 87 q 187 32 201 52 q 181 23 184 28 q 174 14 178 18 q 165 4 171 8 q 153 -5 160 0 q 144 -8 147 -7 q 136 -9 140 -9 q 117 -11 130 -11 q 100 -7 106 -11 q 96 -5 96 -7 l 92 -3 q 89 -2 90 -3 q 86 -1 87 -1 q 74 8 79 4 q 65 18 69 12 l 62 20 l 61 22 l 58 26 l 57 28 l 54 28 l 54 31 l 50 35 l 46 40 q 45 41 45 40 l 45 45 l 40 52 q 37 56 40 53 l 36 61 q 33 68 33 64 l 32 74 q 29 81 29 77 q 28 86 29 85 l 28 94 l 28 107 l 28 111 l 28 114 l 28 119 q 29 125 29 122 q 32 135 29 129 q 50 176 37 159 q 79 210 62 196 q 83 212 82 211 q 86 215 83 214 q 94 222 89 222 q 97 226 96 224 q 100 228 98 228 q 105 231 102 231 q 109 235 107 232 q 139 255 124 245 q 170 273 154 264 q 200 288 185 281 q 229 301 215 294 q 238 304 235 302 q 244 307 241 306 q 247 321 245 314 q 250 335 249 328 q 255 371 253 355 q 257 407 257 387 q 260 442 258 425 q 262 476 261 458 q 266 510 265 493 q 269 543 267 528 q 273 574 271 559 q 278 606 275 590 q 283 635 281 621 q 288 664 285 648 q 308 765 298 721 q 328 843 318 810 q 334 872 330 859 q 340 893 338 885 q 343 900 342 897 q 345 905 345 903 q 345 907 345 907 q 346 909 346 908 l 346 911 q 350 914 346 913 q 353 909 353 914 l 353 905 q 354 890 354 903 q 357 870 357 884 q 357 839 357 856 l 357 760 q 353 710 354 736 q 349 656 351 684 q 345 625 346 640 q 342 595 345 610 q 338 564 340 581 q 332 532 335 547 q 324 500 329 516 q 315 468 319 484 q 306 433 310 450 q 296 399 301 416 q 285 365 289 382 q 275 330 281 347 q 272 321 274 325 q 271 315 271 318 q 278 319 273 318 q 288 322 283 319 q 341 338 315 332 q 390 349 367 345 q 432 358 412 355 q 469 364 452 361 q 499 368 486 367 q 521 370 511 370 q 536 372 528 372 l 541 372 m 212 191 q 217 203 215 197 q 221 215 220 208 q 214 211 218 212 q 207 207 210 210 q 179 191 191 200 q 154 172 167 182 q 142 162 147 167 q 132 153 136 158 q 129 151 130 151 q 125 149 127 151 q 121 143 125 144 q 119 142 119 143 q 117 139 119 140 q 114 136 117 139 l 113 135 q 100 114 104 123 q 98 94 98 107 l 98 90 l 98 89 l 100 87 l 100 86 l 100 85 q 101 82 100 82 q 103 81 103 82 l 103 78 l 104 77 q 107 72 104 74 l 107 69 l 109 69 l 109 68 l 111 65 l 113 64 l 113 61 l 115 61 q 118 57 117 58 q 121 53 119 56 q 123 52 122 52 l 125 52 l 125 49 q 130 52 127 52 q 134 53 132 52 q 139 58 136 56 q 144 64 142 61 q 156 77 151 71 q 165 90 160 83 q 174 106 170 98 q 183 122 179 114 q 198 156 191 139 q 212 191 205 174 z "},"=":{"ha":739,"x_min":-57,"x_max":803,"o":"m 802 392 q 803 389 802 392 l 803 386 q 803 380 803 383 q 802 378 803 378 l 799 378 q 798 375 799 376 q 793 370 795 375 q 789 358 791 366 q 776 328 782 347 q 760 283 770 309 q 714 158 740 233 q 708 139 711 147 q 701 119 704 131 q 692 101 696 111 q 685 78 689 90 q 677 59 682 70 q 668 36 672 49 q 659 17 663 28 q 648 -5 654 7 l 639 -25 q 631 -37 636 -32 q 624 -47 627 -43 q 619 -53 621 -50 q 614 -58 616 -56 l 611 -64 l 607 -64 q 606 -66 607 -65 l 603 -66 q 602 -72 602 -66 l 599 -72 l 597 -72 l 595 -72 l 593 -72 l 590 -72 l 586 -72 l 585 -72 l 581 -72 q 578 -69 578 -72 q 576 -66 578 -66 q 572 -65 574 -66 q 568 -64 571 -64 l 561 -50 q 560 -47 561 -47 q 557 -41 559 -46 q 556 -36 557 -39 q 555 -31 555 -33 q 553 -25 553 -31 l 553 -22 q 551 -20 551 -22 l 551 -17 q 551 -9 551 -10 q 549 -5 551 -8 l 549 0 l 549 3 l 549 33 l 549 50 q 551 68 551 58 q 553 86 551 78 q 556 118 555 103 q 559 150 557 134 q 576 275 565 212 q 583 339 579 307 q 593 403 587 371 q 600 468 595 435 q 607 533 604 501 q 612 598 610 566 q 614 667 614 631 q 612 728 614 699 q 606 778 610 757 q 600 801 603 790 q 590 819 596 811 q 566 844 582 831 l 557 844 q 556 847 557 847 q 555 848 555 847 l 555 850 l 551 850 l 543 850 l 534 850 l 526 850 l 515 850 q 512 847 514 850 q 507 844 510 844 q 498 842 503 844 l 490 842 q 487 837 489 838 q 482 833 485 836 q 473 828 477 833 q 470 827 472 828 q 465 825 468 825 q 458 818 461 821 q 449 811 454 815 q 441 804 445 808 q 432 794 437 799 q 401 762 416 779 q 372 725 386 746 q 344 683 357 705 q 319 636 332 660 q 295 592 307 615 q 269 545 282 568 q 247 501 258 524 q 224 458 236 478 q 202 415 213 435 q 180 375 192 396 q 158 337 170 355 q 136 302 147 319 q 97 233 115 262 q 87 218 92 227 q 78 203 83 210 q 71 188 75 195 q 61 170 66 180 q 30 118 44 142 q 1 75 16 94 q -20 37 -11 52 q -36 11 -29 22 q -44 1 -41 4 q -49 -5 -46 -1 l -52 -8 q -57 -8 -54 -19 l -57 0 l -57 1 q -56 4 -57 3 q -56 8 -56 5 q -47 33 -54 9 q -36 66 -42 45 q -20 117 -29 87 q 2 172 -10 142 q 28 236 14 203 q 35 255 31 247 q 43 275 40 264 l 52 292 q 55 301 53 298 q 60 311 57 304 q 97 386 73 349 q 116 429 106 410 q 136 469 125 449 q 160 510 147 489 q 184 550 172 530 q 210 590 197 571 q 239 628 224 608 q 267 663 252 645 q 297 700 282 681 q 329 733 313 715 q 359 766 345 750 q 391 801 375 786 q 424 833 407 817 q 456 867 439 853 q 493 895 473 882 q 496 897 494 895 q 501 900 498 900 q 506 901 504 900 q 511 903 509 903 q 519 908 514 908 q 530 911 524 911 q 541 917 534 916 l 551 920 l 553 920 l 555 920 l 559 920 l 572 920 q 593 914 582 920 q 615 900 604 908 q 635 869 625 888 q 644 851 639 861 q 652 833 648 842 q 657 813 654 823 q 661 791 660 804 q 666 772 664 781 q 669 753 668 764 q 674 710 672 732 q 676 669 676 689 q 677 630 677 648 q 677 591 677 611 q 676 554 676 572 q 673 517 676 536 q 669 443 672 479 q 664 370 667 406 q 656 302 661 336 q 648 236 652 268 q 641 183 644 208 q 635 134 637 158 q 644 153 637 147 q 662 188 654 172 q 681 220 671 204 q 711 274 696 249 q 739 319 726 300 q 762 358 751 343 q 781 383 772 372 q 788 389 785 386 q 794 392 791 392 l 798 392 l 799 392 l 802 392 m 589 61 l 586 61 l 589 61 m 586 61 l 585 61 l 586 61 z "},">":{"ha":755,"x_min":-35,"x_max":779,"o":"m 40 12 q 40 20 36 15 l 40 12 m 92 12 q 92 8 94 11 l 92 12 m 779 586 l 779 575 q 773 508 779 541 q 757 441 766 475 q 735 380 747 410 q 708 321 724 351 q 678 264 694 292 q 644 208 661 236 q 608 155 626 182 q 571 104 590 129 q 531 55 551 79 q 488 7 510 31 l 484 7 q 484 11 479 11 q 515 66 499 39 q 546 121 530 93 q 576 176 562 149 q 604 232 590 204 q 617 259 611 245 q 629 288 623 273 q 642 316 636 303 q 654 345 647 329 q 665 374 660 360 q 673 403 671 387 q 676 410 675 406 q 679 416 677 414 l 684 432 l 688 446 q 689 453 688 448 q 690 461 690 458 q 697 489 694 475 q 703 519 700 504 q 704 547 704 533 q 704 575 704 561 q 679 679 704 633 q 648 720 665 704 q 607 753 631 736 l 595 758 q 589 762 592 761 q 583 765 586 762 l 579 765 q 578 766 579 766 l 570 771 l 561 774 l 558 774 l 561 774 l 558 774 l 557 775 q 503 787 528 786 q 478 789 490 790 q 450 786 465 787 q 400 766 428 781 q 355 735 376 753 q 313 694 334 717 q 294 670 303 682 q 275 646 285 659 q 260 620 269 633 q 244 595 252 607 q 229 567 236 579 q 212 541 221 554 q 200 512 205 525 q 187 484 195 498 q 165 425 175 454 q 146 366 155 395 q 129 304 136 335 q 115 241 122 273 q 110 213 113 228 q 104 182 107 197 q 100 150 104 166 q 96 119 100 133 q 94 88 94 104 q 92 57 94 72 q 91 44 92 50 q 90 33 90 39 q 92 12 90 20 q 90 14 90 12 l 90 16 l 90 11 l 90 7 l 92 8 l 92 7 l 90 0 l 90 -1 q 87 -5 90 -4 q 87 -14 96 -12 q 64 -14 78 -16 q 41 -8 50 -12 q 40 0 32 -4 l 40 3 l 40 4 l 40 7 l 41 8 q 41 9 41 9 q 40 11 40 9 l 40 12 l 41 12 l 41 16 l 41 20 l 40 20 q 39 26 40 22 q 37 32 37 29 q 36 44 36 39 q 33 57 36 50 q 32 70 32 64 q 32 82 32 75 l 29 96 l 28 109 q 25 133 25 121 q 24 158 25 146 q 22 184 24 170 q 21 211 21 199 q 21 236 21 223 q 24 261 21 249 q 24 287 24 275 q 25 313 24 300 q 25 325 25 319 q 28 338 25 330 q 28 352 28 346 q 29 366 28 358 q 31 378 29 372 q 33 390 32 383 l 33 403 l 37 415 l 37 424 l 40 429 l 41 441 q 43 448 41 444 q 45 454 45 452 q 46 460 46 457 q 49 467 46 464 l 50 479 q 53 486 53 482 l 54 492 l 57 498 l 58 504 l 61 517 q 68 539 65 528 q 74 562 71 551 l 75 575 q 78 586 78 579 q 79 599 79 590 l 79 608 q 82 621 79 616 l 79 628 l 79 632 l 79 637 l 79 642 q 79 647 79 644 q 78 653 78 650 q 74 664 75 660 q 69 673 72 668 l 66 677 l 62 682 l 57 688 q 37 700 46 699 q 17 708 31 705 l 11 711 l 4 713 q -1 715 0 713 l -8 715 q -21 717 -15 717 q -33 720 -26 717 q -35 724 -35 720 q -33 725 -35 725 q -18 728 -29 728 l -12 728 l -5 728 q 20 728 7 729 q 33 726 26 728 q 46 724 39 725 q 60 718 53 721 q 74 711 66 714 q 94 690 85 702 q 103 679 98 685 q 111 665 109 672 q 118 637 115 650 q 121 611 121 624 q 123 596 123 604 l 123 583 q 122 576 123 579 q 121 570 121 572 l 121 557 q 117 529 119 541 q 113 504 115 517 l 107 479 l 107 473 q 104 467 104 471 l 103 454 q 101 450 103 453 q 100 444 100 447 l 98 432 l 96 419 l 96 412 l 96 407 l 94 396 l 94 383 q 92 371 92 376 q 92 358 92 366 q 90 346 90 354 l 90 334 q 89 321 90 327 q 87 309 87 315 l 87 286 l 87 261 l 87 236 l 87 224 q 90 236 90 231 q 92 249 90 241 q 107 310 100 281 q 125 371 115 339 q 161 492 142 431 q 182 554 170 522 q 192 584 186 570 q 204 612 197 599 q 219 643 212 628 q 233 671 227 657 q 251 700 241 686 q 269 728 260 713 q 279 741 273 734 q 290 754 285 747 q 301 767 297 761 q 313 779 306 772 q 340 803 323 790 q 354 812 347 807 q 370 823 361 818 q 401 838 385 830 q 436 850 416 846 q 471 857 453 855 q 509 859 489 859 q 579 844 549 856 l 583 844 l 586 842 l 587 842 l 596 840 l 603 836 l 604 836 l 607 836 l 611 833 l 619 829 l 624 828 q 628 825 628 828 l 644 817 q 659 808 652 814 l 663 807 l 667 804 l 675 799 q 681 793 677 796 q 690 787 685 790 l 696 782 l 703 775 q 728 747 716 763 q 749 717 739 732 q 774 646 767 684 q 774 642 774 644 q 775 637 775 640 l 778 629 l 778 621 l 779 611 l 779 603 l 779 595 l 779 586 m 90 7 l 90 4 l 90 7 z "},"?":{"ha":989,"x_min":32,"x_max":1022,"o":"m 1018 403 q 1021 401 1019 403 q 1019 399 1022 400 q 1013 375 1017 388 q 1007 350 1010 363 l 994 300 l 982 250 l 968 203 l 953 153 l 940 103 l 926 54 l 911 4 q 882 -12 904 -16 q 868 -2 872 -9 q 864 12 864 5 l 864 16 q 867 73 865 43 q 869 129 868 102 q 871 188 869 159 q 872 244 872 216 q 873 302 873 273 q 873 358 873 330 q 873 417 873 389 q 872 473 873 446 q 871 531 872 503 q 868 587 869 559 q 863 644 865 615 q 856 700 860 672 q 844 753 852 725 q 842 765 843 760 q 839 778 840 771 q 834 789 836 785 q 831 800 832 793 q 828 804 828 800 q 823 808 827 807 q 819 815 823 815 q 818 818 818 817 q 815 819 818 819 l 815 821 l 814 821 l 812 821 q 811 819 811 821 q 803 817 807 819 l 798 811 q 778 796 787 804 q 770 787 774 792 q 761 778 766 782 q 746 756 754 767 q 730 733 737 745 q 672 637 699 687 q 644 587 656 612 q 619 536 632 562 q 595 485 607 511 q 572 432 583 458 q 548 380 560 407 q 524 328 536 354 q 502 274 513 300 q 478 221 490 249 q 456 168 467 195 q 435 115 446 142 q 424 89 429 103 q 414 61 418 75 q 403 35 408 49 q 393 8 397 21 l 393 7 q 372 -1 387 -9 q 361 17 359 1 q 365 31 363 24 q 368 46 366 39 q 371 61 370 54 q 374 75 372 68 q 379 106 376 91 q 385 138 382 122 q 389 168 387 153 q 393 199 390 183 q 395 229 395 214 q 397 258 395 244 l 397 321 q 393 351 395 336 q 389 379 392 366 q 383 394 386 387 q 378 407 380 400 q 361 428 370 422 q 359 429 361 428 q 357 431 357 429 l 357 432 l 355 432 l 351 433 l 349 433 l 347 433 q 346 436 347 435 l 345 436 l 343 436 l 340 436 l 339 436 l 335 436 l 332 433 l 328 433 q 322 432 323 433 l 319 432 q 315 429 318 429 q 306 423 311 427 q 294 415 300 419 q 283 404 288 410 q 273 395 279 399 q 264 382 269 388 q 256 370 260 376 q 248 357 253 363 q 240 345 243 351 q 233 331 236 338 q 224 317 229 325 q 217 303 221 310 q 211 290 214 297 q 199 264 204 278 q 186 236 193 250 q 175 207 179 220 q 164 178 171 193 q 154 149 159 162 q 143 121 150 136 q 133 92 138 105 q 123 62 129 78 l 115 33 l 111 20 q 109 11 110 14 q 107 4 107 7 q 93 -15 104 -8 q 69 -18 81 -21 q 47 7 50 -12 l 47 12 l 45 17 l 45 25 q 43 33 43 28 q 40 41 43 37 q 39 57 40 50 q 39 75 39 65 q 35 108 36 91 q 32 142 35 125 l 32 208 q 35 241 35 224 q 36 275 35 258 q 41 308 39 291 q 45 340 43 325 q 51 373 47 357 q 60 407 54 389 q 77 471 66 441 q 86 502 81 486 q 98 533 92 518 q 114 566 105 551 l 119 579 q 124 588 122 585 q 127 595 126 591 q 145 624 136 610 q 164 653 154 637 q 183 681 174 667 q 203 707 192 694 q 225 731 214 719 q 249 754 237 743 q 275 777 261 766 q 301 799 289 787 l 315 807 q 319 810 318 808 q 322 812 319 811 l 328 817 q 337 821 333 819 q 343 825 340 823 l 357 833 q 372 842 363 840 l 378 846 q 386 850 382 846 q 401 856 394 852 q 415 863 408 860 q 424 866 420 865 q 432 869 428 867 l 447 875 q 454 878 450 878 q 461 882 458 879 l 478 886 q 482 884 482 886 q 481 879 482 880 l 465 871 l 460 869 q 452 865 456 865 l 439 857 q 434 854 436 854 q 431 852 432 854 l 424 848 q 411 840 417 843 q 397 832 404 836 q 390 828 393 828 l 385 823 q 370 812 374 817 l 357 804 q 345 794 349 796 l 339 787 q 332 783 336 787 l 322 774 q 299 752 310 763 q 277 729 288 741 q 256 704 267 717 q 236 679 245 692 q 220 654 229 667 q 203 628 211 642 q 189 599 196 612 q 174 571 182 586 q 161 543 167 557 q 151 515 155 529 q 142 485 146 500 q 132 454 138 469 q 118 395 124 425 q 113 363 115 379 q 107 332 110 347 q 104 300 106 316 q 102 269 103 285 q 99 238 99 254 q 98 207 98 222 q 98 153 97 179 q 102 160 101 157 q 106 170 103 164 q 118 199 111 182 q 132 226 125 212 q 147 254 139 240 q 176 309 159 283 q 194 337 186 324 q 211 363 201 350 q 230 388 220 375 q 252 412 240 401 q 264 425 258 419 q 277 436 269 431 q 290 445 283 440 q 306 453 297 450 q 309 454 306 453 l 310 454 l 314 457 q 319 458 317 457 q 323 458 321 458 l 328 458 q 330 460 330 458 q 332 461 330 461 l 336 461 l 339 461 l 340 461 l 343 461 l 345 461 q 347 458 345 458 l 351 458 q 355 457 355 458 l 361 457 l 366 454 q 370 450 368 453 l 372 450 l 374 449 q 375 447 374 448 q 378 446 376 446 q 399 416 390 433 q 410 386 406 399 q 412 370 411 378 q 415 354 414 363 q 416 337 415 345 q 418 321 418 329 q 418 258 419 289 q 418 227 418 243 q 415 196 418 211 q 414 182 415 186 q 424 210 418 195 q 435 237 429 224 q 453 293 444 265 q 472 349 463 321 q 493 402 483 375 q 514 457 503 429 q 537 511 525 484 q 559 566 549 538 q 585 618 572 592 q 610 669 597 644 q 638 722 623 696 q 668 774 653 749 q 684 799 675 786 q 703 823 693 811 q 714 836 708 830 q 724 848 720 842 q 736 861 730 855 q 749 871 742 867 q 758 876 754 873 q 765 882 761 879 q 775 887 770 884 q 785 892 779 890 q 797 895 791 895 q 810 899 803 896 l 814 899 l 815 899 l 818 899 l 819 899 l 822 896 l 831 896 q 834 895 832 896 q 839 895 836 895 q 851 888 846 892 q 861 882 857 885 q 871 874 867 879 q 878 865 875 869 q 885 858 883 863 q 890 848 888 852 q 895 842 895 844 q 899 833 899 835 q 911 803 908 820 q 920 771 918 785 q 927 741 925 755 q 932 711 929 726 q 939 652 937 681 q 943 591 940 623 q 945 532 945 562 q 945 475 945 503 q 944 416 945 446 q 943 358 943 386 q 939 300 941 329 q 935 241 937 272 q 933 218 935 229 q 932 195 932 207 l 939 211 l 957 258 l 977 307 l 994 354 q 1004 377 1000 365 q 1014 403 1008 390 q 1018 403 1014 403 z "},"@":{"ha":686,"x_min":-53,"x_max":755,"o":"m 755 456 q 747 396 751 424 q 734 339 742 368 q 722 283 728 311 q 705 228 715 256 q 667 127 690 175 q 655 105 661 117 q 643 86 650 94 q 614 47 629 66 q 580 23 598 32 q 546 14 562 14 l 538 14 l 526 14 l 522 14 l 521 14 l 518 14 l 514 20 l 513 20 l 510 20 l 504 22 l 501 22 l 497 22 q 494 29 496 26 q 489 36 492 32 l 484 39 q 481 42 481 39 q 479 45 481 45 l 475 53 q 472 54 472 53 q 471 56 471 54 q 455 84 461 68 q 443 119 449 100 q 434 150 439 135 q 427 180 429 165 q 421 213 424 197 q 416 244 419 228 q 415 254 416 251 q 414 261 414 257 l 412 278 q 411 293 412 286 q 410 311 410 300 q 406 374 407 343 q 401 436 404 404 q 400 467 400 452 q 400 497 400 482 l 400 561 l 400 589 l 400 623 l 400 681 q 401 711 401 698 q 401 739 401 724 q 401 733 401 736 q 400 728 400 730 l 371 597 q 356 533 364 566 q 342 469 349 501 q 334 437 339 452 q 326 406 329 422 q 319 373 323 390 q 313 339 315 355 q 297 276 304 307 q 279 214 289 245 q 272 183 277 198 q 262 153 267 168 q 253 121 257 136 q 243 89 249 106 q 221 31 233 57 q 213 16 218 22 q 205 3 208 9 q 184 -22 197 -9 q 180 -28 183 -22 l 175 -28 q 167 -31 171 -31 l 163 -31 l 160 -31 l 158 -31 l 155 -31 l 154 -28 l 150 -28 l 147 -28 q 144 -25 146 -28 q 142 -22 143 -22 q 138 -21 139 -22 q 135 -20 138 -20 q 100 39 111 3 q 96 50 97 45 q 93 61 96 54 q 87 78 90 66 q 84 97 85 86 q 81 119 83 107 q 75 157 78 139 q 71 195 72 175 q 66 270 68 232 q 64 345 64 307 q 65 415 64 378 q 68 489 66 452 l 66 481 l 54 447 q 48 429 52 439 q 41 411 45 419 l 29 378 l 17 345 q 11 325 14 334 q 4 306 7 317 q -2 291 1 298 q -8 272 -5 283 q -15 255 -11 264 q -21 239 -18 245 q -33 204 -28 219 q -46 170 -39 189 l -53 170 l -53 178 q -45 217 -50 199 q -36 256 -40 236 q -31 275 -33 267 q -28 294 -29 283 q -22 314 -25 302 q -17 336 -20 325 q -13 354 -16 345 q -8 372 -11 364 l 0 411 l 9 447 q 15 466 12 458 q 18 486 17 475 l 29 528 l 39 564 l 47 603 l 58 639 l 68 677 l 79 714 l 87 753 q 93 771 90 761 q 97 789 96 781 q 115 816 104 808 q 138 811 126 823 q 149 784 144 800 q 151 753 154 768 l 151 747 l 150 730 l 147 714 l 146 681 q 142 646 143 661 q 139 611 142 631 q 136 542 138 575 q 131 472 134 509 q 129 408 130 440 q 126 339 129 375 l 126 272 l 126 205 q 129 175 129 190 q 131 147 129 160 q 134 133 134 139 q 135 119 134 126 q 136 113 135 115 q 138 106 138 110 q 139 100 139 103 q 139 94 139 97 q 142 87 142 90 q 143 81 142 85 l 146 78 l 146 75 q 147 72 146 73 q 151 66 150 69 q 154 61 151 64 l 155 56 q 160 53 158 56 l 163 53 l 164 53 l 163 53 l 164 53 l 167 53 l 167 47 l 168 47 l 171 47 l 171 52 l 172 53 q 184 61 178 53 q 191 69 187 64 q 197 78 195 74 q 209 98 204 86 q 221 122 214 110 q 241 179 232 151 q 260 236 250 207 q 293 361 278 298 q 299 392 296 376 q 309 422 302 407 q 315 454 311 439 q 321 489 318 469 q 333 552 328 521 q 346 619 339 583 q 357 685 353 652 q 367 753 361 717 q 378 820 374 786 q 387 886 382 854 q 396 954 391 920 q 406 1022 401 989 l 443 1197 q 457 1235 446 1222 q 484 1239 468 1247 q 502 1212 494 1232 q 505 1166 509 1192 l 504 1164 l 500 1105 q 498 1078 500 1093 q 497 1047 497 1063 q 486 922 489 985 q 479 794 482 860 q 478 734 479 762 q 476 677 476 705 l 475 619 l 475 561 q 473 530 475 544 q 475 503 472 515 l 475 472 l 475 444 q 479 330 475 389 q 479 317 479 323 q 481 302 479 311 l 481 289 q 482 283 481 286 q 484 278 484 281 q 486 253 485 266 q 489 228 488 240 q 497 181 492 203 q 510 147 503 160 q 516 138 513 140 q 522 131 519 135 l 525 131 l 522 131 l 525 131 l 529 127 l 530 127 l 534 127 q 536 126 534 126 q 539 122 538 125 l 546 122 q 558 123 553 122 q 571 127 564 123 q 593 136 585 127 q 605 146 600 143 q 618 161 611 150 q 629 174 623 168 q 642 189 635 180 q 662 224 652 206 q 681 264 671 243 q 699 311 690 288 q 717 355 708 335 q 726 380 721 368 q 733 406 730 393 q 741 433 737 418 q 747 461 745 449 q 754 461 750 464 l 755 456 z "},"A":{"ha":785,"x_min":-35,"x_max":832,"o":"m 828 478 q 832 469 832 478 q 831 467 832 468 l 829 467 l 828 467 l 828 461 l 823 461 q 812 444 818 456 q 799 405 806 429 q 782 345 791 380 q 763 270 774 311 q 742 178 753 228 q 735 152 739 165 q 729 125 732 138 l 715 69 q 708 42 713 57 q 699 11 703 28 q 693 -3 696 4 q 688 -17 690 -9 q 687 -21 688 -20 q 686 -24 686 -22 l 686 -25 l 682 -33 l 677 -41 l 675 -47 q 671 -50 673 -50 l 669 -56 q 665 -58 669 -58 l 665 -64 l 663 -64 l 661 -66 l 659 -66 l 654 -72 l 653 -72 q 648 -75 650 -75 l 646 -75 l 644 -75 l 642 -75 l 640 -75 l 632 -75 l 628 -75 q 624 -72 625 -73 q 619 -67 621 -68 q 615 -64 616 -66 l 611 -56 q 608 -53 608 -56 l 608 -50 q 605 -44 606 -47 q 603 -39 604 -41 l 603 -33 l 600 -31 l 600 -25 l 599 -22 l 599 -14 l 596 -8 l 596 -5 l 596 3 q 595 15 595 9 q 595 28 595 21 l 595 53 q 595 75 595 64 q 596 94 595 86 q 597 132 596 114 q 600 170 599 150 q 604 241 604 207 q 607 259 607 250 q 607 278 607 269 l 607 311 l 607 342 q 606 345 607 343 q 606 349 606 346 q 604 353 604 351 l 603 353 l 600 353 l 591 353 q 578 345 586 353 q 545 317 564 335 q 529 297 536 306 q 511 275 521 288 q 494 252 503 264 q 478 228 485 240 q 460 200 469 212 q 441 175 452 187 q 433 162 437 168 q 424 150 428 157 q 414 135 418 143 q 403 119 410 126 q 397 114 400 117 q 392 109 395 111 q 386 101 389 104 q 378 94 382 98 l 374 94 q 370 92 371 92 l 367 92 l 366 92 l 363 92 l 361 92 q 360 90 361 90 q 359 87 359 89 l 359 86 q 358 86 358 85 q 355 86 357 85 q 354 92 354 86 l 350 92 q 346 94 346 92 q 340 100 342 94 q 338 101 338 100 q 336 103 338 103 l 332 111 q 330 116 332 115 q 329 119 329 117 q 328 124 329 123 q 328 127 328 125 q 325 136 328 136 l 325 144 l 325 150 l 325 153 l 325 161 q 328 178 325 175 q 328 184 328 182 q 329 195 328 187 q 330 207 329 201 q 334 216 332 212 q 338 239 336 229 q 342 261 340 249 q 351 304 347 285 q 363 345 355 323 q 372 383 368 364 q 382 425 376 401 q 387 444 385 433 q 392 467 389 454 q 397 485 395 475 q 400 503 399 494 q 428 669 417 589 q 431 713 431 693 q 432 753 432 733 q 432 772 432 764 q 429 791 432 781 q 428 809 429 800 q 424 825 427 818 q 418 835 421 832 q 411 842 415 838 q 396 844 407 844 l 395 844 l 392 844 l 387 844 l 382 842 l 378 842 q 367 836 371 842 q 363 835 366 836 q 358 833 361 833 q 292 761 322 810 q 262 718 276 741 q 236 669 249 694 q 209 620 220 644 q 186 567 197 595 q 174 542 179 555 q 163 517 170 529 q 158 504 160 510 q 153 492 155 498 q 147 479 150 485 q 142 467 144 473 q 103 366 122 412 q 69 275 85 319 q 41 189 54 227 q 17 119 28 151 q -2 62 6 87 q -17 20 -9 37 q -29 -17 -24 -1 q -32 -22 -29 -17 q -33 -22 -33 -24 q -35 -14 -35 -17 l -35 -9 q -33 0 -35 -4 q -32 11 -33 3 q -29 28 -31 20 q -22 79 -26 52 q -9 144 -17 107 q 7 225 -3 182 q 29 319 17 269 q 58 425 41 370 q 94 536 74 479 q 114 593 104 566 q 138 650 125 621 q 164 707 150 677 q 195 761 179 736 q 228 811 208 786 q 265 852 246 836 q 307 886 283 873 q 329 898 318 893 q 350 903 339 903 q 363 908 354 908 l 370 908 l 375 908 l 379 908 l 386 908 l 392 908 l 395 908 l 399 908 q 411 901 406 904 q 424 892 416 899 q 430 883 427 888 q 436 875 433 878 q 439 863 437 868 q 444 850 441 857 q 450 825 447 838 q 453 800 453 812 q 454 777 454 789 q 454 753 454 765 q 452 706 454 728 q 449 661 450 685 q 438 573 444 616 q 425 486 432 530 q 422 467 424 478 q 419 444 421 456 q 414 422 416 432 q 411 400 412 412 q 405 357 408 376 q 399 317 401 338 q 393 279 396 297 q 387 244 390 261 q 395 257 390 251 q 403 269 400 262 q 437 330 420 301 q 471 386 454 358 q 489 414 480 398 q 509 441 498 429 q 531 463 519 454 q 553 484 542 472 q 566 493 559 490 q 579 500 572 496 q 585 501 582 500 q 591 503 589 503 l 600 503 l 603 503 l 604 503 l 607 503 l 608 503 l 611 503 l 612 503 l 615 503 l 616 503 l 621 503 q 624 501 623 503 q 625 500 624 500 q 636 493 631 496 q 646 484 642 490 q 655 470 651 477 q 663 453 660 464 q 668 438 665 445 q 673 419 671 431 q 677 389 676 404 q 682 358 679 374 q 683 333 682 346 q 682 309 684 321 q 681 264 682 285 q 677 225 679 244 q 674 183 675 201 q 671 144 673 164 q 670 137 671 142 q 669 127 669 132 q 677 152 673 140 q 686 175 681 164 q 694 200 690 187 q 703 225 697 212 q 732 308 718 270 q 758 378 746 346 q 782 432 770 410 q 804 467 794 454 q 821 478 814 477 l 828 478 m 378 158 l 378 161 l 378 158 m 608 353 l 607 353 l 608 353 m 633 50 l 636 50 l 633 50 z "},"B":{"ha":739,"x_min":-57,"x_max":803,"o":"m 802 392 q 803 389 802 392 l 803 386 q 803 380 803 383 q 802 378 803 378 l 799 378 q 798 375 799 376 q 793 370 795 375 q 789 358 791 366 q 776 328 782 347 q 760 283 770 309 q 714 158 740 233 q 708 139 711 147 q 701 119 704 131 q 692 101 696 111 q 685 78 689 90 q 677 59 682 70 q 668 36 672 49 q 659 17 663 28 q 648 -5 654 7 l 639 -25 q 631 -37 636 -32 q 624 -47 627 -43 q 619 -53 621 -50 q 614 -58 616 -56 l 611 -64 l 607 -64 q 606 -66 607 -65 l 603 -66 q 602 -72 602 -66 l 599 -72 l 597 -72 l 595 -72 l 593 -72 l 590 -72 l 586 -72 l 585 -72 l 581 -72 q 578 -69 578 -72 q 576 -66 578 -66 q 572 -65 574 -66 q 568 -64 571 -64 l 561 -50 q 560 -47 561 -47 q 557 -41 559 -46 q 556 -36 557 -39 q 555 -31 555 -33 q 553 -25 553 -31 l 553 -22 q 551 -20 551 -22 l 551 -17 q 551 -9 551 -10 q 549 -5 551 -8 l 549 0 l 549 3 l 549 33 l 549 50 q 551 68 551 58 q 553 86 551 78 q 556 118 555 103 q 559 150 557 134 q 576 275 565 212 q 583 339 579 307 q 593 403 587 371 q 600 468 595 435 q 607 533 604 501 q 612 598 610 566 q 614 667 614 631 q 612 728 614 699 q 606 778 610 757 q 600 801 603 790 q 590 819 596 811 q 566 844 582 831 l 557 844 q 556 847 557 847 q 555 848 555 847 l 555 850 l 551 850 l 543 850 l 534 850 l 526 850 l 515 850 q 512 847 514 850 q 507 844 510 844 q 498 842 503 844 l 490 842 q 487 837 489 838 q 482 833 485 836 q 473 828 477 833 q 470 827 472 828 q 465 825 468 825 q 458 818 461 821 q 449 811 454 815 q 441 804 445 808 q 432 794 437 799 q 401 762 416 779 q 372 725 386 746 q 344 683 357 705 q 319 636 332 660 q 295 592 307 615 q 269 545 282 568 q 247 501 258 524 q 224 458 236 478 q 202 415 213 435 q 180 375 192 396 q 158 337 170 355 q 136 302 147 319 q 97 233 115 262 q 87 218 92 227 q 78 203 83 210 q 71 188 75 195 q 61 170 66 180 q 30 118 44 142 q 1 75 16 94 q -20 37 -11 52 q -36 11 -29 22 q -44 1 -41 4 q -49 -5 -46 -1 l -52 -8 q -57 -8 -54 -19 l -57 0 l -57 1 q -56 4 -57 3 q -56 8 -56 5 q -47 33 -54 9 q -36 66 -42 45 q -20 117 -29 87 q 2 172 -10 142 q 28 236 14 203 q 35 255 31 247 q 43 275 40 264 l 52 292 q 55 301 53 298 q 60 311 57 304 q 97 386 73 349 q 116 429 106 410 q 136 469 125 449 q 160 510 147 489 q 184 550 172 530 q 210 590 197 571 q 239 628 224 608 q 267 663 252 645 q 297 700 282 681 q 329 733 313 715 q 359 766 345 750 q 391 801 375 786 q 424 833 407 817 q 456 867 439 853 q 493 895 473 882 q 496 897 494 895 q 501 900 498 900 q 506 901 504 900 q 511 903 509 903 q 519 908 514 908 q 530 911 524 911 q 541 917 534 916 l 551 920 l 553 920 l 555 920 l 559 920 l 572 920 q 593 914 582 920 q 615 900 604 908 q 635 869 625 888 q 644 851 639 861 q 652 833 648 842 q 657 813 654 823 q 661 791 660 804 q 666 772 664 781 q 669 753 668 764 q 674 710 672 732 q 676 669 676 689 q 677 630 677 648 q 677 591 677 611 q 676 554 676 572 q 673 517 676 536 q 669 443 672 479 q 664 370 667 406 q 656 302 661 336 q 648 236 652 268 q 641 183 644 208 q 635 134 637 158 q 644 153 637 147 q 662 188 654 172 q 681 220 671 204 q 711 274 696 249 q 739 319 726 300 q 762 358 751 343 q 781 383 772 372 q 788 389 785 386 q 794 392 791 392 l 798 392 l 799 392 l 802 392 m 589 61 l 586 61 l 589 61 m 586 61 l 585 61 l 586 61 z "},"C":{"ha":713,"x_min":21,"x_max":775,"o":"m 772 257 q 755 221 766 236 q 747 204 751 212 q 737 186 742 196 q 717 151 728 168 q 696 119 707 135 q 671 86 684 100 q 658 71 664 78 q 643 57 652 64 q 636 48 640 52 q 629 40 632 45 q 620 34 624 37 q 612 28 616 31 q 604 21 608 24 q 600 17 602 18 q 596 12 597 16 q 586 7 591 9 q 575 3 582 5 q 565 -3 570 0 q 554 -8 561 -5 q 540 -11 547 -9 q 526 -12 533 -12 q 512 -11 519 -12 q 497 -8 504 -9 q 494 -5 496 -5 q 489 -4 492 -5 q 486 -3 488 -4 q 484 -1 485 -1 q 480 1 481 0 q 476 3 479 3 l 476 4 l 475 4 l 472 4 l 472 7 l 471 8 q 467 12 468 11 q 464 16 467 12 l 458 21 q 457 24 458 24 q 454 28 456 25 q 453 31 454 29 q 452 33 452 32 q 447 46 449 40 q 443 57 446 52 q 437 79 440 69 q 435 100 435 89 q 432 121 433 111 q 431 142 431 131 l 431 183 q 433 223 431 203 q 437 262 435 243 q 441 303 439 283 q 447 342 444 322 l 452 361 l 456 379 q 459 400 458 390 q 463 419 460 410 q 471 457 467 439 q 479 496 476 476 l 488 533 l 496 574 q 504 612 500 593 q 513 650 507 631 q 515 668 514 659 q 518 688 517 677 q 522 708 521 697 q 525 728 522 718 l 529 746 l 533 765 q 536 785 534 776 q 539 804 538 794 q 542 827 542 820 q 534 828 542 833 q 515 807 525 817 q 496 787 505 798 q 454 746 473 768 q 445 737 449 742 q 435 725 440 732 l 414 704 l 396 686 l 376 665 q 358 643 367 654 q 339 621 349 632 q 301 579 319 601 q 284 558 292 568 q 267 536 277 547 q 251 513 258 524 q 233 490 243 501 q 217 468 225 479 q 201 444 210 456 q 188 420 195 432 q 172 396 180 408 l 167 383 l 160 374 q 157 368 159 371 q 154 361 155 364 q 151 355 151 358 q 147 349 150 351 q 135 324 140 336 q 125 298 129 311 q 106 249 111 271 q 92 196 99 227 q 89 183 92 188 l 89 178 l 89 175 l 87 171 l 87 158 l 85 146 l 85 142 l 85 140 l 85 138 l 85 132 l 85 119 l 85 96 q 87 85 87 89 q 89 75 87 81 q 92 64 92 68 q 96 57 93 60 q 100 53 97 53 q 102 49 100 50 q 106 45 102 45 l 113 37 q 116 37 114 37 q 121 36 118 36 q 129 33 123 33 q 139 33 135 33 q 150 35 144 33 q 163 37 155 36 q 167 39 164 37 q 172 40 170 40 l 179 41 l 180 45 l 184 45 l 192 49 l 196 50 q 202 53 199 53 q 208 54 205 53 q 215 58 211 57 q 221 61 218 58 q 231 66 224 64 l 243 74 q 249 77 245 75 q 254 79 252 78 q 277 94 267 89 q 288 103 281 96 q 294 106 290 104 q 300 109 297 107 l 310 117 l 321 125 q 332 133 328 127 q 343 140 336 138 l 346 140 l 347 140 q 347 136 351 136 q 338 124 343 130 q 329 115 334 119 q 319 104 323 110 q 310 94 315 98 q 301 86 307 89 l 296 79 l 292 75 q 281 66 286 71 q 271 57 275 61 q 265 52 268 54 q 260 49 262 50 q 255 44 257 46 q 250 40 253 41 q 237 32 243 33 q 227 24 233 26 q 220 19 224 21 q 214 16 216 17 l 208 11 l 201 8 l 200 7 l 196 4 l 189 0 q 183 -3 186 -1 q 175 -4 179 -4 q 146 -14 159 -12 q 110 -14 129 -18 l 106 -14 l 102 -12 l 100 -12 l 97 -12 l 92 -9 q 84 -6 89 -8 q 75 -1 79 -4 q 67 5 73 1 q 60 11 62 8 q 54 20 56 15 q 51 22 52 21 q 47 25 50 24 q 33 57 39 41 q 25 86 28 71 q 21 117 21 100 l 21 132 l 21 140 l 21 144 l 21 146 l 21 149 l 21 146 l 21 161 l 21 178 l 21 182 l 21 183 l 21 192 q 22 201 21 197 q 22 208 22 204 q 35 269 26 236 q 54 328 41 297 q 57 334 56 330 q 60 342 58 338 l 64 354 q 79 383 69 371 q 82 390 81 386 q 85 396 83 393 q 88 402 87 399 q 92 408 89 406 l 100 424 l 106 436 q 121 461 114 448 q 139 486 129 473 q 156 510 147 498 q 172 533 165 522 q 210 579 191 558 q 249 625 229 603 q 289 667 269 647 l 330 708 q 341 718 336 713 q 351 729 347 722 q 363 739 358 734 q 372 749 368 743 q 384 758 379 753 q 396 766 389 762 q 407 776 403 772 q 418 786 411 781 q 440 805 429 795 q 464 823 452 814 q 486 841 475 833 q 510 859 497 848 q 522 866 517 861 q 533 875 526 871 q 546 884 540 880 q 558 892 551 888 q 571 896 565 897 q 581 888 578 895 q 585 875 585 884 q 579 856 582 865 q 575 838 576 847 q 570 818 572 828 q 564 799 567 808 q 560 780 562 789 q 555 761 558 771 l 551 742 l 547 724 q 544 704 546 714 q 539 684 542 694 q 536 665 538 674 q 533 646 534 656 q 527 607 530 626 q 521 570 524 589 q 519 550 521 560 q 517 529 518 539 q 514 510 514 519 q 513 490 514 501 q 509 452 510 471 q 505 412 509 433 q 505 394 505 403 q 504 374 505 385 l 501 336 q 500 297 501 315 q 500 258 500 278 q 497 220 497 239 q 496 182 497 201 q 496 144 496 162 q 497 107 496 126 q 500 90 500 99 q 504 74 501 81 q 505 67 504 71 q 509 61 505 62 l 509 57 q 510 54 510 56 l 510 53 l 513 53 q 512 52 514 50 q 513 53 510 53 l 514 50 l 517 50 q 518 49 517 49 q 522 47 521 49 q 526 46 524 46 q 551 53 537 46 q 560 56 557 54 q 567 58 564 57 q 575 62 568 62 q 578 66 576 65 q 581 69 579 66 q 610 90 597 77 q 638 115 625 102 q 667 142 652 127 q 679 157 673 150 q 692 171 685 164 q 704 185 699 178 q 717 200 710 193 q 743 231 730 216 q 766 261 755 245 q 772 261 772 261 q 772 257 775 258 z "},"D":{"ha":686,"x_min":-53,"x_max":755,"o":"m 755 456 q 747 396 751 424 q 734 339 742 368 q 722 283 728 311 q 705 228 715 256 q 667 127 690 175 q 655 105 661 117 q 643 86 650 94 q 614 47 629 66 q 580 23 598 32 q 546 14 562 14 l 538 14 l 526 14 l 522 14 l 521 14 l 518 14 l 514 20 l 513 20 l 510 20 l 504 22 l 501 22 l 497 22 q 494 29 496 26 q 489 36 492 32 l 484 39 q 481 42 481 39 q 479 45 481 45 l 475 53 q 472 54 472 53 q 471 56 471 54 q 455 84 461 68 q 443 119 449 100 q 434 150 439 135 q 427 180 429 165 q 421 213 424 197 q 416 244 419 228 q 415 254 416 251 q 414 261 414 257 l 412 278 q 411 293 412 286 q 410 311 410 300 q 406 374 407 343 q 401 436 404 404 q 400 467 400 452 q 400 497 400 482 l 400 561 l 400 589 l 400 623 l 400 681 q 401 711 401 698 q 401 739 401 724 q 401 733 401 736 q 400 728 400 730 l 371 597 q 356 533 364 566 q 342 469 349 501 q 334 437 339 452 q 326 406 329 422 q 319 373 323 390 q 313 339 315 355 q 297 276 304 307 q 279 214 289 245 q 272 183 277 198 q 262 153 267 168 q 253 121 257 136 q 243 89 249 106 q 221 31 233 57 q 213 16 218 22 q 205 3 208 9 q 184 -22 197 -9 q 180 -28 183 -22 l 175 -28 q 167 -31 171 -31 l 163 -31 l 160 -31 l 158 -31 l 155 -31 l 154 -28 l 150 -28 l 147 -28 q 144 -25 146 -28 q 142 -22 143 -22 q 138 -21 139 -22 q 135 -20 138 -20 q 100 39 111 3 q 96 50 97 45 q 93 61 96 54 q 87 78 90 66 q 84 97 85 86 q 81 119 83 107 q 75 157 78 139 q 71 195 72 175 q 66 270 68 232 q 64 345 64 307 q 65 415 64 378 q 68 489 66 452 l 66 481 l 54 447 q 48 429 52 439 q 41 411 45 419 l 29 378 l 17 345 q 11 325 14 334 q 4 306 7 317 q -2 291 1 298 q -8 272 -5 283 q -15 255 -11 264 q -21 239 -18 245 q -33 204 -28 219 q -46 170 -39 189 l -53 170 l -53 178 q -45 217 -50 199 q -36 256 -40 236 q -31 275 -33 267 q -28 294 -29 283 q -22 314 -25 302 q -17 336 -20 325 q -13 354 -16 345 q -8 372 -11 364 l 0 411 l 9 447 q 15 466 12 458 q 18 486 17 475 l 29 528 l 39 564 l 47 603 l 58 639 l 68 677 l 79 714 l 87 753 q 93 771 90 761 q 97 789 96 781 q 115 816 104 808 q 138 811 126 823 q 149 784 144 800 q 151 753 154 768 l 151 747 l 150 730 l 147 714 l 146 681 q 142 646 143 661 q 139 611 142 631 q 136 542 138 575 q 131 472 134 509 q 129 408 130 440 q 126 339 129 375 l 126 272 l 126 205 q 129 175 129 190 q 131 147 129 160 q 134 133 134 139 q 135 119 134 126 q 136 113 135 115 q 138 106 138 110 q 139 100 139 103 q 139 94 139 97 q 142 87 142 90 q 143 81 142 85 l 146 78 l 146 75 q 147 72 146 73 q 151 66 150 69 q 154 61 151 64 l 155 56 q 160 53 158 56 l 163 53 l 164 53 l 163 53 l 164 53 l 167 53 l 167 47 l 168 47 l 171 47 l 171 52 l 172 53 q 184 61 178 53 q 191 69 187 64 q 197 78 195 74 q 209 98 204 86 q 221 122 214 110 q 241 179 232 151 q 260 236 250 207 q 293 361 278 298 q 299 392 296 376 q 309 422 302 407 q 315 454 311 439 q 321 489 318 469 q 333 552 328 521 q 346 619 339 583 q 357 685 353 652 q 367 753 361 717 q 378 820 374 786 q 387 886 382 854 q 396 954 391 920 q 406 1022 401 989 l 443 1197 q 457 1235 446 1222 q 484 1239 468 1247 q 502 1212 494 1232 q 505 1166 509 1192 l 504 1164 l 500 1105 q 498 1078 500 1093 q 497 1047 497 1063 q 486 922 489 985 q 479 794 482 860 q 478 734 479 762 q 476 677 476 705 l 475 619 l 475 561 q 473 530 475 544 q 475 503 472 515 l 475 472 l 475 444 q 479 330 475 389 q 479 317 479 323 q 481 302 479 311 l 481 289 q 482 283 481 286 q 484 278 484 281 q 486 253 485 266 q 489 228 488 240 q 497 181 492 203 q 510 147 503 160 q 516 138 513 140 q 522 131 519 135 l 525 131 l 522 131 l 525 131 l 529 127 l 530 127 l 534 127 q 536 126 534 126 q 539 122 538 125 l 546 122 q 558 123 553 122 q 571 127 564 123 q 593 136 585 127 q 605 146 600 143 q 618 161 611 150 q 629 174 623 168 q 642 189 635 180 q 662 224 652 206 q 681 264 671 243 q 699 311 690 288 q 717 355 708 335 q 726 380 721 368 q 733 406 730 393 q 741 433 737 418 q 747 461 745 449 q 754 461 750 464 l 755 456 z "},"E":{"ha":439,"x_min":28,"x_max":545,"o":"m 541 372 q 545 368 545 372 l 542 366 q 538 363 541 364 q 532 360 535 361 q 525 357 529 358 q 504 349 515 354 q 478 336 493 343 q 444 321 463 330 q 404 306 425 313 q 359 285 382 296 q 311 261 336 273 l 286 249 q 273 242 279 246 q 258 236 267 239 q 250 231 256 233 q 244 207 248 220 q 237 182 240 195 q 231 144 235 162 q 220 107 227 126 q 207 69 216 87 q 187 32 201 52 q 181 23 184 28 q 174 14 178 18 q 165 4 171 8 q 153 -5 160 0 q 144 -8 147 -7 q 136 -9 140 -9 q 117 -11 130 -11 q 100 -7 106 -11 q 96 -5 96 -7 l 92 -3 q 89 -2 90 -3 q 86 -1 87 -1 q 74 8 79 4 q 65 18 69 12 l 62 20 l 61 22 l 58 26 l 57 28 l 54 28 l 54 31 l 50 35 l 46 40 q 45 41 45 40 l 45 45 l 40 52 q 37 56 40 53 l 36 61 q 33 68 33 64 l 32 74 q 29 81 29 77 q 28 86 29 85 l 28 94 l 28 107 l 28 111 l 28 114 l 28 119 q 29 125 29 122 q 32 135 29 129 q 50 176 37 159 q 79 210 62 196 q 83 212 82 211 q 86 215 83 214 q 94 222 89 222 q 97 226 96 224 q 100 228 98 228 q 105 231 102 231 q 109 235 107 232 q 139 255 124 245 q 170 273 154 264 q 200 288 185 281 q 229 301 215 294 q 238 304 235 302 q 244 307 241 306 q 247 321 245 314 q 250 335 249 328 q 255 371 253 355 q 257 407 257 387 q 260 442 258 425 q 262 476 261 458 q 266 510 265 493 q 269 543 267 528 q 273 574 271 559 q 278 606 275 590 q 283 635 281 621 q 288 664 285 648 q 308 765 298 721 q 328 843 318 810 q 334 872 330 859 q 340 893 338 885 q 343 900 342 897 q 345 905 345 903 q 345 907 345 907 q 346 909 346 908 l 346 911 q 350 914 346 913 q 353 909 353 914 l 353 905 q 354 890 354 903 q 357 870 357 884 q 357 839 357 856 l 357 760 q 353 710 354 736 q 349 656 351 684 q 345 625 346 640 q 342 595 345 610 q 338 564 340 581 q 332 532 335 547 q 324 500 329 516 q 315 468 319 484 q 306 433 310 450 q 296 399 301 416 q 285 365 289 382 q 275 330 281 347 q 272 321 274 325 q 271 315 271 318 q 278 319 273 318 q 288 322 283 319 q 341 338 315 332 q 390 349 367 345 q 432 358 412 355 q 469 364 452 361 q 499 368 486 367 q 521 370 511 370 q 536 372 528 372 l 541 372 m 212 191 q 217 203 215 197 q 221 215 220 208 q 214 211 218 212 q 207 207 210 210 q 179 191 191 200 q 154 172 167 182 q 142 162 147 167 q 132 153 136 158 q 129 151 130 151 q 125 149 127 151 q 121 143 125 144 q 119 142 119 143 q 117 139 119 140 q 114 136 117 139 l 113 135 q 100 114 104 123 q 98 94 98 107 l 98 90 l 98 89 l 100 87 l 100 86 l 100 85 q 101 82 100 82 q 103 81 103 82 l 103 78 l 104 77 q 107 72 104 74 l 107 69 l 109 69 l 109 68 l 111 65 l 113 64 l 113 61 l 115 61 q 118 57 117 58 q 121 53 119 56 q 123 52 122 52 l 125 52 l 125 49 q 130 52 127 52 q 134 53 132 52 q 139 58 136 56 q 144 64 142 61 q 156 77 151 71 q 165 90 160 83 q 174 106 170 98 q 183 122 179 114 q 198 156 191 139 q 212 191 205 174 z "},"F":{"ha":739,"x_min":-57,"x_max":803,"o":"m 802 392 q 803 389 802 392 l 803 386 q 803 380 803 383 q 802 378 803 378 l 799 378 q 798 375 799 376 q 793 370 795 375 q 789 358 791 366 q 776 328 782 347 q 760 283 770 309 q 714 158 740 233 q 708 139 711 147 q 701 119 704 131 q 692 101 696 111 q 685 78 689 90 q 677 59 682 70 q 668 36 672 49 q 659 17 663 28 q 648 -5 654 7 l 639 -25 q 631 -37 636 -32 q 624 -47 627 -43 q 619 -53 621 -50 q 614 -58 616 -56 l 611 -64 l 607 -64 q 606 -66 607 -65 l 603 -66 q 602 -72 602 -66 l 599 -72 l 597 -72 l 595 -72 l 593 -72 l 590 -72 l 586 -72 l 585 -72 l 581 -72 q 578 -69 578 -72 q 576 -66 578 -66 q 572 -65 574 -66 q 568 -64 571 -64 l 561 -50 q 560 -47 561 -47 q 557 -41 559 -46 q 556 -36 557 -39 q 555 -31 555 -33 q 553 -25 553 -31 l 553 -22 q 551 -20 551 -22 l 551 -17 q 551 -9 551 -10 q 549 -5 551 -8 l 549 0 l 549 3 l 549 33 l 549 50 q 551 68 551 58 q 553 86 551 78 q 556 118 555 103 q 559 150 557 134 q 576 275 565 212 q 583 339 579 307 q 593 403 587 371 q 600 468 595 435 q 607 533 604 501 q 612 598 610 566 q 614 667 614 631 q 612 728 614 699 q 606 778 610 757 q 600 801 603 790 q 590 819 596 811 q 566 844 582 831 l 557 844 q 556 847 557 847 q 555 848 555 847 l 555 850 l 551 850 l 543 850 l 534 850 l 526 850 l 515 850 q 512 847 514 850 q 507 844 510 844 q 498 842 503 844 l 490 842 q 487 837 489 838 q 482 833 485 836 q 473 828 477 833 q 470 827 472 828 q 465 825 468 825 q 458 818 461 821 q 449 811 454 815 q 441 804 445 808 q 432 794 437 799 q 401 762 416 779 q 372 725 386 746 q 344 683 357 705 q 319 636 332 660 q 295 592 307 615 q 269 545 282 568 q 247 501 258 524 q 224 458 236 478 q 202 415 213 435 q 180 375 192 396 q 158 337 170 355 q 136 302 147 319 q 97 233 115 262 q 87 218 92 227 q 78 203 83 210 q 71 188 75 195 q 61 170 66 180 q 30 118 44 142 q 1 75 16 94 q -20 37 -11 52 q -36 11 -29 22 q -44 1 -41 4 q -49 -5 -46 -1 l -52 -8 q -57 -8 -54 -19 l -57 0 l -57 1 q -56 4 -57 3 q -56 8 -56 5 q -47 33 -54 9 q -36 66 -42 45 q -20 117 -29 87 q 2 172 -10 142 q 28 236 14 203 q 35 255 31 247 q 43 275 40 264 l 52 292 q 55 301 53 298 q 60 311 57 304 q 97 386 73 349 q 116 429 106 410 q 136 469 125 449 q 160 510 147 489 q 184 550 172 530 q 210 590 197 571 q 239 628 224 608 q 267 663 252 645 q 297 700 282 681 q 329 733 313 715 q 359 766 345 750 q 391 801 375 786 q 424 833 407 817 q 456 867 439 853 q 493 895 473 882 q 496 897 494 895 q 501 900 498 900 q 506 901 504 900 q 511 903 509 903 q 519 908 514 908 q 530 911 524 911 q 541 917 534 916 l 551 920 l 553 920 l 555 920 l 559 920 l 572 920 q 593 914 582 920 q 615 900 604 908 q 635 869 625 888 q 644 851 639 861 q 652 833 648 842 q 657 813 654 823 q 661 791 660 804 q 666 772 664 781 q 669 753 668 764 q 674 710 672 732 q 676 669 676 689 q 677 630 677 648 q 677 591 677 611 q 676 554 676 572 q 673 517 676 536 q 669 443 672 479 q 664 370 667 406 q 656 302 661 336 q 648 236 652 268 q 641 183 644 208 q 635 134 637 158 q 644 153 637 147 q 662 188 654 172 q 681 220 671 204 q 711 274 696 249 q 739 319 726 300 q 762 358 751 343 q 781 383 772 372 q 788 389 785 386 q 794 392 791 392 l 798 392 l 799 392 l 802 392 m 589 61 l 586 61 l 589 61 m 586 61 l 585 61 l 586 61 z "},"G":{"ha":755,"x_min":-35,"x_max":779,"o":"m 40 12 q 40 20 36 15 l 40 12 m 92 12 q 92 8 94 11 l 92 12 m 779 586 l 779 575 q 773 508 779 541 q 757 441 766 475 q 735 380 747 410 q 708 321 724 351 q 678 264 694 292 q 644 208 661 236 q 608 155 626 182 q 571 104 590 129 q 531 55 551 79 q 488 7 510 31 l 484 7 q 484 11 479 11 q 515 66 499 39 q 546 121 530 93 q 576 176 562 149 q 604 232 590 204 q 617 259 611 245 q 629 288 623 273 q 642 316 636 303 q 654 345 647 329 q 665 374 660 360 q 673 403 671 387 q 676 410 675 406 q 679 416 677 414 l 684 432 l 688 446 q 689 453 688 448 q 690 461 690 458 q 697 489 694 475 q 703 519 700 504 q 704 547 704 533 q 704 575 704 561 q 679 679 704 633 q 648 720 665 704 q 607 753 631 736 l 595 758 q 589 762 592 761 q 583 765 586 762 l 579 765 q 578 766 579 766 l 570 771 l 561 774 l 558 774 l 561 774 l 558 774 l 557 775 q 503 787 528 786 q 478 789 490 790 q 450 786 465 787 q 400 766 428 781 q 355 735 376 753 q 313 694 334 717 q 294 670 303 682 q 275 646 285 659 q 260 620 269 633 q 244 595 252 607 q 229 567 236 579 q 212 541 221 554 q 200 512 205 525 q 187 484 195 498 q 165 425 175 454 q 146 366 155 395 q 129 304 136 335 q 115 241 122 273 q 110 213 113 228 q 104 182 107 197 q 100 150 104 166 q 96 119 100 133 q 94 88 94 104 q 92 57 94 72 q 91 44 92 50 q 90 33 90 39 q 92 12 90 20 q 90 14 90 12 l 90 16 l 90 11 l 90 7 l 92 8 l 92 7 l 90 0 l 90 -1 q 87 -5 90 -4 q 87 -14 96 -12 q 64 -14 78 -16 q 41 -8 50 -12 q 40 0 32 -4 l 40 3 l 40 4 l 40 7 l 41 8 q 41 9 41 9 q 40 11 40 9 l 40 12 l 41 12 l 41 16 l 41 20 l 40 20 q 39 26 40 22 q 37 32 37 29 q 36 44 36 39 q 33 57 36 50 q 32 70 32 64 q 32 82 32 75 l 29 96 l 28 109 q 25 133 25 121 q 24 158 25 146 q 22 184 24 170 q 21 211 21 199 q 21 236 21 223 q 24 261 21 249 q 24 287 24 275 q 25 313 24 300 q 25 325 25 319 q 28 338 25 330 q 28 352 28 346 q 29 366 28 358 q 31 378 29 372 q 33 390 32 383 l 33 403 l 37 415 l 37 424 l 40 429 l 41 441 q 43 448 41 444 q 45 454 45 452 q 46 460 46 457 q 49 467 46 464 l 50 479 q 53 486 53 482 l 54 492 l 57 498 l 58 504 l 61 517 q 68 539 65 528 q 74 562 71 551 l 75 575 q 78 586 78 579 q 79 599 79 590 l 79 608 q 82 621 79 616 l 79 628 l 79 632 l 79 637 l 79 642 q 79 647 79 644 q 78 653 78 650 q 74 664 75 660 q 69 673 72 668 l 66 677 l 62 682 l 57 688 q 37 700 46 699 q 17 708 31 705 l 11 711 l 4 713 q -1 715 0 713 l -8 715 q -21 717 -15 717 q -33 720 -26 717 q -35 724 -35 720 q -33 725 -35 725 q -18 728 -29 728 l -12 728 l -5 728 q 20 728 7 729 q 33 726 26 728 q 46 724 39 725 q 60 718 53 721 q 74 711 66 714 q 94 690 85 702 q 103 679 98 685 q 111 665 109 672 q 118 637 115 650 q 121 611 121 624 q 123 596 123 604 l 123 583 q 122 576 123 579 q 121 570 121 572 l 121 557 q 117 529 119 541 q 113 504 115 517 l 107 479 l 107 473 q 104 467 104 471 l 103 454 q 101 450 103 453 q 100 444 100 447 l 98 432 l 96 419 l 96 412 l 96 407 l 94 396 l 94 383 q 92 371 92 376 q 92 358 92 366 q 90 346 90 354 l 90 334 q 89 321 90 327 q 87 309 87 315 l 87 286 l 87 261 l 87 236 l 87 224 q 90 236 90 231 q 92 249 90 241 q 107 310 100 281 q 125 371 115 339 q 161 492 142 431 q 182 554 170 522 q 192 584 186 570 q 204 612 197 599 q 219 643 212 628 q 233 671 227 657 q 251 700 241 686 q 269 728 260 713 q 279 741 273 734 q 290 754 285 747 q 301 767 297 761 q 313 779 306 772 q 340 803 323 790 q 354 812 347 807 q 370 823 361 818 q 401 838 385 830 q 436 850 416 846 q 471 857 453 855 q 509 859 489 859 q 579 844 549 856 l 583 844 l 586 842 l 587 842 l 596 840 l 603 836 l 604 836 l 607 836 l 611 833 l 619 829 l 624 828 q 628 825 628 828 l 644 817 q 659 808 652 814 l 663 807 l 667 804 l 675 799 q 681 793 677 796 q 690 787 685 790 l 696 782 l 703 775 q 728 747 716 763 q 749 717 739 732 q 774 646 767 684 q 774 642 774 644 q 775 637 775 640 l 778 629 l 778 621 l 779 611 l 779 603 l 779 595 l 779 586 m 90 7 l 90 4 l 90 7 z "},"H":{"ha":989,"x_min":32,"x_max":1022,"o":"m 1018 403 q 1021 401 1019 403 q 1019 399 1022 400 q 1013 375 1017 388 q 1007 350 1010 363 l 994 300 l 982 250 l 968 203 l 953 153 l 940 103 l 926 54 l 911 4 q 882 -12 904 -16 q 868 -2 872 -9 q 864 12 864 5 l 864 16 q 867 73 865 43 q 869 129 868 102 q 871 188 869 159 q 872 244 872 216 q 873 302 873 273 q 873 358 873 330 q 873 417 873 389 q 872 473 873 446 q 871 531 872 503 q 868 587 869 559 q 863 644 865 615 q 856 700 860 672 q 844 753 852 725 q 842 765 843 760 q 839 778 840 771 q 834 789 836 785 q 831 800 832 793 q 828 804 828 800 q 823 808 827 807 q 819 815 823 815 q 818 818 818 817 q 815 819 818 819 l 815 821 l 814 821 l 812 821 q 811 819 811 821 q 803 817 807 819 l 798 811 q 778 796 787 804 q 770 787 774 792 q 761 778 766 782 q 746 756 754 767 q 730 733 737 745 q 672 637 699 687 q 644 587 656 612 q 619 536 632 562 q 595 485 607 511 q 572 432 583 458 q 548 380 560 407 q 524 328 536 354 q 502 274 513 300 q 478 221 490 249 q 456 168 467 195 q 435 115 446 142 q 424 89 429 103 q 414 61 418 75 q 403 35 408 49 q 393 8 397 21 l 393 7 q 372 -1 387 -9 q 361 17 359 1 q 365 31 363 24 q 368 46 366 39 q 371 61 370 54 q 374 75 372 68 q 379 106 376 91 q 385 138 382 122 q 389 168 387 153 q 393 199 390 183 q 395 229 395 214 q 397 258 395 244 l 397 321 q 393 351 395 336 q 389 379 392 366 q 383 394 386 387 q 378 407 380 400 q 361 428 370 422 q 359 429 361 428 q 357 431 357 429 l 357 432 l 355 432 l 351 433 l 349 433 l 347 433 q 346 436 347 435 l 345 436 l 343 436 l 340 436 l 339 436 l 335 436 l 332 433 l 328 433 q 322 432 323 433 l 319 432 q 315 429 318 429 q 306 423 311 427 q 294 415 300 419 q 283 404 288 410 q 273 395 279 399 q 264 382 269 388 q 256 370 260 376 q 248 357 253 363 q 240 345 243 351 q 233 331 236 338 q 224 317 229 325 q 217 303 221 310 q 211 290 214 297 q 199 264 204 278 q 186 236 193 250 q 175 207 179 220 q 164 178 171 193 q 154 149 159 162 q 143 121 150 136 q 133 92 138 105 q 123 62 129 78 l 115 33 l 111 20 q 109 11 110 14 q 107 4 107 7 q 93 -15 104 -8 q 69 -18 81 -21 q 47 7 50 -12 l 47 12 l 45 17 l 45 25 q 43 33 43 28 q 40 41 43 37 q 39 57 40 50 q 39 75 39 65 q 35 108 36 91 q 32 142 35 125 l 32 208 q 35 241 35 224 q 36 275 35 258 q 41 308 39 291 q 45 340 43 325 q 51 373 47 357 q 60 407 54 389 q 77 471 66 441 q 86 502 81 486 q 98 533 92 518 q 114 566 105 551 l 119 579 q 124 588 122 585 q 127 595 126 591 q 145 624 136 610 q 164 653 154 637 q 183 681 174 667 q 203 707 192 694 q 225 731 214 719 q 249 754 237 743 q 275 777 261 766 q 301 799 289 787 l 315 807 q 319 810 318 808 q 322 812 319 811 l 328 817 q 337 821 333 819 q 343 825 340 823 l 357 833 q 372 842 363 840 l 378 846 q 386 850 382 846 q 401 856 394 852 q 415 863 408 860 q 424 866 420 865 q 432 869 428 867 l 447 875 q 454 878 450 878 q 461 882 458 879 l 478 886 q 482 884 482 886 q 481 879 482 880 l 465 871 l 460 869 q 452 865 456 865 l 439 857 q 434 854 436 854 q 431 852 432 854 l 424 848 q 411 840 417 843 q 397 832 404 836 q 390 828 393 828 l 385 823 q 370 812 374 817 l 357 804 q 345 794 349 796 l 339 787 q 332 783 336 787 l 322 774 q 299 752 310 763 q 277 729 288 741 q 256 704 267 717 q 236 679 245 692 q 220 654 229 667 q 203 628 211 642 q 189 599 196 612 q 174 571 182 586 q 161 543 167 557 q 151 515 155 529 q 142 485 146 500 q 132 454 138 469 q 118 395 124 425 q 113 363 115 379 q 107 332 110 347 q 104 300 106 316 q 102 269 103 285 q 99 238 99 254 q 98 207 98 222 q 98 153 97 179 q 102 160 101 157 q 106 170 103 164 q 118 199 111 182 q 132 226 125 212 q 147 254 139 240 q 176 309 159 283 q 194 337 186 324 q 211 363 201 350 q 230 388 220 375 q 252 412 240 401 q 264 425 258 419 q 277 436 269 431 q 290 445 283 440 q 306 453 297 450 q 309 454 306 453 l 310 454 l 314 457 q 319 458 317 457 q 323 458 321 458 l 328 458 q 330 460 330 458 q 332 461 330 461 l 336 461 l 339 461 l 340 461 l 343 461 l 345 461 q 347 458 345 458 l 351 458 q 355 457 355 458 l 361 457 l 366 454 q 370 450 368 453 l 372 450 l 374 449 q 375 447 374 448 q 378 446 376 446 q 399 416 390 433 q 410 386 406 399 q 412 370 411 378 q 415 354 414 363 q 416 337 415 345 q 418 321 418 329 q 418 258 419 289 q 418 227 418 243 q 415 196 418 211 q 414 182 415 186 q 424 210 418 195 q 435 237 429 224 q 453 293 444 265 q 472 349 463 321 q 493 402 483 375 q 514 457 503 429 q 537 511 525 484 q 559 566 549 538 q 585 618 572 592 q 610 669 597 644 q 638 722 623 696 q 668 774 653 749 q 684 799 675 786 q 703 823 693 811 q 714 836 708 830 q 724 848 720 842 q 736 861 730 855 q 749 871 742 867 q 758 876 754 873 q 765 882 761 879 q 775 887 770 884 q 785 892 779 890 q 797 895 791 895 q 810 899 803 896 l 814 899 l 815 899 l 818 899 l 819 899 l 822 896 l 831 896 q 834 895 832 896 q 839 895 836 895 q 851 888 846 892 q 861 882 857 885 q 871 874 867 879 q 878 865 875 869 q 885 858 883 863 q 890 848 888 852 q 895 842 895 844 q 899 833 899 835 q 911 803 908 820 q 920 771 918 785 q 927 741 925 755 q 932 711 929 726 q 939 652 937 681 q 943 591 940 623 q 945 532 945 562 q 945 475 945 503 q 944 416 945 446 q 943 358 943 386 q 939 300 941 329 q 935 241 937 272 q 933 218 935 229 q 932 195 932 207 l 939 211 l 957 258 l 977 307 l 994 354 q 1004 377 1000 365 q 1014 403 1008 390 q 1018 403 1014 403 z "},"I":{"ha":785,"x_min":-35,"x_max":832,"o":"m 828 478 q 832 469 832 478 q 831 467 832 468 l 829 467 l 828 467 l 828 461 l 823 461 q 812 444 818 456 q 799 405 806 429 q 782 345 791 380 q 763 270 774 311 q 742 178 753 228 q 735 152 739 165 q 729 125 732 138 l 715 69 q 708 42 713 57 q 699 11 703 28 q 693 -3 696 4 q 688 -17 690 -9 q 687 -21 688 -20 q 686 -24 686 -22 l 686 -25 l 682 -33 l 677 -41 l 675 -47 q 671 -50 673 -50 l 669 -56 q 665 -58 669 -58 l 665 -64 l 663 -64 l 661 -66 l 659 -66 l 654 -72 l 653 -72 q 648 -75 650 -75 l 646 -75 l 644 -75 l 642 -75 l 640 -75 l 632 -75 l 628 -75 q 624 -72 625 -73 q 619 -67 621 -68 q 615 -64 616 -66 l 611 -56 q 608 -53 608 -56 l 608 -50 q 605 -44 606 -47 q 603 -39 604 -41 l 603 -33 l 600 -31 l 600 -25 l 599 -22 l 599 -14 l 596 -8 l 596 -5 l 596 3 q 595 15 595 9 q 595 28 595 21 l 595 53 q 595 75 595 64 q 596 94 595 86 q 597 132 596 114 q 600 170 599 150 q 604 241 604 207 q 607 259 607 250 q 607 278 607 269 l 607 311 l 607 342 q 606 345 607 343 q 606 349 606 346 q 604 353 604 351 l 603 353 l 600 353 l 591 353 q 578 345 586 353 q 545 317 564 335 q 529 297 536 306 q 511 275 521 288 q 494 252 503 264 q 478 228 485 240 q 460 200 469 212 q 441 175 452 187 q 433 162 437 168 q 424 150 428 157 q 414 135 418 143 q 403 119 410 126 q 397 114 400 117 q 392 109 395 111 q 386 101 389 104 q 378 94 382 98 l 374 94 q 370 92 371 92 l 367 92 l 366 92 l 363 92 l 361 92 q 360 90 361 90 q 359 87 359 89 l 359 86 q 358 86 358 85 q 355 86 357 85 q 354 92 354 86 l 350 92 q 346 94 346 92 q 340 100 342 94 q 338 101 338 100 q 336 103 338 103 l 332 111 q 330 116 332 115 q 329 119 329 117 q 328 124 329 123 q 328 127 328 125 q 325 136 328 136 l 325 144 l 325 150 l 325 153 l 325 161 q 328 178 325 175 q 328 184 328 182 q 329 195 328 187 q 330 207 329 201 q 334 216 332 212 q 338 239 336 229 q 342 261 340 249 q 351 304 347 285 q 363 345 355 323 q 372 383 368 364 q 382 425 376 401 q 387 444 385 433 q 392 467 389 454 q 397 485 395 475 q 400 503 399 494 q 428 669 417 589 q 431 713 431 693 q 432 753 432 733 q 432 772 432 764 q 429 791 432 781 q 428 809 429 800 q 424 825 427 818 q 418 835 421 832 q 411 842 415 838 q 396 844 407 844 l 395 844 l 392 844 l 387 844 l 382 842 l 378 842 q 367 836 371 842 q 363 835 366 836 q 358 833 361 833 q 292 761 322 810 q 262 718 276 741 q 236 669 249 694 q 209 620 220 644 q 186 567 197 595 q 174 542 179 555 q 163 517 170 529 q 158 504 160 510 q 153 492 155 498 q 147 479 150 485 q 142 467 144 473 q 103 366 122 412 q 69 275 85 319 q 41 189 54 227 q 17 119 28 151 q -2 62 6 87 q -17 20 -9 37 q -29 -17 -24 -1 q -32 -22 -29 -17 q -33 -22 -33 -24 q -35 -14 -35 -17 l -35 -9 q -33 0 -35 -4 q -32 11 -33 3 q -29 28 -31 20 q -22 79 -26 52 q -9 144 -17 107 q 7 225 -3 182 q 29 319 17 269 q 58 425 41 370 q 94 536 74 479 q 114 593 104 566 q 138 650 125 621 q 164 707 150 677 q 195 761 179 736 q 228 811 208 786 q 265 852 246 836 q 307 886 283 873 q 329 898 318 893 q 350 903 339 903 q 363 908 354 908 l 370 908 l 375 908 l 379 908 l 386 908 l 392 908 l 395 908 l 399 908 q 411 901 406 904 q 424 892 416 899 q 430 883 427 888 q 436 875 433 878 q 439 863 437 868 q 444 850 441 857 q 450 825 447 838 q 453 800 453 812 q 454 777 454 789 q 454 753 454 765 q 452 706 454 728 q 449 661 450 685 q 438 573 444 616 q 425 486 432 530 q 422 467 424 478 q 419 444 421 456 q 414 422 416 432 q 411 400 412 412 q 405 357 408 376 q 399 317 401 338 q 393 279 396 297 q 387 244 390 261 q 395 257 390 251 q 403 269 400 262 q 437 330 420 301 q 471 386 454 358 q 489 414 480 398 q 509 441 498 429 q 531 463 519 454 q 553 484 542 472 q 566 493 559 490 q 579 500 572 496 q 585 501 582 500 q 591 503 589 503 l 600 503 l 603 503 l 604 503 l 607 503 l 608 503 l 611 503 l 612 503 l 615 503 l 616 503 l 621 503 q 624 501 623 503 q 625 500 624 500 q 636 493 631 496 q 646 484 642 490 q 655 470 651 477 q 663 453 660 464 q 668 438 665 445 q 673 419 671 431 q 677 389 676 404 q 682 358 679 374 q 683 333 682 346 q 682 309 684 321 q 681 264 682 285 q 677 225 679 244 q 674 183 675 201 q 671 144 673 164 q 670 137 671 142 q 669 127 669 132 q 677 152 673 140 q 686 175 681 164 q 694 200 690 187 q 703 225 697 212 q 732 308 718 270 q 758 378 746 346 q 782 432 770 410 q 804 467 794 454 q 821 478 814 477 l 828 478 m 378 158 l 378 161 l 378 158 m 608 353 l 607 353 l 608 353 m 633 50 l 636 50 l 633 50 z "},"J":{"ha":739,"x_min":-57,"x_max":803,"o":"m 802 392 q 803 389 802 392 l 803 386 q 803 380 803 383 q 802 378 803 378 l 799 378 q 798 375 799 376 q 793 370 795 375 q 789 358 791 366 q 776 328 782 347 q 760 283 770 309 q 714 158 740 233 q 708 139 711 147 q 701 119 704 131 q 692 101 696 111 q 685 78 689 90 q 677 59 682 70 q 668 36 672 49 q 659 17 663 28 q 648 -5 654 7 l 639 -25 q 631 -37 636 -32 q 624 -47 627 -43 q 619 -53 621 -50 q 614 -58 616 -56 l 611 -64 l 607 -64 q 606 -66 607 -65 l 603 -66 q 602 -72 602 -66 l 599 -72 l 597 -72 l 595 -72 l 593 -72 l 590 -72 l 586 -72 l 585 -72 l 581 -72 q 578 -69 578 -72 q 576 -66 578 -66 q 572 -65 574 -66 q 568 -64 571 -64 l 561 -50 q 560 -47 561 -47 q 557 -41 559 -46 q 556 -36 557 -39 q 555 -31 555 -33 q 553 -25 553 -31 l 553 -22 q 551 -20 551 -22 l 551 -17 q 551 -9 551 -10 q 549 -5 551 -8 l 549 0 l 549 3 l 549 33 l 549 50 q 551 68 551 58 q 553 86 551 78 q 556 118 555 103 q 559 150 557 134 q 576 275 565 212 q 583 339 579 307 q 593 403 587 371 q 600 468 595 435 q 607 533 604 501 q 612 598 610 566 q 614 667 614 631 q 612 728 614 699 q 606 778 610 757 q 600 801 603 790 q 590 819 596 811 q 566 844 582 831 l 557 844 q 556 847 557 847 q 555 848 555 847 l 555 850 l 551 850 l 543 850 l 534 850 l 526 850 l 515 850 q 512 847 514 850 q 507 844 510 844 q 498 842 503 844 l 490 842 q 487 837 489 838 q 482 833 485 836 q 473 828 477 833 q 470 827 472 828 q 465 825 468 825 q 458 818 461 821 q 449 811 454 815 q 441 804 445 808 q 432 794 437 799 q 401 762 416 779 q 372 725 386 746 q 344 683 357 705 q 319 636 332 660 q 295 592 307 615 q 269 545 282 568 q 247 501 258 524 q 224 458 236 478 q 202 415 213 435 q 180 375 192 396 q 158 337 170 355 q 136 302 147 319 q 97 233 115 262 q 87 218 92 227 q 78 203 83 210 q 71 188 75 195 q 61 170 66 180 q 30 118 44 142 q 1 75 16 94 q -20 37 -11 52 q -36 11 -29 22 q -44 1 -41 4 q -49 -5 -46 -1 l -52 -8 q -57 -8 -54 -19 l -57 0 l -57 1 q -56 4 -57 3 q -56 8 -56 5 q -47 33 -54 9 q -36 66 -42 45 q -20 117 -29 87 q 2 172 -10 142 q 28 236 14 203 q 35 255 31 247 q 43 275 40 264 l 52 292 q 55 301 53 298 q 60 311 57 304 q 97 386 73 349 q 116 429 106 410 q 136 469 125 449 q 160 510 147 489 q 184 550 172 530 q 210 590 197 571 q 239 628 224 608 q 267 663 252 645 q 297 700 282 681 q 329 733 313 715 q 359 766 345 750 q 391 801 375 786 q 424 833 407 817 q 456 867 439 853 q 493 895 473 882 q 496 897 494 895 q 501 900 498 900 q 506 901 504 900 q 511 903 509 903 q 519 908 514 908 q 530 911 524 911 q 541 917 534 916 l 551 920 l 553 920 l 555 920 l 559 920 l 572 920 q 593 914 582 920 q 615 900 604 908 q 635 869 625 888 q 644 851 639 861 q 652 833 648 842 q 657 813 654 823 q 661 791 660 804 q 666 772 664 781 q 669 753 668 764 q 674 710 672 732 q 676 669 676 689 q 677 630 677 648 q 677 591 677 611 q 676 554 676 572 q 673 517 676 536 q 669 443 672 479 q 664 370 667 406 q 656 302 661 336 q 648 236 652 268 q 641 183 644 208 q 635 134 637 158 q 644 153 637 147 q 662 188 654 172 q 681 220 671 204 q 711 274 696 249 q 739 319 726 300 q 762 358 751 343 q 781 383 772 372 q 788 389 785 386 q 794 392 791 392 l 798 392 l 799 392 l 802 392 m 589 61 l 586 61 l 589 61 m 586 61 l 585 61 l 586 61 z "},"K":{"ha":713,"x_min":21,"x_max":775,"o":"m 772 257 q 755 221 766 236 q 747 204 751 212 q 737 186 742 196 q 717 151 728 168 q 696 119 707 135 q 671 86 684 100 q 658 71 664 78 q 643 57 652 64 q 636 48 640 52 q 629 40 632 45 q 620 34 624 37 q 612 28 616 31 q 604 21 608 24 q 600 17 602 18 q 596 12 597 16 q 586 7 591 9 q 575 3 582 5 q 565 -3 570 0 q 554 -8 561 -5 q 540 -11 547 -9 q 526 -12 533 -12 q 512 -11 519 -12 q 497 -8 504 -9 q 494 -5 496 -5 q 489 -4 492 -5 q 486 -3 488 -4 q 484 -1 485 -1 q 480 1 481 0 q 476 3 479 3 l 476 4 l 475 4 l 472 4 l 472 7 l 471 8 q 467 12 468 11 q 464 16 467 12 l 458 21 q 457 24 458 24 q 454 28 456 25 q 453 31 454 29 q 452 33 452 32 q 447 46 449 40 q 443 57 446 52 q 437 79 440 69 q 435 100 435 89 q 432 121 433 111 q 431 142 431 131 l 431 183 q 433 223 431 203 q 437 262 435 243 q 441 303 439 283 q 447 342 444 322 l 452 361 l 456 379 q 459 400 458 390 q 463 419 460 410 q 471 457 467 439 q 479 496 476 476 l 488 533 l 496 574 q 504 612 500 593 q 513 650 507 631 q 515 668 514 659 q 518 688 517 677 q 522 708 521 697 q 525 728 522 718 l 529 746 l 533 765 q 536 785 534 776 q 539 804 538 794 q 542 827 542 820 q 534 828 542 833 q 515 807 525 817 q 496 787 505 798 q 454 746 473 768 q 445 737 449 742 q 435 725 440 732 l 414 704 l 396 686 l 376 665 q 358 643 367 654 q 339 621 349 632 q 301 579 319 601 q 284 558 292 568 q 267 536 277 547 q 251 513 258 524 q 233 490 243 501 q 217 468 225 479 q 201 444 210 456 q 188 420 195 432 q 172 396 180 408 l 167 383 l 160 374 q 157 368 159 371 q 154 361 155 364 q 151 355 151 358 q 147 349 150 351 q 135 324 140 336 q 125 298 129 311 q 106 249 111 271 q 92 196 99 227 q 89 183 92 188 l 89 178 l 89 175 l 87 171 l 87 158 l 85 146 l 85 142 l 85 140 l 85 138 l 85 132 l 85 119 l 85 96 q 87 85 87 89 q 89 75 87 81 q 92 64 92 68 q 96 57 93 60 q 100 53 97 53 q 102 49 100 50 q 106 45 102 45 l 113 37 q 116 37 114 37 q 121 36 118 36 q 129 33 123 33 q 139 33 135 33 q 150 35 144 33 q 163 37 155 36 q 167 39 164 37 q 172 40 170 40 l 179 41 l 180 45 l 184 45 l 192 49 l 196 50 q 202 53 199 53 q 208 54 205 53 q 215 58 211 57 q 221 61 218 58 q 231 66 224 64 l 243 74 q 249 77 245 75 q 254 79 252 78 q 277 94 267 89 q 288 103 281 96 q 294 106 290 104 q 300 109 297 107 l 310 117 l 321 125 q 332 133 328 127 q 343 140 336 138 l 346 140 l 347 140 q 347 136 351 136 q 338 124 343 130 q 329 115 334 119 q 319 104 323 110 q 310 94 315 98 q 301 86 307 89 l 296 79 l 292 75 q 281 66 286 71 q 271 57 275 61 q 265 52 268 54 q 260 49 262 50 q 255 44 257 46 q 250 40 253 41 q 237 32 243 33 q 227 24 233 26 q 220 19 224 21 q 214 16 216 17 l 208 11 l 201 8 l 200 7 l 196 4 l 189 0 q 183 -3 186 -1 q 175 -4 179 -4 q 146 -14 159 -12 q 110 -14 129 -18 l 106 -14 l 102 -12 l 100 -12 l 97 -12 l 92 -9 q 84 -6 89 -8 q 75 -1 79 -4 q 67 5 73 1 q 60 11 62 8 q 54 20 56 15 q 51 22 52 21 q 47 25 50 24 q 33 57 39 41 q 25 86 28 71 q 21 117 21 100 l 21 132 l 21 140 l 21 144 l 21 146 l 21 149 l 21 146 l 21 161 l 21 178 l 21 182 l 21 183 l 21 192 q 22 201 21 197 q 22 208 22 204 q 35 269 26 236 q 54 328 41 297 q 57 334 56 330 q 60 342 58 338 l 64 354 q 79 383 69 371 q 82 390 81 386 q 85 396 83 393 q 88 402 87 399 q 92 408 89 406 l 100 424 l 106 436 q 121 461 114 448 q 139 486 129 473 q 156 510 147 498 q 172 533 165 522 q 210 579 191 558 q 249 625 229 603 q 289 667 269 647 l 330 708 q 341 718 336 713 q 351 729 347 722 q 363 739 358 734 q 372 749 368 743 q 384 758 379 753 q 396 766 389 762 q 407 776 403 772 q 418 786 411 781 q 440 805 429 795 q 464 823 452 814 q 486 841 475 833 q 510 859 497 848 q 522 866 517 861 q 533 875 526 871 q 546 884 540 880 q 558 892 551 888 q 571 896 565 897 q 581 888 578 895 q 585 875 585 884 q 579 856 582 865 q 575 838 576 847 q 570 818 572 828 q 564 799 567 808 q 560 780 562 789 q 555 761 558 771 l 551 742 l 547 724 q 544 704 546 714 q 539 684 542 694 q 536 665 538 674 q 533 646 534 656 q 527 607 530 626 q 521 570 524 589 q 519 550 521 560 q 517 529 518 539 q 514 510 514 519 q 513 490 514 501 q 509 452 510 471 q 505 412 509 433 q 505 394 505 403 q 504 374 505 385 l 501 336 q 500 297 501 315 q 500 258 500 278 q 497 220 497 239 q 496 182 497 201 q 496 144 496 162 q 497 107 496 126 q 500 90 500 99 q 504 74 501 81 q 505 67 504 71 q 509 61 505 62 l 509 57 q 510 54 510 56 l 510 53 l 513 53 q 512 52 514 50 q 513 53 510 53 l 514 50 l 517 50 q 518 49 517 49 q 522 47 521 49 q 526 46 524 46 q 551 53 537 46 q 560 56 557 54 q 567 58 564 57 q 575 62 568 62 q 578 66 576 65 q 581 69 579 66 q 610 90 597 77 q 638 115 625 102 q 667 142 652 127 q 679 157 673 150 q 692 171 685 164 q 704 185 699 178 q 717 200 710 193 q 743 231 730 216 q 766 261 755 245 q 772 261 772 261 q 772 257 775 258 z "},"L":{"ha":686,"x_min":-53,"x_max":755,"o":"m 755 456 q 747 396 751 424 q 734 339 742 368 q 722 283 728 311 q 705 228 715 256 q 667 127 690 175 q 655 105 661 117 q 643 86 650 94 q 614 47 629 66 q 580 23 598 32 q 546 14 562 14 l 538 14 l 526 14 l 522 14 l 521 14 l 518 14 l 514 20 l 513 20 l 510 20 l 504 22 l 501 22 l 497 22 q 494 29 496 26 q 489 36 492 32 l 484 39 q 481 42 481 39 q 479 45 481 45 l 475 53 q 472 54 472 53 q 471 56 471 54 q 455 84 461 68 q 443 119 449 100 q 434 150 439 135 q 427 180 429 165 q 421 213 424 197 q 416 244 419 228 q 415 254 416 251 q 414 261 414 257 l 412 278 q 411 293 412 286 q 410 311 410 300 q 406 374 407 343 q 401 436 404 404 q 400 467 400 452 q 400 497 400 482 l 400 561 l 400 589 l 400 623 l 400 681 q 401 711 401 698 q 401 739 401 724 q 401 733 401 736 q 400 728 400 730 l 371 597 q 356 533 364 566 q 342 469 349 501 q 334 437 339 452 q 326 406 329 422 q 319 373 323 390 q 313 339 315 355 q 297 276 304 307 q 279 214 289 245 q 272 183 277 198 q 262 153 267 168 q 253 121 257 136 q 243 89 249 106 q 221 31 233 57 q 213 16 218 22 q 205 3 208 9 q 184 -22 197 -9 q 180 -28 183 -22 l 175 -28 q 167 -31 171 -31 l 163 -31 l 160 -31 l 158 -31 l 155 -31 l 154 -28 l 150 -28 l 147 -28 q 144 -25 146 -28 q 142 -22 143 -22 q 138 -21 139 -22 q 135 -20 138 -20 q 100 39 111 3 q 96 50 97 45 q 93 61 96 54 q 87 78 90 66 q 84 97 85 86 q 81 119 83 107 q 75 157 78 139 q 71 195 72 175 q 66 270 68 232 q 64 345 64 307 q 65 415 64 378 q 68 489 66 452 l 66 481 l 54 447 q 48 429 52 439 q 41 411 45 419 l 29 378 l 17 345 q 11 325 14 334 q 4 306 7 317 q -2 291 1 298 q -8 272 -5 283 q -15 255 -11 264 q -21 239 -18 245 q -33 204 -28 219 q -46 170 -39 189 l -53 170 l -53 178 q -45 217 -50 199 q -36 256 -40 236 q -31 275 -33 267 q -28 294 -29 283 q -22 314 -25 302 q -17 336 -20 325 q -13 354 -16 345 q -8 372 -11 364 l 0 411 l 9 447 q 15 466 12 458 q 18 486 17 475 l 29 528 l 39 564 l 47 603 l 58 639 l 68 677 l 79 714 l 87 753 q 93 771 90 761 q 97 789 96 781 q 115 816 104 808 q 138 811 126 823 q 149 784 144 800 q 151 753 154 768 l 151 747 l 150 730 l 147 714 l 146 681 q 142 646 143 661 q 139 611 142 631 q 136 542 138 575 q 131 472 134 509 q 129 408 130 440 q 126 339 129 375 l 126 272 l 126 205 q 129 175 129 190 q 131 147 129 160 q 134 133 134 139 q 135 119 134 126 q 136 113 135 115 q 138 106 138 110 q 139 100 139 103 q 139 94 139 97 q 142 87 142 90 q 143 81 142 85 l 146 78 l 146 75 q 147 72 146 73 q 151 66 150 69 q 154 61 151 64 l 155 56 q 160 53 158 56 l 163 53 l 164 53 l 163 53 l 164 53 l 167 53 l 167 47 l 168 47 l 171 47 l 171 52 l 172 53 q 184 61 178 53 q 191 69 187 64 q 197 78 195 74 q 209 98 204 86 q 221 122 214 110 q 241 179 232 151 q 260 236 250 207 q 293 361 278 298 q 299 392 296 376 q 309 422 302 407 q 315 454 311 439 q 321 489 318 469 q 333 552 328 521 q 346 619 339 583 q 357 685 353 652 q 367 753 361 717 q 378 820 374 786 q 387 886 382 854 q 396 954 391 920 q 406 1022 401 989 l 443 1197 q 457 1235 446 1222 q 484 1239 468 1247 q 502 1212 494 1232 q 505 1166 509 1192 l 504 1164 l 500 1105 q 498 1078 500 1093 q 497 1047 497 1063 q 486 922 489 985 q 479 794 482 860 q 478 734 479 762 q 476 677 476 705 l 475 619 l 475 561 q 473 530 475 544 q 475 503 472 515 l 475 472 l 475 444 q 479 330 475 389 q 479 317 479 323 q 481 302 479 311 l 481 289 q 482 283 481 286 q 484 278 484 281 q 486 253 485 266 q 489 228 488 240 q 497 181 492 203 q 510 147 503 160 q 516 138 513 140 q 522 131 519 135 l 525 131 l 522 131 l 525 131 l 529 127 l 530 127 l 534 127 q 536 126 534 126 q 539 122 538 125 l 546 122 q 558 123 553 122 q 571 127 564 123 q 593 136 585 127 q 605 146 600 143 q 618 161 611 150 q 629 174 623 168 q 642 189 635 180 q 662 224 652 206 q 681 264 671 243 q 699 311 690 288 q 717 355 708 335 q 726 380 721 368 q 733 406 730 393 q 741 433 737 418 q 747 461 745 449 q 754 461 750 464 l 755 456 z "},"M":{"ha":439,"x_min":28,"x_max":545,"o":"m 541 372 q 545 368 545 372 l 542 366 q 538 363 541 364 q 532 360 535 361 q 525 357 529 358 q 504 349 515 354 q 478 336 493 343 q 444 321 463 330 q 404 306 425 313 q 359 285 382 296 q 311 261 336 273 l 286 249 q 273 242 279 246 q 258 236 267 239 q 250 231 256 233 q 244 207 248 220 q 237 182 240 195 q 231 144 235 162 q 220 107 227 126 q 207 69 216 87 q 187 32 201 52 q 181 23 184 28 q 174 14 178 18 q 165 4 171 8 q 153 -5 160 0 q 144 -8 147 -7 q 136 -9 140 -9 q 117 -11 130 -11 q 100 -7 106 -11 q 96 -5 96 -7 l 92 -3 q 89 -2 90 -3 q 86 -1 87 -1 q 74 8 79 4 q 65 18 69 12 l 62 20 l 61 22 l 58 26 l 57 28 l 54 28 l 54 31 l 50 35 l 46 40 q 45 41 45 40 l 45 45 l 40 52 q 37 56 40 53 l 36 61 q 33 68 33 64 l 32 74 q 29 81 29 77 q 28 86 29 85 l 28 94 l 28 107 l 28 111 l 28 114 l 28 119 q 29 125 29 122 q 32 135 29 129 q 50 176 37 159 q 79 210 62 196 q 83 212 82 211 q 86 215 83 214 q 94 222 89 222 q 97 226 96 224 q 100 228 98 228 q 105 231 102 231 q 109 235 107 232 q 139 255 124 245 q 170 273 154 264 q 200 288 185 281 q 229 301 215 294 q 238 304 235 302 q 244 307 241 306 q 247 321 245 314 q 250 335 249 328 q 255 371 253 355 q 257 407 257 387 q 260 442 258 425 q 262 476 261 458 q 266 510 265 493 q 269 543 267 528 q 273 574 271 559 q 278 606 275 590 q 283 635 281 621 q 288 664 285 648 q 308 765 298 721 q 328 843 318 810 q 334 872 330 859 q 340 893 338 885 q 343 900 342 897 q 345 905 345 903 q 345 907 345 907 q 346 909 346 908 l 346 911 q 350 914 346 913 q 353 909 353 914 l 353 905 q 354 890 354 903 q 357 870 357 884 q 357 839 357 856 l 357 760 q 353 710 354 736 q 349 656 351 684 q 345 625 346 640 q 342 595 345 610 q 338 564 340 581 q 332 532 335 547 q 324 500 329 516 q 315 468 319 484 q 306 433 310 450 q 296 399 301 416 q 285 365 289 382 q 275 330 281 347 q 272 321 274 325 q 271 315 271 318 q 278 319 273 318 q 288 322 283 319 q 341 338 315 332 q 390 349 367 345 q 432 358 412 355 q 469 364 452 361 q 499 368 486 367 q 521 370 511 370 q 536 372 528 372 l 541 372 m 212 191 q 217 203 215 197 q 221 215 220 208 q 214 211 218 212 q 207 207 210 210 q 179 191 191 200 q 154 172 167 182 q 142 162 147 167 q 132 153 136 158 q 129 151 130 151 q 125 149 127 151 q 121 143 125 144 q 119 142 119 143 q 117 139 119 140 q 114 136 117 139 l 113 135 q 100 114 104 123 q 98 94 98 107 l 98 90 l 98 89 l 100 87 l 100 86 l 100 85 q 101 82 100 82 q 103 81 103 82 l 103 78 l 104 77 q 107 72 104 74 l 107 69 l 109 69 l 109 68 l 111 65 l 113 64 l 113 61 l 115 61 q 118 57 117 58 q 121 53 119 56 q 123 52 122 52 l 125 52 l 125 49 q 130 52 127 52 q 134 53 132 52 q 139 58 136 56 q 144 64 142 61 q 156 77 151 71 q 165 90 160 83 q 174 106 170 98 q 183 122 179 114 q 198 156 191 139 q 212 191 205 174 z "},"N":{"ha":739,"x_min":-57,"x_max":803,"o":"m 802 392 q 803 389 802 392 l 803 386 q 803 380 803 383 q 802 378 803 378 l 799 378 q 798 375 799 376 q 793 370 795 375 q 789 358 791 366 q 776 328 782 347 q 760 283 770 309 q 714 158 740 233 q 708 139 711 147 q 701 119 704 131 q 692 101 696 111 q 685 78 689 90 q 677 59 682 70 q 668 36 672 49 q 659 17 663 28 q 648 -5 654 7 l 639 -25 q 631 -37 636 -32 q 624 -47 627 -43 q 619 -53 621 -50 q 614 -58 616 -56 l 611 -64 l 607 -64 q 606 -66 607 -65 l 603 -66 q 602 -72 602 -66 l 599 -72 l 597 -72 l 595 -72 l 593 -72 l 590 -72 l 586 -72 l 585 -72 l 581 -72 q 578 -69 578 -72 q 576 -66 578 -66 q 572 -65 574 -66 q 568 -64 571 -64 l 561 -50 q 560 -47 561 -47 q 557 -41 559 -46 q 556 -36 557 -39 q 555 -31 555 -33 q 553 -25 553 -31 l 553 -22 q 551 -20 551 -22 l 551 -17 q 551 -9 551 -10 q 549 -5 551 -8 l 549 0 l 549 3 l 549 33 l 549 50 q 551 68 551 58 q 553 86 551 78 q 556 118 555 103 q 559 150 557 134 q 576 275 565 212 q 583 339 579 307 q 593 403 587 371 q 600 468 595 435 q 607 533 604 501 q 612 598 610 566 q 614 667 614 631 q 612 728 614 699 q 606 778 610 757 q 600 801 603 790 q 590 819 596 811 q 566 844 582 831 l 557 844 q 556 847 557 847 q 555 848 555 847 l 555 850 l 551 850 l 543 850 l 534 850 l 526 850 l 515 850 q 512 847 514 850 q 507 844 510 844 q 498 842 503 844 l 490 842 q 487 837 489 838 q 482 833 485 836 q 473 828 477 833 q 470 827 472 828 q 465 825 468 825 q 458 818 461 821 q 449 811 454 815 q 441 804 445 808 q 432 794 437 799 q 401 762 416 779 q 372 725 386 746 q 344 683 357 705 q 319 636 332 660 q 295 592 307 615 q 269 545 282 568 q 247 501 258 524 q 224 458 236 478 q 202 415 213 435 q 180 375 192 396 q 158 337 170 355 q 136 302 147 319 q 97 233 115 262 q 87 218 92 227 q 78 203 83 210 q 71 188 75 195 q 61 170 66 180 q 30 118 44 142 q 1 75 16 94 q -20 37 -11 52 q -36 11 -29 22 q -44 1 -41 4 q -49 -5 -46 -1 l -52 -8 q -57 -8 -54 -19 l -57 0 l -57 1 q -56 4 -57 3 q -56 8 -56 5 q -47 33 -54 9 q -36 66 -42 45 q -20 117 -29 87 q 2 172 -10 142 q 28 236 14 203 q 35 255 31 247 q 43 275 40 264 l 52 292 q 55 301 53 298 q 60 311 57 304 q 97 386 73 349 q 116 429 106 410 q 136 469 125 449 q 160 510 147 489 q 184 550 172 530 q 210 590 197 571 q 239 628 224 608 q 267 663 252 645 q 297 700 282 681 q 329 733 313 715 q 359 766 345 750 q 391 801 375 786 q 424 833 407 817 q 456 867 439 853 q 493 895 473 882 q 496 897 494 895 q 501 900 498 900 q 506 901 504 900 q 511 903 509 903 q 519 908 514 908 q 530 911 524 911 q 541 917 534 916 l 551 920 l 553 920 l 555 920 l 559 920 l 572 920 q 593 914 582 920 q 615 900 604 908 q 635 869 625 888 q 644 851 639 861 q 652 833 648 842 q 657 813 654 823 q 661 791 660 804 q 666 772 664 781 q 669 753 668 764 q 674 710 672 732 q 676 669 676 689 q 677 630 677 648 q 677 591 677 611 q 676 554 676 572 q 673 517 676 536 q 669 443 672 479 q 664 370 667 406 q 656 302 661 336 q 648 236 652 268 q 641 183 644 208 q 635 134 637 158 q 644 153 637 147 q 662 188 654 172 q 681 220 671 204 q 711 274 696 249 q 739 319 726 300 q 762 358 751 343 q 781 383 772 372 q 788 389 785 386 q 794 392 791 392 l 798 392 l 799 392 l 802 392 m 589 61 l 586 61 l 589 61 m 586 61 l 585 61 l 586 61 z "},"O":{"ha":755,"x_min":-35,"x_max":779,"o":"m 40 12 q 40 20 36 15 l 40 12 m 92 12 q 92 8 94 11 l 92 12 m 779 586 l 779 575 q 773 508 779 541 q 757 441 766 475 q 735 380 747 410 q 708 321 724 351 q 678 264 694 292 q 644 208 661 236 q 608 155 626 182 q 571 104 590 129 q 531 55 551 79 q 488 7 510 31 l 484 7 q 484 11 479 11 q 515 66 499 39 q 546 121 530 93 q 576 176 562 149 q 604 232 590 204 q 617 259 611 245 q 629 288 623 273 q 642 316 636 303 q 654 345 647 329 q 665 374 660 360 q 673 403 671 387 q 676 410 675 406 q 679 416 677 414 l 684 432 l 688 446 q 689 453 688 448 q 690 461 690 458 q 697 489 694 475 q 703 519 700 504 q 704 547 704 533 q 704 575 704 561 q 679 679 704 633 q 648 720 665 704 q 607 753 631 736 l 595 758 q 589 762 592 761 q 583 765 586 762 l 579 765 q 578 766 579 766 l 570 771 l 561 774 l 558 774 l 561 774 l 558 774 l 557 775 q 503 787 528 786 q 478 789 490 790 q 450 786 465 787 q 400 766 428 781 q 355 735 376 753 q 313 694 334 717 q 294 670 303 682 q 275 646 285 659 q 260 620 269 633 q 244 595 252 607 q 229 567 236 579 q 212 541 221 554 q 200 512 205 525 q 187 484 195 498 q 165 425 175 454 q 146 366 155 395 q 129 304 136 335 q 115 241 122 273 q 110 213 113 228 q 104 182 107 197 q 100 150 104 166 q 96 119 100 133 q 94 88 94 104 q 92 57 94 72 q 91 44 92 50 q 90 33 90 39 q 92 12 90 20 q 90 14 90 12 l 90 16 l 90 11 l 90 7 l 92 8 l 92 7 l 90 0 l 90 -1 q 87 -5 90 -4 q 87 -14 96 -12 q 64 -14 78 -16 q 41 -8 50 -12 q 40 0 32 -4 l 40 3 l 40 4 l 40 7 l 41 8 q 41 9 41 9 q 40 11 40 9 l 40 12 l 41 12 l 41 16 l 41 20 l 40 20 q 39 26 40 22 q 37 32 37 29 q 36 44 36 39 q 33 57 36 50 q 32 70 32 64 q 32 82 32 75 l 29 96 l 28 109 q 25 133 25 121 q 24 158 25 146 q 22 184 24 170 q 21 211 21 199 q 21 236 21 223 q 24 261 21 249 q 24 287 24 275 q 25 313 24 300 q 25 325 25 319 q 28 338 25 330 q 28 352 28 346 q 29 366 28 358 q 31 378 29 372 q 33 390 32 383 l 33 403 l 37 415 l 37 424 l 40 429 l 41 441 q 43 448 41 444 q 45 454 45 452 q 46 460 46 457 q 49 467 46 464 l 50 479 q 53 486 53 482 l 54 492 l 57 498 l 58 504 l 61 517 q 68 539 65 528 q 74 562 71 551 l 75 575 q 78 586 78 579 q 79 599 79 590 l 79 608 q 82 621 79 616 l 79 628 l 79 632 l 79 637 l 79 642 q 79 647 79 644 q 78 653 78 650 q 74 664 75 660 q 69 673 72 668 l 66 677 l 62 682 l 57 688 q 37 700 46 699 q 17 708 31 705 l 11 711 l 4 713 q -1 715 0 713 l -8 715 q -21 717 -15 717 q -33 720 -26 717 q -35 724 -35 720 q -33 725 -35 725 q -18 728 -29 728 l -12 728 l -5 728 q 20 728 7 729 q 33 726 26 728 q 46 724 39 725 q 60 718 53 721 q 74 711 66 714 q 94 690 85 702 q 103 679 98 685 q 111 665 109 672 q 118 637 115 650 q 121 611 121 624 q 123 596 123 604 l 123 583 q 122 576 123 579 q 121 570 121 572 l 121 557 q 117 529 119 541 q 113 504 115 517 l 107 479 l 107 473 q 104 467 104 471 l 103 454 q 101 450 103 453 q 100 444 100 447 l 98 432 l 96 419 l 96 412 l 96 407 l 94 396 l 94 383 q 92 371 92 376 q 92 358 92 366 q 90 346 90 354 l 90 334 q 89 321 90 327 q 87 309 87 315 l 87 286 l 87 261 l 87 236 l 87 224 q 90 236 90 231 q 92 249 90 241 q 107 310 100 281 q 125 371 115 339 q 161 492 142 431 q 182 554 170 522 q 192 584 186 570 q 204 612 197 599 q 219 643 212 628 q 233 671 227 657 q 251 700 241 686 q 269 728 260 713 q 279 741 273 734 q 290 754 285 747 q 301 767 297 761 q 313 779 306 772 q 340 803 323 790 q 354 812 347 807 q 370 823 361 818 q 401 838 385 830 q 436 850 416 846 q 471 857 453 855 q 509 859 489 859 q 579 844 549 856 l 583 844 l 586 842 l 587 842 l 596 840 l 603 836 l 604 836 l 607 836 l 611 833 l 619 829 l 624 828 q 628 825 628 828 l 644 817 q 659 808 652 814 l 663 807 l 667 804 l 675 799 q 681 793 677 796 q 690 787 685 790 l 696 782 l 703 775 q 728 747 716 763 q 749 717 739 732 q 774 646 767 684 q 774 642 774 644 q 775 637 775 640 l 778 629 l 778 621 l 779 611 l 779 603 l 779 595 l 779 586 m 90 7 l 90 4 l 90 7 z "},"P":{"ha":989,"x_min":32,"x_max":1022,"o":"m 1018 403 q 1021 401 1019 403 q 1019 399 1022 400 q 1013 375 1017 388 q 1007 350 1010 363 l 994 300 l 982 250 l 968 203 l 953 153 l 940 103 l 926 54 l 911 4 q 882 -12 904 -16 q 868 -2 872 -9 q 864 12 864 5 l 864 16 q 867 73 865 43 q 869 129 868 102 q 871 188 869 159 q 872 244 872 216 q 873 302 873 273 q 873 358 873 330 q 873 417 873 389 q 872 473 873 446 q 871 531 872 503 q 868 587 869 559 q 863 644 865 615 q 856 700 860 672 q 844 753 852 725 q 842 765 843 760 q 839 778 840 771 q 834 789 836 785 q 831 800 832 793 q 828 804 828 800 q 823 808 827 807 q 819 815 823 815 q 818 818 818 817 q 815 819 818 819 l 815 821 l 814 821 l 812 821 q 811 819 811 821 q 803 817 807 819 l 798 811 q 778 796 787 804 q 770 787 774 792 q 761 778 766 782 q 746 756 754 767 q 730 733 737 745 q 672 637 699 687 q 644 587 656 612 q 619 536 632 562 q 595 485 607 511 q 572 432 583 458 q 548 380 560 407 q 524 328 536 354 q 502 274 513 300 q 478 221 490 249 q 456 168 467 195 q 435 115 446 142 q 424 89 429 103 q 414 61 418 75 q 403 35 408 49 q 393 8 397 21 l 393 7 q 372 -1 387 -9 q 361 17 359 1 q 365 31 363 24 q 368 46 366 39 q 371 61 370 54 q 374 75 372 68 q 379 106 376 91 q 385 138 382 122 q 389 168 387 153 q 393 199 390 183 q 395 229 395 214 q 397 258 395 244 l 397 321 q 393 351 395 336 q 389 379 392 366 q 383 394 386 387 q 378 407 380 400 q 361 428 370 422 q 359 429 361 428 q 357 431 357 429 l 357 432 l 355 432 l 351 433 l 349 433 l 347 433 q 346 436 347 435 l 345 436 l 343 436 l 340 436 l 339 436 l 335 436 l 332 433 l 328 433 q 322 432 323 433 l 319 432 q 315 429 318 429 q 306 423 311 427 q 294 415 300 419 q 283 404 288 410 q 273 395 279 399 q 264 382 269 388 q 256 370 260 376 q 248 357 253 363 q 240 345 243 351 q 233 331 236 338 q 224 317 229 325 q 217 303 221 310 q 211 290 214 297 q 199 264 204 278 q 186 236 193 250 q 175 207 179 220 q 164 178 171 193 q 154 149 159 162 q 143 121 150 136 q 133 92 138 105 q 123 62 129 78 l 115 33 l 111 20 q 109 11 110 14 q 107 4 107 7 q 93 -15 104 -8 q 69 -18 81 -21 q 47 7 50 -12 l 47 12 l 45 17 l 45 25 q 43 33 43 28 q 40 41 43 37 q 39 57 40 50 q 39 75 39 65 q 35 108 36 91 q 32 142 35 125 l 32 208 q 35 241 35 224 q 36 275 35 258 q 41 308 39 291 q 45 340 43 325 q 51 373 47 357 q 60 407 54 389 q 77 471 66 441 q 86 502 81 486 q 98 533 92 518 q 114 566 105 551 l 119 579 q 124 588 122 585 q 127 595 126 591 q 145 624 136 610 q 164 653 154 637 q 183 681 174 667 q 203 707 192 694 q 225 731 214 719 q 249 754 237 743 q 275 777 261 766 q 301 799 289 787 l 315 807 q 319 810 318 808 q 322 812 319 811 l 328 817 q 337 821 333 819 q 343 825 340 823 l 357 833 q 372 842 363 840 l 378 846 q 386 850 382 846 q 401 856 394 852 q 415 863 408 860 q 424 866 420 865 q 432 869 428 867 l 447 875 q 454 878 450 878 q 461 882 458 879 l 478 886 q 482 884 482 886 q 481 879 482 880 l 465 871 l 460 869 q 452 865 456 865 l 439 857 q 434 854 436 854 q 431 852 432 854 l 424 848 q 411 840 417 843 q 397 832 404 836 q 390 828 393 828 l 385 823 q 370 812 374 817 l 357 804 q 345 794 349 796 l 339 787 q 332 783 336 787 l 322 774 q 299 752 310 763 q 277 729 288 741 q 256 704 267 717 q 236 679 245 692 q 220 654 229 667 q 203 628 211 642 q 189 599 196 612 q 174 571 182 586 q 161 543 167 557 q 151 515 155 529 q 142 485 146 500 q 132 454 138 469 q 118 395 124 425 q 113 363 115 379 q 107 332 110 347 q 104 300 106 316 q 102 269 103 285 q 99 238 99 254 q 98 207 98 222 q 98 153 97 179 q 102 160 101 157 q 106 170 103 164 q 118 199 111 182 q 132 226 125 212 q 147 254 139 240 q 176 309 159 283 q 194 337 186 324 q 211 363 201 350 q 230 388 220 375 q 252 412 240 401 q 264 425 258 419 q 277 436 269 431 q 290 445 283 440 q 306 453 297 450 q 309 454 306 453 l 310 454 l 314 457 q 319 458 317 457 q 323 458 321 458 l 328 458 q 330 460 330 458 q 332 461 330 461 l 336 461 l 339 461 l 340 461 l 343 461 l 345 461 q 347 458 345 458 l 351 458 q 355 457 355 458 l 361 457 l 366 454 q 370 450 368 453 l 372 450 l 374 449 q 375 447 374 448 q 378 446 376 446 q 399 416 390 433 q 410 386 406 399 q 412 370 411 378 q 415 354 414 363 q 416 337 415 345 q 418 321 418 329 q 418 258 419 289 q 418 227 418 243 q 415 196 418 211 q 414 182 415 186 q 424 210 418 195 q 435 237 429 224 q 453 293 444 265 q 472 349 463 321 q 493 402 483 375 q 514 457 503 429 q 537 511 525 484 q 559 566 549 538 q 585 618 572 592 q 610 669 597 644 q 638 722 623 696 q 668 774 653 749 q 684 799 675 786 q 703 823 693 811 q 714 836 708 830 q 724 848 720 842 q 736 861 730 855 q 749 871 742 867 q 758 876 754 873 q 765 882 761 879 q 775 887 770 884 q 785 892 779 890 q 797 895 791 895 q 810 899 803 896 l 814 899 l 815 899 l 818 899 l 819 899 l 822 896 l 831 896 q 834 895 832 896 q 839 895 836 895 q 851 888 846 892 q 861 882 857 885 q 871 874 867 879 q 878 865 875 869 q 885 858 883 863 q 890 848 888 852 q 895 842 895 844 q 899 833 899 835 q 911 803 908 820 q 920 771 918 785 q 927 741 925 755 q 932 711 929 726 q 939 652 937 681 q 943 591 940 623 q 945 532 945 562 q 945 475 945 503 q 944 416 945 446 q 943 358 943 386 q 939 300 941 329 q 935 241 937 272 q 933 218 935 229 q 932 195 932 207 l 939 211 l 957 258 l 977 307 l 994 354 q 1004 377 1000 365 q 1014 403 1008 390 q 1018 403 1014 403 z "},"Q":{"ha":785,"x_min":-35,"x_max":832,"o":"m 828 478 q 832 469 832 478 q 831 467 832 468 l 829 467 l 828 467 l 828 461 l 823 461 q 812 444 818 456 q 799 405 806 429 q 782 345 791 380 q 763 270 774 311 q 742 178 753 228 q 735 152 739 165 q 729 125 732 138 l 715 69 q 708 42 713 57 q 699 11 703 28 q 693 -3 696 4 q 688 -17 690 -9 q 687 -21 688 -20 q 686 -24 686 -22 l 686 -25 l 682 -33 l 677 -41 l 675 -47 q 671 -50 673 -50 l 669 -56 q 665 -58 669 -58 l 665 -64 l 663 -64 l 661 -66 l 659 -66 l 654 -72 l 653 -72 q 648 -75 650 -75 l 646 -75 l 644 -75 l 642 -75 l 640 -75 l 632 -75 l 628 -75 q 624 -72 625 -73 q 619 -67 621 -68 q 615 -64 616 -66 l 611 -56 q 608 -53 608 -56 l 608 -50 q 605 -44 606 -47 q 603 -39 604 -41 l 603 -33 l 600 -31 l 600 -25 l 599 -22 l 599 -14 l 596 -8 l 596 -5 l 596 3 q 595 15 595 9 q 595 28 595 21 l 595 53 q 595 75 595 64 q 596 94 595 86 q 597 132 596 114 q 600 170 599 150 q 604 241 604 207 q 607 259 607 250 q 607 278 607 269 l 607 311 l 607 342 q 606 345 607 343 q 606 349 606 346 q 604 353 604 351 l 603 353 l 600 353 l 591 353 q 578 345 586 353 q 545 317 564 335 q 529 297 536 306 q 511 275 521 288 q 494 252 503 264 q 478 228 485 240 q 460 200 469 212 q 441 175 452 187 q 433 162 437 168 q 424 150 428 157 q 414 135 418 143 q 403 119 410 126 q 397 114 400 117 q 392 109 395 111 q 386 101 389 104 q 378 94 382 98 l 374 94 q 370 92 371 92 l 367 92 l 366 92 l 363 92 l 361 92 q 360 90 361 90 q 359 87 359 89 l 359 86 q 358 86 358 85 q 355 86 357 85 q 354 92 354 86 l 350 92 q 346 94 346 92 q 340 100 342 94 q 338 101 338 100 q 336 103 338 103 l 332 111 q 330 116 332 115 q 329 119 329 117 q 328 124 329 123 q 328 127 328 125 q 325 136 328 136 l 325 144 l 325 150 l 325 153 l 325 161 q 328 178 325 175 q 328 184 328 182 q 329 195 328 187 q 330 207 329 201 q 334 216 332 212 q 338 239 336 229 q 342 261 340 249 q 351 304 347 285 q 363 345 355 323 q 372 383 368 364 q 382 425 376 401 q 387 444 385 433 q 392 467 389 454 q 397 485 395 475 q 400 503 399 494 q 428 669 417 589 q 431 713 431 693 q 432 753 432 733 q 432 772 432 764 q 429 791 432 781 q 428 809 429 800 q 424 825 427 818 q 418 835 421 832 q 411 842 415 838 q 396 844 407 844 l 395 844 l 392 844 l 387 844 l 382 842 l 378 842 q 367 836 371 842 q 363 835 366 836 q 358 833 361 833 q 292 761 322 810 q 262 718 276 741 q 236 669 249 694 q 209 620 220 644 q 186 567 197 595 q 174 542 179 555 q 163 517 170 529 q 158 504 160 510 q 153 492 155 498 q 147 479 150 485 q 142 467 144 473 q 103 366 122 412 q 69 275 85 319 q 41 189 54 227 q 17 119 28 151 q -2 62 6 87 q -17 20 -9 37 q -29 -17 -24 -1 q -32 -22 -29 -17 q -33 -22 -33 -24 q -35 -14 -35 -17 l -35 -9 q -33 0 -35 -4 q -32 11 -33 3 q -29 28 -31 20 q -22 79 -26 52 q -9 144 -17 107 q 7 225 -3 182 q 29 319 17 269 q 58 425 41 370 q 94 536 74 479 q 114 593 104 566 q 138 650 125 621 q 164 707 150 677 q 195 761 179 736 q 228 811 208 786 q 265 852 246 836 q 307 886 283 873 q 329 898 318 893 q 350 903 339 903 q 363 908 354 908 l 370 908 l 375 908 l 379 908 l 386 908 l 392 908 l 395 908 l 399 908 q 411 901 406 904 q 424 892 416 899 q 430 883 427 888 q 436 875 433 878 q 439 863 437 868 q 444 850 441 857 q 450 825 447 838 q 453 800 453 812 q 454 777 454 789 q 454 753 454 765 q 452 706 454 728 q 449 661 450 685 q 438 573 444 616 q 425 486 432 530 q 422 467 424 478 q 419 444 421 456 q 414 422 416 432 q 411 400 412 412 q 405 357 408 376 q 399 317 401 338 q 393 279 396 297 q 387 244 390 261 q 395 257 390 251 q 403 269 400 262 q 437 330 420 301 q 471 386 454 358 q 489 414 480 398 q 509 441 498 429 q 531 463 519 454 q 553 484 542 472 q 566 493 559 490 q 579 500 572 496 q 585 501 582 500 q 591 503 589 503 l 600 503 l 603 503 l 604 503 l 607 503 l 608 503 l 611 503 l 612 503 l 615 503 l 616 503 l 621 503 q 624 501 623 503 q 625 500 624 500 q 636 493 631 496 q 646 484 642 490 q 655 470 651 477 q 663 453 660 464 q 668 438 665 445 q 673 419 671 431 q 677 389 676 404 q 682 358 679 374 q 683 333 682 346 q 682 309 684 321 q 681 264 682 285 q 677 225 679 244 q 674 183 675 201 q 671 144 673 164 q 670 137 671 142 q 669 127 669 132 q 677 152 673 140 q 686 175 681 164 q 694 200 690 187 q 703 225 697 212 q 732 308 718 270 q 758 378 746 346 q 782 432 770 410 q 804 467 794 454 q 821 478 814 477 l 828 478 m 378 158 l 378 161 l 378 158 m 608 353 l 607 353 l 608 353 m 633 50 l 636 50 l 633 50 z "},"R":{"ha":739,"x_min":-57,"x_max":803,"o":"m 802 392 q 803 389 802 392 l 803 386 q 803 380 803 383 q 802 378 803 378 l 799 378 q 798 375 799 376 q 793 370 795 375 q 789 358 791 366 q 776 328 782 347 q 760 283 770 309 q 714 158 740 233 q 708 139 711 147 q 701 119 704 131 q 692 101 696 111 q 685 78 689 90 q 677 59 682 70 q 668 36 672 49 q 659 17 663 28 q 648 -5 654 7 l 639 -25 q 631 -37 636 -32 q 624 -47 627 -43 q 619 -53 621 -50 q 614 -58 616 -56 l 611 -64 l 607 -64 q 606 -66 607 -65 l 603 -66 q 602 -72 602 -66 l 599 -72 l 597 -72 l 595 -72 l 593 -72 l 590 -72 l 586 -72 l 585 -72 l 581 -72 q 578 -69 578 -72 q 576 -66 578 -66 q 572 -65 574 -66 q 568 -64 571 -64 l 561 -50 q 560 -47 561 -47 q 557 -41 559 -46 q 556 -36 557 -39 q 555 -31 555 -33 q 553 -25 553 -31 l 553 -22 q 551 -20 551 -22 l 551 -17 q 551 -9 551 -10 q 549 -5 551 -8 l 549 0 l 549 3 l 549 33 l 549 50 q 551 68 551 58 q 553 86 551 78 q 556 118 555 103 q 559 150 557 134 q 576 275 565 212 q 583 339 579 307 q 593 403 587 371 q 600 468 595 435 q 607 533 604 501 q 612 598 610 566 q 614 667 614 631 q 612 728 614 699 q 606 778 610 757 q 600 801 603 790 q 590 819 596 811 q 566 844 582 831 l 557 844 q 556 847 557 847 q 555 848 555 847 l 555 850 l 551 850 l 543 850 l 534 850 l 526 850 l 515 850 q 512 847 514 850 q 507 844 510 844 q 498 842 503 844 l 490 842 q 487 837 489 838 q 482 833 485 836 q 473 828 477 833 q 470 827 472 828 q 465 825 468 825 q 458 818 461 821 q 449 811 454 815 q 441 804 445 808 q 432 794 437 799 q 401 762 416 779 q 372 725 386 746 q 344 683 357 705 q 319 636 332 660 q 295 592 307 615 q 269 545 282 568 q 247 501 258 524 q 224 458 236 478 q 202 415 213 435 q 180 375 192 396 q 158 337 170 355 q 136 302 147 319 q 97 233 115 262 q 87 218 92 227 q 78 203 83 210 q 71 188 75 195 q 61 170 66 180 q 30 118 44 142 q 1 75 16 94 q -20 37 -11 52 q -36 11 -29 22 q -44 1 -41 4 q -49 -5 -46 -1 l -52 -8 q -57 -8 -54 -19 l -57 0 l -57 1 q -56 4 -57 3 q -56 8 -56 5 q -47 33 -54 9 q -36 66 -42 45 q -20 117 -29 87 q 2 172 -10 142 q 28 236 14 203 q 35 255 31 247 q 43 275 40 264 l 52 292 q 55 301 53 298 q 60 311 57 304 q 97 386 73 349 q 116 429 106 410 q 136 469 125 449 q 160 510 147 489 q 184 550 172 530 q 210 590 197 571 q 239 628 224 608 q 267 663 252 645 q 297 700 282 681 q 329 733 313 715 q 359 766 345 750 q 391 801 375 786 q 424 833 407 817 q 456 867 439 853 q 493 895 473 882 q 496 897 494 895 q 501 900 498 900 q 506 901 504 900 q 511 903 509 903 q 519 908 514 908 q 530 911 524 911 q 541 917 534 916 l 551 920 l 553 920 l 555 920 l 559 920 l 572 920 q 593 914 582 920 q 615 900 604 908 q 635 869 625 888 q 644 851 639 861 q 652 833 648 842 q 657 813 654 823 q 661 791 660 804 q 666 772 664 781 q 669 753 668 764 q 674 710 672 732 q 676 669 676 689 q 677 630 677 648 q 677 591 677 611 q 676 554 676 572 q 673 517 676 536 q 669 443 672 479 q 664 370 667 406 q 656 302 661 336 q 648 236 652 268 q 641 183 644 208 q 635 134 637 158 q 644 153 637 147 q 662 188 654 172 q 681 220 671 204 q 711 274 696 249 q 739 319 726 300 q 762 358 751 343 q 781 383 772 372 q 788 389 785 386 q 794 392 791 392 l 798 392 l 799 392 l 802 392 m 589 61 l 586 61 l 589 61 m 586 61 l 585 61 l 586 61 z "},"S":{"ha":713,"x_min":21,"x_max":775,"o":"m 772 257 q 755 221 766 236 q 747 204 751 212 q 737 186 742 196 q 717 151 728 168 q 696 119 707 135 q 671 86 684 100 q 658 71 664 78 q 643 57 652 64 q 636 48 640 52 q 629 40 632 45 q 620 34 624 37 q 612 28 616 31 q 604 21 608 24 q 600 17 602 18 q 596 12 597 16 q 586 7 591 9 q 575 3 582 5 q 565 -3 570 0 q 554 -8 561 -5 q 540 -11 547 -9 q 526 -12 533 -12 q 512 -11 519 -12 q 497 -8 504 -9 q 494 -5 496 -5 q 489 -4 492 -5 q 486 -3 488 -4 q 484 -1 485 -1 q 480 1 481 0 q 476 3 479 3 l 476 4 l 475 4 l 472 4 l 472 7 l 471 8 q 467 12 468 11 q 464 16 467 12 l 458 21 q 457 24 458 24 q 454 28 456 25 q 453 31 454 29 q 452 33 452 32 q 447 46 449 40 q 443 57 446 52 q 437 79 440 69 q 435 100 435 89 q 432 121 433 111 q 431 142 431 131 l 431 183 q 433 223 431 203 q 437 262 435 243 q 441 303 439 283 q 447 342 444 322 l 452 361 l 456 379 q 459 400 458 390 q 463 419 460 410 q 471 457 467 439 q 479 496 476 476 l 488 533 l 496 574 q 504 612 500 593 q 513 650 507 631 q 515 668 514 659 q 518 688 517 677 q 522 708 521 697 q 525 728 522 718 l 529 746 l 533 765 q 536 785 534 776 q 539 804 538 794 q 542 827 542 820 q 534 828 542 833 q 515 807 525 817 q 496 787 505 798 q 454 746 473 768 q 445 737 449 742 q 435 725 440 732 l 414 704 l 396 686 l 376 665 q 358 643 367 654 q 339 621 349 632 q 301 579 319 601 q 284 558 292 568 q 267 536 277 547 q 251 513 258 524 q 233 490 243 501 q 217 468 225 479 q 201 444 210 456 q 188 420 195 432 q 172 396 180 408 l 167 383 l 160 374 q 157 368 159 371 q 154 361 155 364 q 151 355 151 358 q 147 349 150 351 q 135 324 140 336 q 125 298 129 311 q 106 249 111 271 q 92 196 99 227 q 89 183 92 188 l 89 178 l 89 175 l 87 171 l 87 158 l 85 146 l 85 142 l 85 140 l 85 138 l 85 132 l 85 119 l 85 96 q 87 85 87 89 q 89 75 87 81 q 92 64 92 68 q 96 57 93 60 q 100 53 97 53 q 102 49 100 50 q 106 45 102 45 l 113 37 q 116 37 114 37 q 121 36 118 36 q 129 33 123 33 q 139 33 135 33 q 150 35 144 33 q 163 37 155 36 q 167 39 164 37 q 172 40 170 40 l 179 41 l 180 45 l 184 45 l 192 49 l 196 50 q 202 53 199 53 q 208 54 205 53 q 215 58 211 57 q 221 61 218 58 q 231 66 224 64 l 243 74 q 249 77 245 75 q 254 79 252 78 q 277 94 267 89 q 288 103 281 96 q 294 106 290 104 q 300 109 297 107 l 310 117 l 321 125 q 332 133 328 127 q 343 140 336 138 l 346 140 l 347 140 q 347 136 351 136 q 338 124 343 130 q 329 115 334 119 q 319 104 323 110 q 310 94 315 98 q 301 86 307 89 l 296 79 l 292 75 q 281 66 286 71 q 271 57 275 61 q 265 52 268 54 q 260 49 262 50 q 255 44 257 46 q 250 40 253 41 q 237 32 243 33 q 227 24 233 26 q 220 19 224 21 q 214 16 216 17 l 208 11 l 201 8 l 200 7 l 196 4 l 189 0 q 183 -3 186 -1 q 175 -4 179 -4 q 146 -14 159 -12 q 110 -14 129 -18 l 106 -14 l 102 -12 l 100 -12 l 97 -12 l 92 -9 q 84 -6 89 -8 q 75 -1 79 -4 q 67 5 73 1 q 60 11 62 8 q 54 20 56 15 q 51 22 52 21 q 47 25 50 24 q 33 57 39 41 q 25 86 28 71 q 21 117 21 100 l 21 132 l 21 140 l 21 144 l 21 146 l 21 149 l 21 146 l 21 161 l 21 178 l 21 182 l 21 183 l 21 192 q 22 201 21 197 q 22 208 22 204 q 35 269 26 236 q 54 328 41 297 q 57 334 56 330 q 60 342 58 338 l 64 354 q 79 383 69 371 q 82 390 81 386 q 85 396 83 393 q 88 402 87 399 q 92 408 89 406 l 100 424 l 106 436 q 121 461 114 448 q 139 486 129 473 q 156 510 147 498 q 172 533 165 522 q 210 579 191 558 q 249 625 229 603 q 289 667 269 647 l 330 708 q 341 718 336 713 q 351 729 347 722 q 363 739 358 734 q 372 749 368 743 q 384 758 379 753 q 396 766 389 762 q 407 776 403 772 q 418 786 411 781 q 440 805 429 795 q 464 823 452 814 q 486 841 475 833 q 510 859 497 848 q 522 866 517 861 q 533 875 526 871 q 546 884 540 880 q 558 892 551 888 q 571 896 565 897 q 581 888 578 895 q 585 875 585 884 q 579 856 582 865 q 575 838 576 847 q 570 818 572 828 q 564 799 567 808 q 560 780 562 789 q 555 761 558 771 l 551 742 l 547 724 q 544 704 546 714 q 539 684 542 694 q 536 665 538 674 q 533 646 534 656 q 527 607 530 626 q 521 570 524 589 q 519 550 521 560 q 517 529 518 539 q 514 510 514 519 q 513 490 514 501 q 509 452 510 471 q 505 412 509 433 q 505 394 505 403 q 504 374 505 385 l 501 336 q 500 297 501 315 q 500 258 500 278 q 497 220 497 239 q 496 182 497 201 q 496 144 496 162 q 497 107 496 126 q 500 90 500 99 q 504 74 501 81 q 505 67 504 71 q 509 61 505 62 l 509 57 q 510 54 510 56 l 510 53 l 513 53 q 512 52 514 50 q 513 53 510 53 l 514 50 l 517 50 q 518 49 517 49 q 522 47 521 49 q 526 46 524 46 q 551 53 537 46 q 560 56 557 54 q 567 58 564 57 q 575 62 568 62 q 578 66 576 65 q 581 69 579 66 q 610 90 597 77 q 638 115 625 102 q 667 142 652 127 q 679 157 673 150 q 692 171 685 164 q 704 185 699 178 q 717 200 710 193 q 743 231 730 216 q 766 261 755 245 q 772 261 772 261 q 772 257 775 258 z "},"T":{"ha":686,"x_min":-53,"x_max":755,"o":"m 755 456 q 747 396 751 424 q 734 339 742 368 q 722 283 728 311 q 705 228 715 256 q 667 127 690 175 q 655 105 661 117 q 643 86 650 94 q 614 47 629 66 q 580 23 598 32 q 546 14 562 14 l 538 14 l 526 14 l 522 14 l 521 14 l 518 14 l 514 20 l 513 20 l 510 20 l 504 22 l 501 22 l 497 22 q 494 29 496 26 q 489 36 492 32 l 484 39 q 481 42 481 39 q 479 45 481 45 l 475 53 q 472 54 472 53 q 471 56 471 54 q 455 84 461 68 q 443 119 449 100 q 434 150 439 135 q 427 180 429 165 q 421 213 424 197 q 416 244 419 228 q 415 254 416 251 q 414 261 414 257 l 412 278 q 411 293 412 286 q 410 311 410 300 q 406 374 407 343 q 401 436 404 404 q 400 467 400 452 q 400 497 400 482 l 400 561 l 400 589 l 400 623 l 400 681 q 401 711 401 698 q 401 739 401 724 q 401 733 401 736 q 400 728 400 730 l 371 597 q 356 533 364 566 q 342 469 349 501 q 334 437 339 452 q 326 406 329 422 q 319 373 323 390 q 313 339 315 355 q 297 276 304 307 q 279 214 289 245 q 272 183 277 198 q 262 153 267 168 q 253 121 257 136 q 243 89 249 106 q 221 31 233 57 q 213 16 218 22 q 205 3 208 9 q 184 -22 197 -9 q 180 -28 183 -22 l 175 -28 q 167 -31 171 -31 l 163 -31 l 160 -31 l 158 -31 l 155 -31 l 154 -28 l 150 -28 l 147 -28 q 144 -25 146 -28 q 142 -22 143 -22 q 138 -21 139 -22 q 135 -20 138 -20 q 100 39 111 3 q 96 50 97 45 q 93 61 96 54 q 87 78 90 66 q 84 97 85 86 q 81 119 83 107 q 75 157 78 139 q 71 195 72 175 q 66 270 68 232 q 64 345 64 307 q 65 415 64 378 q 68 489 66 452 l 66 481 l 54 447 q 48 429 52 439 q 41 411 45 419 l 29 378 l 17 345 q 11 325 14 334 q 4 306 7 317 q -2 291 1 298 q -8 272 -5 283 q -15 255 -11 264 q -21 239 -18 245 q -33 204 -28 219 q -46 170 -39 189 l -53 170 l -53 178 q -45 217 -50 199 q -36 256 -40 236 q -31 275 -33 267 q -28 294 -29 283 q -22 314 -25 302 q -17 336 -20 325 q -13 354 -16 345 q -8 372 -11 364 l 0 411 l 9 447 q 15 466 12 458 q 18 486 17 475 l 29 528 l 39 564 l 47 603 l 58 639 l 68 677 l 79 714 l 87 753 q 93 771 90 761 q 97 789 96 781 q 115 816 104 808 q 138 811 126 823 q 149 784 144 800 q 151 753 154 768 l 151 747 l 150 730 l 147 714 l 146 681 q 142 646 143 661 q 139 611 142 631 q 136 542 138 575 q 131 472 134 509 q 129 408 130 440 q 126 339 129 375 l 126 272 l 126 205 q 129 175 129 190 q 131 147 129 160 q 134 133 134 139 q 135 119 134 126 q 136 113 135 115 q 138 106 138 110 q 139 100 139 103 q 139 94 139 97 q 142 87 142 90 q 143 81 142 85 l 146 78 l 146 75 q 147 72 146 73 q 151 66 150 69 q 154 61 151 64 l 155 56 q 160 53 158 56 l 163 53 l 164 53 l 163 53 l 164 53 l 167 53 l 167 47 l 168 47 l 171 47 l 171 52 l 172 53 q 184 61 178 53 q 191 69 187 64 q 197 78 195 74 q 209 98 204 86 q 221 122 214 110 q 241 179 232 151 q 260 236 250 207 q 293 361 278 298 q 299 392 296 376 q 309 422 302 407 q 315 454 311 439 q 321 489 318 469 q 333 552 328 521 q 346 619 339 583 q 357 685 353 652 q 367 753 361 717 q 378 820 374 786 q 387 886 382 854 q 396 954 391 920 q 406 1022 401 989 l 443 1197 q 457 1235 446 1222 q 484 1239 468 1247 q 502 1212 494 1232 q 505 1166 509 1192 l 504 1164 l 500 1105 q 498 1078 500 1093 q 497 1047 497 1063 q 486 922 489 985 q 479 794 482 860 q 478 734 479 762 q 476 677 476 705 l 475 619 l 475 561 q 473 530 475 544 q 475 503 472 515 l 475 472 l 475 444 q 479 330 475 389 q 479 317 479 323 q 481 302 479 311 l 481 289 q 482 283 481 286 q 484 278 484 281 q 486 253 485 266 q 489 228 488 240 q 497 181 492 203 q 510 147 503 160 q 516 138 513 140 q 522 131 519 135 l 525 131 l 522 131 l 525 131 l 529 127 l 530 127 l 534 127 q 536 126 534 126 q 539 122 538 125 l 546 122 q 558 123 553 122 q 571 127 564 123 q 593 136 585 127 q 605 146 600 143 q 618 161 611 150 q 629 174 623 168 q 642 189 635 180 q 662 224 652 206 q 681 264 671 243 q 699 311 690 288 q 717 355 708 335 q 726 380 721 368 q 733 406 730 393 q 741 433 737 418 q 747 461 745 449 q 754 461 750 464 l 755 456 z "},"U":{"ha":439,"x_min":28,"x_max":545,"o":"m 541 372 q 545 368 545 372 l 542 366 q 538 363 541 364 q 532 360 535 361 q 525 357 529 358 q 504 349 515 354 q 478 336 493 343 q 444 321 463 330 q 404 306 425 313 q 359 285 382 296 q 311 261 336 273 l 286 249 q 273 242 279 246 q 258 236 267 239 q 250 231 256 233 q 244 207 248 220 q 237 182 240 195 q 231 144 235 162 q 220 107 227 126 q 207 69 216 87 q 187 32 201 52 q 181 23 184 28 q 174 14 178 18 q 165 4 171 8 q 153 -5 160 0 q 144 -8 147 -7 q 136 -9 140 -9 q 117 -11 130 -11 q 100 -7 106 -11 q 96 -5 96 -7 l 92 -3 q 89 -2 90 -3 q 86 -1 87 -1 q 74 8 79 4 q 65 18 69 12 l 62 20 l 61 22 l 58 26 l 57 28 l 54 28 l 54 31 l 50 35 l 46 40 q 45 41 45 40 l 45 45 l 40 52 q 37 56 40 53 l 36 61 q 33 68 33 64 l 32 74 q 29 81 29 77 q 28 86 29 85 l 28 94 l 28 107 l 28 111 l 28 114 l 28 119 q 29 125 29 122 q 32 135 29 129 q 50 176 37 159 q 79 210 62 196 q 83 212 82 211 q 86 215 83 214 q 94 222 89 222 q 97 226 96 224 q 100 228 98 228 q 105 231 102 231 q 109 235 107 232 q 139 255 124 245 q 170 273 154 264 q 200 288 185 281 q 229 301 215 294 q 238 304 235 302 q 244 307 241 306 q 247 321 245 314 q 250 335 249 328 q 255 371 253 355 q 257 407 257 387 q 260 442 258 425 q 262 476 261 458 q 266 510 265 493 q 269 543 267 528 q 273 574 271 559 q 278 606 275 590 q 283 635 281 621 q 288 664 285 648 q 308 765 298 721 q 328 843 318 810 q 334 872 330 859 q 340 893 338 885 q 343 900 342 897 q 345 905 345 903 q 345 907 345 907 q 346 909 346 908 l 346 911 q 350 914 346 913 q 353 909 353 914 l 353 905 q 354 890 354 903 q 357 870 357 884 q 357 839 357 856 l 357 760 q 353 710 354 736 q 349 656 351 684 q 345 625 346 640 q 342 595 345 610 q 338 564 340 581 q 332 532 335 547 q 324 500 329 516 q 315 468 319 484 q 306 433 310 450 q 296 399 301 416 q 285 365 289 382 q 275 330 281 347 q 272 321 274 325 q 271 315 271 318 q 278 319 273 318 q 288 322 283 319 q 341 338 315 332 q 390 349 367 345 q 432 358 412 355 q 469 364 452 361 q 499 368 486 367 q 521 370 511 370 q 536 372 528 372 l 541 372 m 212 191 q 217 203 215 197 q 221 215 220 208 q 214 211 218 212 q 207 207 210 210 q 179 191 191 200 q 154 172 167 182 q 142 162 147 167 q 132 153 136 158 q 129 151 130 151 q 125 149 127 151 q 121 143 125 144 q 119 142 119 143 q 117 139 119 140 q 114 136 117 139 l 113 135 q 100 114 104 123 q 98 94 98 107 l 98 90 l 98 89 l 100 87 l 100 86 l 100 85 q 101 82 100 82 q 103 81 103 82 l 103 78 l 104 77 q 107 72 104 74 l 107 69 l 109 69 l 109 68 l 111 65 l 113 64 l 113 61 l 115 61 q 118 57 117 58 q 121 53 119 56 q 123 52 122 52 l 125 52 l 125 49 q 130 52 127 52 q 134 53 132 52 q 139 58 136 56 q 144 64 142 61 q 156 77 151 71 q 165 90 160 83 q 174 106 170 98 q 183 122 179 114 q 198 156 191 139 q 212 191 205 174 z "}}}
